<svg width="100%" height="100%" viewBox="0 0 497 497" xmlns="http://www.w3.org/2000/svg">
	<g>
		<path d="m475.451 95.334h-453.902c-11.901 0-21.549 9.648-21.549 21.549v276.901c0 11.901 9.648 21.55 21.549 21.55h167.37c8.074 0 15.956 2.71 22.173 7.861 10.154 8.414 23.19 13.472 37.408 13.472s27.254-5.058 37.408-13.472c6.217-5.152 14.099-7.861 22.173-7.861h167.37c11.901 0 21.55-9.648 21.55-21.55v-276.901c-.001-11.902-9.649-21.549-21.55-21.549z" fill="#ea9b58" />
		<path d="m452.56 60.333h-173.25c-12.258 0-22.845 15.989-27.806 24.93-1.308 2.356-4.701 2.356-6.009 0-4.962-8.941-15.548-24.93-27.806-24.93h-173.249c-5.121 0-9.273 4.152-9.273 9.273v301.137c0 5.121 4.152 9.273 9.273 9.273h173.25c17.016 0 30.811-30.81 30.811-30.81s13.795 30.81 30.811 30.81h173.25c5.121 0 9.273-4.151 9.273-9.273v-301.137c-.002-5.121-4.153-9.273-9.275-9.273z" fill="#f0efec" />
		<path d="m475.45 385.333h-453.901c-11.901 0-21.549-9.648-21.549-21.549v30c0 11.901 9.648 21.55 21.549 21.55h167.37c8.074 0 15.956 2.71 22.173 7.861 10.154 8.414 23.19 13.472 37.408 13.472s27.254-5.058 37.408-13.472c6.217-5.152 14.099-7.861 22.173-7.861h167.37c11.901 0 21.55-9.648 21.55-21.55v-30c-.001 11.901-9.649 21.549-21.551 21.549z" fill="#d88a55" />
		<path d="m81.892 272.441h119.883c2.762 0 5-2.239 5-5v-5.704c0-17.176-10.559-32.585-26.576-38.786l-38.366-14.851-38.365 14.851c-16.018 6.201-26.576 21.61-26.576 38.786v5.704c0 2.761 2.239 5 5 5z" fill="#60b7ff" />
		<path d="m180.198 222.951-38.365-14.851-15 5.807 23.365 9.044c16.018 6.201 26.576 21.61 26.576 38.786v5.704c0 2.761-2.238 5-5 5h30c2.762 0 5-2.239 5-5v-5.704c.001-17.176-10.558-32.585-26.576-38.786z" fill="#26a6fe" />
		<path d="m452.56 350.016h-173.25c-12.631 0-23.486-16.976-28.243-25.726-1.107-2.037-4.028-2.037-5.135 0-4.757 8.75-15.612 25.726-28.243 25.726h-173.249c-5.121 0-9.273-4.152-9.273-9.273v30c0 5.121 4.152 9.273 9.273 9.273h173.25c11.878 0 22.186-15.012 27.328-24.079 1.531-2.698 5.434-2.698 6.965 0 5.142 9.067 15.45 24.079 27.328 24.079h173.25c5.121 0 9.273-4.151 9.273-9.273v-30c-.001 5.121-4.152 9.273-9.274 9.273z" fill="#e6e1df" />
		<path d="m141.833 124.174c-22.837 0-41.35 18.513-41.35 41.349v13.783c0 22.837 18.513 41.35 41.35 41.35s41.349-18.513 41.349-41.349v-13.784c.001-22.836-18.512-41.349-41.349-41.349z" fill="#ffe3cb" />
		<path d="m141.833 124.174c-5.293 0-10.348 1.005-15 2.818 15.419 6.007 26.349 20.988 26.349 38.532v13.784c0 17.544-10.931 32.524-26.349 38.531 4.652 1.812 9.707 2.818 15 2.818 22.837 0 41.349-18.513 41.349-41.349v-13.784c.001-22.837-18.512-41.35-41.349-41.35z" fill="#ffd9b9" />
		<g fill="#cdbfba">
			<path d="m415.157 131.674h-29.987c-4.142 0-7.5-3.358-7.5-7.5s3.358-7.5 7.5-7.5h29.987c4.143 0 7.5 3.358 7.5 7.5s-3.358 7.5-7.5 7.5z" />
			<path d="m355.167 131.674h-59.991c-4.143 0-7.5-3.358-7.5-7.5s3.357-7.5 7.5-7.5h59.991c4.143 0 7.5 3.358 7.5 7.5s-3.358 7.5-7.5 7.5z" />
			<path d="m415.157 163.674h-29.987c-4.142 0-7.5-3.358-7.5-7.5s3.358-7.5 7.5-7.5h29.987c4.143 0 7.5 3.358 7.5 7.5s-3.358 7.5-7.5 7.5z" />
			<path d="m333.834 163.674h-38.658c-4.143 0-7.5-3.358-7.5-7.5s3.357-7.5 7.5-7.5h38.658c4.143 0 7.5 3.358 7.5 7.5s-3.358 7.5-7.5 7.5z" />
			<path d="m415.157 195.674h-29.987c-4.142 0-7.5-3.358-7.5-7.5s3.358-7.5 7.5-7.5h29.987c4.143 0 7.5 3.358 7.5 7.5s-3.358 7.5-7.5 7.5z" />
			<path d="m355.167 195.674h-59.991c-4.143 0-7.5-3.358-7.5-7.5s3.357-7.5 7.5-7.5h59.991c4.143 0 7.5 3.358 7.5 7.5s-3.358 7.5-7.5 7.5z" />
			<path d="m415.157 227.674h-29.987c-4.142 0-7.5-3.358-7.5-7.5s3.358-7.5 7.5-7.5h29.987c4.143 0 7.5 3.358 7.5 7.5s-3.358 7.5-7.5 7.5z" />
			<path d="m333.834 227.674h-38.658c-4.143 0-7.5-3.358-7.5-7.5s3.357-7.5 7.5-7.5h38.658c4.143 0 7.5 3.358 7.5 7.5s-3.358 7.5-7.5 7.5z" />
			<path d="m415.157 259.674h-29.987c-4.142 0-7.5-3.358-7.5-7.5s3.358-7.5 7.5-7.5h29.987c4.143 0 7.5 3.358 7.5 7.5s-3.358 7.5-7.5 7.5z" />
			<path d="m355.167 259.674h-59.991c-4.143 0-7.5-3.358-7.5-7.5s3.357-7.5 7.5-7.5h59.991c4.143 0 7.5 3.358 7.5 7.5s-3.358 7.5-7.5 7.5z" />
			<path d="m415.157 291.674h-29.987c-4.142 0-7.5-3.358-7.5-7.5s3.358-7.5 7.5-7.5h29.987c4.143 0 7.5 3.358 7.5 7.5s-3.358 7.5-7.5 7.5z" />
			<path d="m333.834 291.674h-38.658c-4.143 0-7.5-3.358-7.5-7.5s3.357-7.5 7.5-7.5h38.658c4.143 0 7.5 3.358 7.5 7.5s-3.358 7.5-7.5 7.5z" />
			<path d="m415.157 323.674h-29.987c-4.142 0-7.5-3.358-7.5-7.5s3.358-7.5 7.5-7.5h29.987c4.143 0 7.5 3.358 7.5 7.5s-3.358 7.5-7.5 7.5z" />
			<path d="m355.167 323.674h-59.991c-4.143 0-7.5-3.358-7.5-7.5s3.357-7.5 7.5-7.5h59.991c4.143 0 7.5 3.358 7.5 7.5s-3.358 7.5-7.5 7.5z" />
			<path d="m184.5 323.674h-85.333c-4.143 0-7.5-3.358-7.5-7.5s3.357-7.5 7.5-7.5h85.333c4.143 0 7.5 3.358 7.5 7.5s-3.358 7.5-7.5 7.5z" />
		</g>
	</g>
</svg>
