<svg xmlns="http://www.w3.org/2000/svg" xmlns:xlink="http://www.w3.org/1999/xlink" viewBox="0 0 397.75 144.99">
  <defs>
    <linearGradient id="linear-gradient" x1="156" y1="68.63" x2="234.67" y2="68.63" gradientUnits="userSpaceOnUse">
      <stop offset="0.2" stop-color="#1a82b6" stop-opacity="0.7"/>
      <stop offset="0.22" stop-color="#1b85b9" stop-opacity="0.7"/>
      <stop offset="0.4" stop-color="#2395cd" stop-opacity="0.7"/>
      <stop offset="0.63" stop-color="#289fd9" stop-opacity="0.7"/>
      <stop offset="1" stop-color="#29a2dd" stop-opacity="0.7"/>
      <stop offset="1" stop-color="#2aa4e0"/>
    </linearGradient>
  </defs>
  <g id="Layer_2" data-name="Layer 2">
    <g id="Layer_1-2" data-name="Layer 1">
      <g>
        <g style="opacity: 0.2">
          <path d="M72.37,56.29h6v1h-5v3.29h4.92v1H73.42v4.12h4.92v1h-6Z" style="stroke: #000;stroke-linecap: square;stroke-linejoin: round;stroke-width: 0.009999999776482582px"/>
          <path d="M80.2,56.29h5.26v1H81.25v3.29h4.21v1H81.25v5.15h-1Z" style="stroke: #000;stroke-linecap: square;stroke-linejoin: round;stroke-width: 0.009999999776482582px"/>
          <path d="M101.11,58.24l-.83.63a4.53,4.53,0,0,0-1.64-1.35,4.76,4.76,0,0,0-2.11-.46,4.7,4.7,0,0,0-2.33.6,4.38,4.38,0,0,0-1.66,1.62A4.51,4.51,0,0,0,92,61.57a4.31,4.31,0,0,0,1.32,3.21,4.87,4.87,0,0,0,7-.45l.83.63a5.24,5.24,0,0,1-2,1.55,6.17,6.17,0,0,1-2.62.54,5.46,5.46,0,0,1-4.35-1.83,5.53,5.53,0,0,1-1.33-3.74,5.19,5.19,0,0,1,1.62-3.88,5.55,5.55,0,0,1,4-1.58,5.9,5.9,0,0,1,2.65.59A5,5,0,0,1,101.11,58.24Z" style="stroke: #000;stroke-linecap: square;stroke-linejoin: round;stroke-width: 0.009999999776482582px"/>
          <path d="M108.22,56a5.41,5.41,0,0,1,4,1.6,5.29,5.29,0,0,1,1.61,3.91,5.56,5.56,0,0,1-9.46,3.92,5.23,5.23,0,0,1-1.6-3.86,5.58,5.58,0,0,1,.73-2.81,5.29,5.29,0,0,1,2-2A5.39,5.39,0,0,1,108.22,56Zm0,1a4.45,4.45,0,0,0-3.84,2.24,4.54,4.54,0,0,0-.59,2.29A4.42,4.42,0,0,0,108.27,66a4.54,4.54,0,0,0,2.26-.59,4.34,4.34,0,0,0,1.62-1.62,4.56,4.56,0,0,0,.58-2.29,4.45,4.45,0,0,0-4.46-4.48Z" style="stroke: #000;stroke-linecap: square;stroke-linejoin: round;stroke-width: 0.009999999776482582px"/>
          <path d="M116,56.29h2.09a13.19,13.19,0,0,1,2.37.14,2.66,2.66,0,0,1,1.52.92,2.63,2.63,0,0,1,.59,1.73,2.86,2.86,0,0,1-.4,1.51,2.55,2.55,0,0,1-1.16,1,5.07,5.07,0,0,1-2.07.34l3.78,4.88h-1.3l-3.78-4.88H117v4.88h-1Zm1,1v3.57h1.81a4.63,4.63,0,0,0,1.56-.2,1.64,1.64,0,0,0,.78-.64,1.75,1.75,0,0,0,.28-1,1.71,1.71,0,0,0-.28-1,1.62,1.62,0,0,0-.75-.62,4.73,4.73,0,0,0-1.55-.18Z" style="stroke: #000;stroke-linecap: square;stroke-linejoin: round;stroke-width: 0.009999999776482582px"/>
          <path d="M124.8,56.29h6v1h-5v3.29h4.93v1h-4.93v4.12h4.93v1h-6Z" style="stroke: #000;stroke-linecap: square;stroke-linejoin: round;stroke-width: 0.009999999776482582px"/>
          <circle cx="100.87" cy="25.93" r="23.93" style="stroke: #000;stroke-miterlimit: 10;stroke-width: 2px;stroke-dasharray: 2;opacity: 0.25"/>
          <path d="M81.35,14.92h2v.34H81.7v1.1h1.64v.34H81.7v1.38h1.64v.34h-2Z" style="stroke: #000;stroke-linecap: square;stroke-linejoin: round;stroke-width: 0.009999999776482582px"/>
          <path d="M83.9,15.83h.34v.47a1.37,1.37,0,0,1,.44-.4,1.07,1.07,0,0,1,.53-.13,1,1,0,0,1,.51.14.86.86,0,0,1,.33.4,2.15,2.15,0,0,1,.11.78v1.33h-.33V17.19a3.41,3.41,0,0,0,0-.6.68.68,0,0,0-.22-.39.71.71,0,0,0-.43-.13.84.84,0,0,0-.54.2,1,1,0,0,0-.32.5,3.72,3.72,0,0,0,0,.7v1H83.9Z" style="stroke: #000;stroke-linecap: square;stroke-linejoin: round;stroke-width: 0.009999999776482582px"/>
          <path d="M87.16,14.87h.34v1H88v.29H87.5v2.3h-.34v-2.3h-.45v-.29h.45Z" style="stroke: #000;stroke-linecap: square;stroke-linejoin: round;stroke-width: 0.009999999776482582px"/>
          <path d="M88.64,14.77a.22.22,0,0,1,.19.08.25.25,0,0,1,.09.19.27.27,0,0,1-.09.2.26.26,0,0,1-.19.08.27.27,0,0,1-.19-.08.3.3,0,0,1-.08-.2.27.27,0,0,1,.08-.19A.24.24,0,0,1,88.64,14.77Zm-.16,1.06h.33v2.59h-.33Z" style="stroke: #000;stroke-linecap: square;stroke-linejoin: round;stroke-width: 0.009999999776482582px"/>
          <path d="M89.79,14.87h.33v1h.53v.29h-.53v2.3h-.33v-2.3h-.45v-.29h.45Z" style="stroke: #000;stroke-linecap: square;stroke-linejoin: round;stroke-width: 0.009999999776482582px"/>
          <path d="M90.87,15.83h.36l.89,2,.86-2h.35l-1.54,3.54h-.35l.5-1.14Z" style="stroke: #000;stroke-linecap: square;stroke-linejoin: round;stroke-width: 0.009999999776482582px"/>
          <path d="M95.17,14.92h1.75v.34h-1.4v1.1h1.4v.34h-1.4v1.72h-.35Z" style="stroke: #000;stroke-linecap: square;stroke-linejoin: round;stroke-width: 0.009999999776482582px"/>
          <path d="M97.35,15.83h.34v.38a1.12,1.12,0,0,1,.32-.33.58.58,0,0,1,.35-.11.71.71,0,0,1,.3.08l-.17.29a.35.35,0,0,0-.18-.05.49.49,0,0,0-.32.14.85.85,0,0,0-.24.42,4.27,4.27,0,0,0-.06.9v.87h-.34Z" style="stroke: #000;stroke-linecap: square;stroke-linejoin: round;stroke-width: 0.009999999776482582px"/>
          <path d="M101.52,15.83v2.59h-.33V18a1.41,1.41,0,0,1-.47.38,1.2,1.2,0,0,1-.57.13,1.26,1.26,0,0,1-.94-.4,1.38,1.38,0,0,1-.38-1,1.34,1.34,0,0,1,.39-1,1.28,1.28,0,0,1,.94-.39,1.21,1.21,0,0,1,.58.13,1.34,1.34,0,0,1,.45.41v-.48Zm-1.33.26a1,1,0,0,0-.51.13,1.09,1.09,0,0,0-.38.39,1,1,0,0,0,0,1,1,1,0,0,0,.38.39.94.94,0,0,0,.51.14,1,1,0,0,0,.52-.14.94.94,0,0,0,.37-.37,1,1,0,0,0,.13-.53,1,1,0,0,0-.29-.75A1,1,0,0,0,100.19,16.09Z" style="stroke: #000;stroke-linecap: square;stroke-linejoin: round;stroke-width: 0.009999999776482582px"/>
          <path d="M102.27,15.83h.33v.45a1.36,1.36,0,0,1,.36-.36,1,1,0,0,1,.53-.15.86.86,0,0,1,.36.07.68.68,0,0,1,.27.2.89.89,0,0,1,.19.35,1.21,1.21,0,0,1,.42-.47,1,1,0,0,1,.53-.15.86.86,0,0,1,.48.13.88.88,0,0,1,.3.38,1.93,1.93,0,0,1,.1.73v1.41h-.34V17a1.78,1.78,0,0,0-.06-.57.57.57,0,0,0-.2-.26.64.64,0,0,0-.34-.09.8.8,0,0,0-.45.14.84.84,0,0,0-.29.38,2.52,2.52,0,0,0-.09.8v1H104V17.1a2.81,2.81,0,0,0,0-.64.56.56,0,0,0-.21-.27.55.55,0,0,0-.34-.1.74.74,0,0,0-.43.14.78.78,0,0,0-.3.37,1.93,1.93,0,0,0-.1.73v1.09h-.33Z" style="stroke: #000;stroke-linecap: square;stroke-linejoin: round;stroke-width: 0.009999999776482582px"/>
          <path d="M109,17.56l.28.15a1.52,1.52,0,0,1-.32.44,1.28,1.28,0,0,1-.4.25,1.42,1.42,0,0,1-.52.09,1.23,1.23,0,0,1-1-.42,1.42,1.42,0,0,1-.35-.94,1.37,1.37,0,0,1,.3-.87,1.23,1.23,0,0,1,1-.49,1.24,1.24,0,0,1,1,.5,1.41,1.41,0,0,1,.29.88h-2.33a1.05,1.05,0,0,0,.29.74.88.88,0,0,0,.69.29,1,1,0,0,0,.38-.07.92.92,0,0,0,.32-.18A1.53,1.53,0,0,0,109,17.56Zm0-.69a1.14,1.14,0,0,0-.19-.43,1,1,0,0,0-.34-.26,1.12,1.12,0,0,0-.44-.09,1,1,0,0,0-.66.24,1.16,1.16,0,0,0-.3.54Z" style="stroke: #000;stroke-linecap: square;stroke-linejoin: round;stroke-width: 0.009999999776482582px"/>
          <path d="M109.66,15.83H110l.8,1.88.82-1.88h.06l.83,1.88.81-1.88h.35l-1.13,2.59h-.06l-.83-1.85-.82,1.85h-.06Z" style="stroke: #000;stroke-linecap: square;stroke-linejoin: round;stroke-width: 0.009999999776482582px"/>
          <path d="M115.28,15.77a1.3,1.3,0,0,1,1,.43,1.36,1.36,0,0,1,.35.93,1.34,1.34,0,0,1-.37.95,1.3,1.3,0,0,1-1,.41,1.28,1.28,0,0,1-1-.41,1.38,1.38,0,0,1,0-1.88A1.27,1.27,0,0,1,115.28,15.77Zm0,.32a1,1,0,0,0-.71.31,1,1,0,0,0-.3.74,1,1,0,0,0,.14.52.94.94,0,0,0,.36.38,1,1,0,0,0,.51.13,1,1,0,0,0,.51-.13.9.9,0,0,0,.37-.38,1,1,0,0,0,.14-.52,1,1,0,0,0-.3-.74A1,1,0,0,0,115.28,16.09Z" style="stroke: #000;stroke-linecap: square;stroke-linejoin: round;stroke-width: 0.009999999776482582px"/>
          <path d="M117.12,15.83h.34v.38a1.15,1.15,0,0,1,.33-.33.58.58,0,0,1,.35-.11.67.67,0,0,1,.29.08l-.17.29a.35.35,0,0,0-.18-.05.49.49,0,0,0-.32.14.84.84,0,0,0-.23.42,3.51,3.51,0,0,0-.07.9v.87h-.34Z" style="stroke: #000;stroke-linecap: square;stroke-linejoin: round;stroke-width: 0.009999999776482582px"/>
          <path d="M118.71,14.83h.34v2l1.2-1h.49l-1.43,1.24,1.51,1.35h-.47l-1.3-1.16v1.16h-.34Z" style="stroke: #000;stroke-linecap: square;stroke-linejoin: round;stroke-width: 0.009999999776482582px"/>
          <path d="M101,26.58l-1.32,1A7.22,7.22,0,0,0,97,25.43a7.67,7.67,0,0,0-3.37-.73,7.46,7.46,0,0,0-3.71,1,6.92,6.92,0,0,0-2.65,2.58,7.24,7.24,0,0,0-.94,3.65A6.86,6.86,0,0,0,88.47,37a7.33,7.33,0,0,0,5.31,2.05,7.44,7.44,0,0,0,5.88-2.76l1.32,1a8.31,8.31,0,0,1-3.12,2.47,9.85,9.85,0,0,1-4.19.87,8.67,8.67,0,0,1-6.93-2.93,8.8,8.8,0,0,1-2.13-6,8.28,8.28,0,0,1,2.58-6.19,8.86,8.86,0,0,1,6.46-2.51,9.63,9.63,0,0,1,4.24.92A8.16,8.16,0,0,1,101,26.58Z" style="stroke: #000;stroke-linecap: square;stroke-linejoin: round;stroke-width: 0.25px"/>
          <circle cx="94.06" cy="32.06" r="4.41"/>
          <path d="M102.29,28.22h1.25v1.36a4.47,4.47,0,0,1,1.17-1.2A2.44,2.44,0,0,1,106,28a2.32,2.32,0,0,1,1.08.32l-.64,1a1.66,1.66,0,0,0-.65-.16,1.77,1.77,0,0,0-1.17.49,3.09,3.09,0,0,0-.87,1.52,14.53,14.53,0,0,0-.22,3.21v3.15h-1.25Z" style="stroke: #000;stroke-linecap: square;stroke-linejoin: round;stroke-width: 0.009999999776482582px"/>
          <path d="M116.12,34.43l1,.53A5.45,5.45,0,0,1,116,36.53a4.5,4.5,0,0,1-1.49.91,5.29,5.29,0,0,1-1.88.32A4.62,4.62,0,0,1,109,36.27a5,5,0,0,1-1.31-3.37,4.93,4.93,0,0,1,1.11-3.16A4.6,4.6,0,0,1,112.54,28a4.74,4.74,0,0,1,3.88,1.81,5,5,0,0,1,1,3.17h-8.55A3.75,3.75,0,0,0,110,35.62a3.39,3.39,0,0,0,2.52,1,4.28,4.28,0,0,0,1.42-.24,4,4,0,0,0,1.16-.66A5.44,5.44,0,0,0,116.12,34.43Zm0-2.5a3.89,3.89,0,0,0-.71-1.53,3.28,3.28,0,0,0-1.24-.92,3.89,3.89,0,0,0-1.61-.35,3.51,3.51,0,0,0-2.41.88A4,4,0,0,0,109,31.93Z" style="stroke: #000;stroke-miterlimit: 10;stroke-width: 0.009999999776482582px"/>
        </g>
        <g>
          <g>
            <path d="M73.37,55.29h6v1h-5v3.29h4.92v1H74.42v4.12h4.92v1h-6Z" style="fill: #652076;stroke: #fff;stroke-linecap: square;stroke-linejoin: round;stroke-width: 0.009999999776482582px"/>
            <path d="M81.2,55.29h5.26v1H82.25v3.29h4.21v1H82.25v5.15h-1Z" style="fill: #652076;stroke: #fff;stroke-linecap: square;stroke-linejoin: round;stroke-width: 0.009999999776482582px"/>
            <path d="M102.11,57.24l-.83.63a4.53,4.53,0,0,0-1.64-1.35,4.76,4.76,0,0,0-2.11-.46,4.7,4.7,0,0,0-2.33.6,4.38,4.38,0,0,0-1.66,1.62A4.51,4.51,0,0,0,93,60.57a4.31,4.31,0,0,0,1.32,3.21,4.87,4.87,0,0,0,7-.45l.83.63a5.24,5.24,0,0,1-2,1.55,6.17,6.17,0,0,1-2.62.54,5.46,5.46,0,0,1-4.35-1.83,5.53,5.53,0,0,1-1.33-3.74,5.19,5.19,0,0,1,1.62-3.88,5.55,5.55,0,0,1,4-1.58,5.9,5.9,0,0,1,2.65.59A5,5,0,0,1,102.11,57.24Z" style="fill: #652076;stroke: #fff;stroke-linecap: square;stroke-linejoin: round;stroke-width: 0.009999999776482582px"/>
            <path d="M109.22,55a5.41,5.41,0,0,1,4,1.6,5.29,5.29,0,0,1,1.61,3.91,5.56,5.56,0,0,1-9.46,3.92,5.23,5.23,0,0,1-1.6-3.86,5.58,5.58,0,0,1,.73-2.81,5.29,5.29,0,0,1,2-2A5.39,5.39,0,0,1,109.22,55Zm0,1a4.45,4.45,0,0,0-3.84,2.24,4.54,4.54,0,0,0-.59,2.29A4.42,4.42,0,0,0,109.27,65a4.54,4.54,0,0,0,2.26-.59,4.34,4.34,0,0,0,1.62-1.62,4.56,4.56,0,0,0,.58-2.29,4.45,4.45,0,0,0-4.46-4.48Z" style="fill: #652076;stroke: #fff;stroke-linecap: square;stroke-linejoin: round;stroke-width: 0.009999999776482582px"/>
            <path d="M117,55.29h2.09a13.19,13.19,0,0,1,2.37.14,2.66,2.66,0,0,1,1.52.92,2.63,2.63,0,0,1,.59,1.73,2.86,2.86,0,0,1-.4,1.51,2.55,2.55,0,0,1-1.16,1,5.07,5.07,0,0,1-2.07.34l3.78,4.88h-1.3l-3.78-4.88H118v4.88h-1Zm1,1v3.57h1.81a4.63,4.63,0,0,0,1.56-.2,1.64,1.64,0,0,0,.78-.64,1.75,1.75,0,0,0,.28-1,1.71,1.71,0,0,0-.28-1,1.62,1.62,0,0,0-.75-.62,4.73,4.73,0,0,0-1.55-.18Z" style="fill: #652076;stroke: #fff;stroke-linecap: square;stroke-linejoin: round;stroke-width: 0.009999999776482582px"/>
            <path d="M125.8,55.29h6v1h-5v3.29h4.93v1h-4.93v4.12h4.93v1h-6Z" style="fill: #652076;stroke: #fff;stroke-linecap: square;stroke-linejoin: round;stroke-width: 0.009999999776482582px"/>
          </g>
          <g>
            <circle cx="101.87" cy="24.93" r="23.93" style="fill: #3ec6ec;stroke: #fff;stroke-miterlimit: 10;stroke-width: 2px;stroke-dasharray: 2;opacity: 0.25"/>
            <g>
              <g>
                <path d="M82.35,13.92h2v.34H82.7v1.1h1.64v.34H82.7v1.38h1.64v.34h-2Z" style="fill: #652076;stroke: #fff;stroke-linecap: square;stroke-linejoin: round;stroke-width: 0.009999999776482582px"/>
                <path d="M84.9,14.83h.34v.47a1.37,1.37,0,0,1,.44-.4,1.07,1.07,0,0,1,.53-.13,1,1,0,0,1,.51.14.86.86,0,0,1,.33.4,2.15,2.15,0,0,1,.11.78v1.33h-.33V16.19a3.41,3.41,0,0,0,0-.6.68.68,0,0,0-.22-.39.71.71,0,0,0-.43-.13.84.84,0,0,0-.54.2,1,1,0,0,0-.32.5,3.72,3.72,0,0,0,0,.7v1H84.9Z" style="fill: #652076;stroke: #fff;stroke-linecap: square;stroke-linejoin: round;stroke-width: 0.009999999776482582px"/>
                <path d="M88.16,13.87h.34v1H89v.29H88.5v2.3h-.34v-2.3h-.45v-.29h.45Z" style="fill: #652076;stroke: #fff;stroke-linecap: square;stroke-linejoin: round;stroke-width: 0.009999999776482582px"/>
                <path d="M89.64,13.77a.22.22,0,0,1,.19.08.25.25,0,0,1,.09.19.27.27,0,0,1-.09.2.26.26,0,0,1-.19.08.27.27,0,0,1-.19-.08.3.3,0,0,1-.08-.2.27.27,0,0,1,.08-.19A.24.24,0,0,1,89.64,13.77Zm-.16,1.06h.33v2.59h-.33Z" style="fill: #652076;stroke: #fff;stroke-linecap: square;stroke-linejoin: round;stroke-width: 0.009999999776482582px"/>
                <path d="M90.79,13.87h.33v1h.53v.29h-.53v2.3h-.33v-2.3h-.45v-.29h.45Z" style="fill: #652076;stroke: #fff;stroke-linecap: square;stroke-linejoin: round;stroke-width: 0.009999999776482582px"/>
                <path d="M91.87,14.83h.36l.89,2,.86-2h.35l-1.54,3.54h-.35l.5-1.14Z" style="fill: #652076;stroke: #fff;stroke-linecap: square;stroke-linejoin: round;stroke-width: 0.009999999776482582px"/>
                <path d="M96.17,13.92h1.75v.34h-1.4v1.1h1.4v.34h-1.4v1.72h-.35Z" style="fill: #652076;stroke: #fff;stroke-linecap: square;stroke-linejoin: round;stroke-width: 0.009999999776482582px"/>
                <path d="M98.35,14.83h.34v.38a1.12,1.12,0,0,1,.32-.33.58.58,0,0,1,.35-.11.71.71,0,0,1,.3.08l-.17.29a.35.35,0,0,0-.18-.05.49.49,0,0,0-.32.14.85.85,0,0,0-.24.42,4.27,4.27,0,0,0-.06.9v.87h-.34Z" style="fill: #652076;stroke: #fff;stroke-linecap: square;stroke-linejoin: round;stroke-width: 0.009999999776482582px"/>
                <path d="M102.52,14.83v2.59h-.33V17a1.41,1.41,0,0,1-.47.38,1.2,1.2,0,0,1-.57.13,1.26,1.26,0,0,1-.94-.4,1.38,1.38,0,0,1-.38-1,1.34,1.34,0,0,1,.39-1,1.28,1.28,0,0,1,.94-.39,1.21,1.21,0,0,1,.58.13,1.34,1.34,0,0,1,.45.41v-.48Zm-1.33.26a1,1,0,0,0-.51.13,1.09,1.09,0,0,0-.38.39,1,1,0,0,0,0,1,1,1,0,0,0,.38.39.94.94,0,0,0,.51.14,1,1,0,0,0,.52-.14.94.94,0,0,0,.37-.37,1,1,0,0,0,.13-.53,1,1,0,0,0-.29-.75A1,1,0,0,0,101.19,15.09Z" style="fill: #652076;stroke: #fff;stroke-linecap: square;stroke-linejoin: round;stroke-width: 0.009999999776482582px"/>
                <path d="M103.27,14.83h.33v.45a1.36,1.36,0,0,1,.36-.36,1,1,0,0,1,.53-.15.86.86,0,0,1,.36.07.68.68,0,0,1,.27.2.89.89,0,0,1,.19.35,1.21,1.21,0,0,1,.42-.47,1,1,0,0,1,.53-.15.86.86,0,0,1,.48.13.88.88,0,0,1,.3.38,1.93,1.93,0,0,1,.1.73v1.41h-.34V16a1.78,1.78,0,0,0-.06-.57.57.57,0,0,0-.2-.26.64.64,0,0,0-.34-.09.8.8,0,0,0-.45.14.84.84,0,0,0-.29.38,2.52,2.52,0,0,0-.09.8v1H105V16.1a2.81,2.81,0,0,0,0-.64.56.56,0,0,0-.21-.27.55.55,0,0,0-.34-.1.74.74,0,0,0-.43.14.78.78,0,0,0-.3.37,1.93,1.93,0,0,0-.1.73v1.09h-.33Z" style="fill: #652076;stroke: #fff;stroke-linecap: square;stroke-linejoin: round;stroke-width: 0.009999999776482582px"/>
                <path d="M110,16.56l.28.15a1.52,1.52,0,0,1-.32.44,1.28,1.28,0,0,1-.4.25,1.42,1.42,0,0,1-.52.09,1.23,1.23,0,0,1-1-.42,1.42,1.42,0,0,1-.35-.94,1.37,1.37,0,0,1,.3-.87,1.23,1.23,0,0,1,1-.49,1.24,1.24,0,0,1,1,.5,1.41,1.41,0,0,1,.29.88h-2.33a1.05,1.05,0,0,0,.29.74.88.88,0,0,0,.69.29,1,1,0,0,0,.38-.07.92.92,0,0,0,.32-.18A1.53,1.53,0,0,0,110,16.56Zm0-.69a1.14,1.14,0,0,0-.19-.43,1,1,0,0,0-.34-.26,1.12,1.12,0,0,0-.44-.09,1,1,0,0,0-.66.24,1.16,1.16,0,0,0-.3.54Z" style="fill: #652076;stroke: #fff;stroke-linecap: square;stroke-linejoin: round;stroke-width: 0.009999999776482582px"/>
                <path d="M110.66,14.83H111l.8,1.88.82-1.88h.06l.83,1.88.81-1.88h.35l-1.13,2.59h-.06l-.83-1.85-.82,1.85h-.06Z" style="fill: #652076;stroke: #fff;stroke-linecap: square;stroke-linejoin: round;stroke-width: 0.009999999776482582px"/>
                <path d="M116.28,14.77a1.3,1.3,0,0,1,1,.43,1.36,1.36,0,0,1,.35.93,1.34,1.34,0,0,1-.37.95,1.3,1.3,0,0,1-1,.41,1.28,1.28,0,0,1-1-.41,1.38,1.38,0,0,1,0-1.88A1.27,1.27,0,0,1,116.28,14.77Zm0,.32a1,1,0,0,0-.71.31,1,1,0,0,0-.3.74,1,1,0,0,0,.14.52.94.94,0,0,0,.36.38,1,1,0,0,0,.51.13,1,1,0,0,0,.51-.13.9.9,0,0,0,.37-.38,1,1,0,0,0,.14-.52,1,1,0,0,0-.3-.74A1,1,0,0,0,116.28,15.09Z" style="fill: #652076;stroke: #fff;stroke-linecap: square;stroke-linejoin: round;stroke-width: 0.009999999776482582px"/>
                <path d="M118.12,14.83h.34v.38a1.15,1.15,0,0,1,.33-.33.58.58,0,0,1,.35-.11.67.67,0,0,1,.29.08l-.17.29a.35.35,0,0,0-.18-.05.49.49,0,0,0-.32.14.84.84,0,0,0-.23.42,3.51,3.51,0,0,0-.07.9v.87h-.34Z" style="fill: #652076;stroke: #fff;stroke-linecap: square;stroke-linejoin: round;stroke-width: 0.009999999776482582px"/>
                <path d="M119.71,13.83h.34v2.05l1.2-1.05h.49l-1.43,1.24,1.51,1.35h-.47l-1.3-1.16v1.16h-.34Z" style="fill: #652076;stroke: #fff;stroke-linecap: square;stroke-linejoin: round;stroke-width: 0.009999999776482582px"/>
              </g>
              <g>
                <path d="M102,25.58l-1.32,1A7.22,7.22,0,0,0,98,24.43a7.67,7.67,0,0,0-3.37-.73,7.46,7.46,0,0,0-3.71,1,6.92,6.92,0,0,0-2.65,2.58,7.24,7.24,0,0,0-.94,3.65A6.86,6.86,0,0,0,89.47,36a7.33,7.33,0,0,0,5.31,2.05,7.44,7.44,0,0,0,5.88-2.76l1.32,1a8.31,8.31,0,0,1-3.12,2.47,9.85,9.85,0,0,1-4.19.87,8.67,8.67,0,0,1-6.93-2.93,8.8,8.8,0,0,1-2.13-6,8.28,8.28,0,0,1,2.58-6.19,8.86,8.86,0,0,1,6.46-2.51,9.63,9.63,0,0,1,4.24.92A8.16,8.16,0,0,1,102,25.58Z" style="fill: #652076;stroke: #652076;stroke-linecap: square;stroke-linejoin: round;stroke-width: 0.25px"/>
                <circle cx="95.06" cy="31.06" r="4.41" style="fill: #3ec6ec"/>
                <g>
                  <path d="M103.29,27.22h1.25v1.36a4.47,4.47,0,0,1,1.17-1.2A2.44,2.44,0,0,1,107,27a2.32,2.32,0,0,1,1.08.32l-.64,1a1.66,1.66,0,0,0-.65-.16,1.77,1.77,0,0,0-1.17.49,3.09,3.09,0,0,0-.87,1.52,14.53,14.53,0,0,0-.22,3.21v3.15h-1.25Z" style="fill: #652076;stroke: #fff;stroke-linecap: square;stroke-linejoin: round;stroke-width: 0.009999999776482582px"/>
                  <path d="M117.12,33.43l1,.53A5.45,5.45,0,0,1,117,35.53a4.5,4.5,0,0,1-1.49.91,5.29,5.29,0,0,1-1.88.32A4.62,4.62,0,0,1,110,35.27a5,5,0,0,1-1.31-3.37,4.93,4.93,0,0,1,1.11-3.16A4.6,4.6,0,0,1,113.54,27a4.74,4.74,0,0,1,3.88,1.81,5,5,0,0,1,1,3.17h-8.55A3.75,3.75,0,0,0,111,34.62a3.39,3.39,0,0,0,2.52,1,4.28,4.28,0,0,0,1.42-.24,4,4,0,0,0,1.16-.66A5.44,5.44,0,0,0,117.12,33.43Zm0-2.5a3.89,3.89,0,0,0-.71-1.53,3.28,3.28,0,0,0-1.24-.92,3.89,3.89,0,0,0-1.61-.35,3.51,3.51,0,0,0-2.41.88A4,4,0,0,0,110,30.93Z" style="fill: #652076;stroke: #fff;stroke-miterlimit: 10;stroke-width: 0.009999999776482582px"/>
                </g>
              </g>
            </g>
          </g>
        </g>
      </g>
      <g>
        <g style="opacity: 0.2">
          <circle cx="24.93" cy="25.93" r="23.93" style="stroke: #000;stroke-miterlimit: 10;stroke-width: 2px;stroke-dasharray: 2;opacity: 0.25"/>
          <path d="M12.51,17.65a1.89,1.89,0,0,0-.87,1.49V32.33a1.89,1.89,0,0,0,.87,1.49l11.55,6.6a1.91,1.91,0,0,0,1.74,0l11.54-6.6a1.89,1.89,0,0,0,.87-1.49V19.14a1.89,1.89,0,0,0-.87-1.49L25.8,11.05a2,2,0,0,0-1.74,0Z"/>
          <path d="M31.05,32.73a1,1,0,0,1-.27.54,7.86,7.86,0,0,1-6.34,2.85,8.49,8.49,0,0,1-6.57-2.77,9.61,9.61,0,0,1-2.45-6.74,9.85,9.85,0,0,1,2.4-6.7A8.07,8.07,0,0,1,24.19,17a8.53,8.53,0,0,1,6.59,2.58.83.83,0,0,1,.26.51,8.33,8.33,0,0,1-.9,1.83A10.35,10.35,0,0,1,29,23.73a.34.34,0,0,1-.26.1,3.41,3.41,0,0,1-.65-.52,6.67,6.67,0,0,0-1.37-1,4.59,4.59,0,0,0-2.13-.52,3.69,3.69,0,0,0-3.05,1.43,5.09,5.09,0,0,0-1.05,3.27,5.17,5.17,0,0,0,1.05,3.3,3.69,3.69,0,0,0,3.05,1.46,4.8,4.8,0,0,0,2.14-.5,6.74,6.74,0,0,0,1.35-.9,3.17,3.17,0,0,1,.64-.5.38.38,0,0,1,.26.15c.13.15.51.69,1.13,1.62A9,9,0,0,1,31.05,32.73Z"/>
          <path d="M32.05,31.73a1,1,0,0,1-.27.54,7.86,7.86,0,0,1-6.34,2.85,8.49,8.49,0,0,1-6.57-2.77,9.61,9.61,0,0,1-2.45-6.74,9.85,9.85,0,0,1,2.4-6.7A8.07,8.07,0,0,1,25.19,16a8.53,8.53,0,0,1,6.59,2.58.83.83,0,0,1,.26.51,8.33,8.33,0,0,1-.9,1.83A10.35,10.35,0,0,1,30,22.73a.34.34,0,0,1-.26.1,3.41,3.41,0,0,1-.65-.52,6.67,6.67,0,0,0-1.37-1,4.59,4.59,0,0,0-2.13-.52,3.69,3.69,0,0,0-3.05,1.43,5.09,5.09,0,0,0-1.05,3.27,5.17,5.17,0,0,0,1.05,3.3,3.69,3.69,0,0,0,3.05,1.46,4.8,4.8,0,0,0,2.14-.5,6.74,6.74,0,0,0,1.35-.9,3.17,3.17,0,0,1,.64-.5.38.38,0,0,1,.26.15c.13.15.51.69,1.13,1.62A9,9,0,0,1,32.05,31.73Z"/>
          <path d="M30,25.32h1.14l.31-1.42h.7l-.31,1.42h1.31l.31-1.42h.7l-.31,1.42h.63V26h-.76l-.23,1.12h1v.71H33.35l-.3,1.4h-.7l.3-1.4H31.32L31,29.25h-.7l.3-1.4H30v-.71h.77L31,26H30Zm1.7.7-.23,1.12h1.32L33,26Z"/>
          <path d="M31,24.32h1.14l.31-1.42h.7l-.31,1.42h1.31l.31-1.42h.7l-.31,1.42h.63V25h-.76l-.23,1.12h1v.71H34.35l-.3,1.4h-.7l.3-1.4H32.32L32,28.25h-.7l.3-1.4H31v-.71h.77L32,25H31Zm1.7.7-.23,1.12h1.32L34,25Z"/>
          <path d="M8.49,65.92a1,1,0,0,1-.17.68.85.85,0,0,1-.61.17.83.83,0,0,1-.59-.17A1,1,0,0,1,7,66a1,1,0,0,1,.16-.68.89.89,0,0,1,.61-.17.84.84,0,0,1,.6.17A1,1,0,0,1,8.49,65.92Z" style="stroke: #000;stroke-miterlimit: 10;stroke-width: 0.009999999776482582px"/>
          <path d="M17.78,66.2a.6.6,0,0,1-.05.24.5.5,0,0,1-.3.25.63.63,0,0,1-.19,0h-.41a1.06,1.06,0,0,1-.33,0,.67.67,0,0,1-.28-.14,1.41,1.41,0,0,1-.25-.28,3.45,3.45,0,0,1-.28-.46l-2.82-5.25-.44-.85q-.23-.45-.42-.87h0c0,.34,0,.69,0,1.05v6.64a.16.16,0,0,1,0,.09.15.15,0,0,1-.1.07.74.74,0,0,1-.19,0h-.59a.74.74,0,0,1-.19,0,.16.16,0,0,1-.09-.07.16.16,0,0,1,0-.09V58a.46.46,0,0,1,.16-.4.57.57,0,0,1,.35-.12h.61a1.69,1.69,0,0,1,.35,0,.57.57,0,0,1,.26.12.81.81,0,0,1,.22.23,3.27,3.27,0,0,1,.23.36l2.16,4.06.39.72.36.7c.11.23.23.45.34.67l.33.67h0c0-.37,0-.77,0-1.17V57.67a.16.16,0,0,1,0-.09.29.29,0,0,1,.1-.08l.19,0,.31,0,.28,0,.19,0a.44.44,0,0,1,.1.08.16.16,0,0,1,0,.09Z" style="stroke: #000;stroke-miterlimit: 10;stroke-width: 0.009999999776482582px"/>
          <path d="M25.37,66.2a1.48,1.48,0,0,1,0,.22.6.6,0,0,1-.05.16.36.36,0,0,1-.08.09.2.2,0,0,1-.11,0H20.69a.47.47,0,0,1-.31-.11.45.45,0,0,1-.15-.39V58a.44.44,0,0,1,.15-.38.47.47,0,0,1,.31-.11h4.38a.15.15,0,0,1,.18.12.5.5,0,0,1,.05.16,1.44,1.44,0,0,1,0,.24,1.38,1.38,0,0,1,0,.22.5.5,0,0,1-.05.16.22.22,0,0,1-.07.09.2.2,0,0,1-.11,0H21.46v2.89h3.1a.13.13,0,0,1,.1,0,.24.24,0,0,1,.08.09.44.44,0,0,1,.05.15,1.77,1.77,0,0,1,0,.24,1.48,1.48,0,0,1,0,.22.53.53,0,0,1-.05.15.2.2,0,0,1-.08.08.17.17,0,0,1-.1,0h-3.1v3.3h3.66a.2.2,0,0,1,.11,0,.36.36,0,0,1,.08.09.5.5,0,0,1,.05.16A1.63,1.63,0,0,1,25.37,66.2Z" style="stroke: #000;stroke-miterlimit: 10;stroke-width: 0.009999999776482582px"/>
          <path d="M33.16,58a1.77,1.77,0,0,1,0,.24.5.5,0,0,1,0,.16.24.24,0,0,1-.08.09.17.17,0,0,1-.1,0h-2.6v8a.19.19,0,0,1,0,.1.19.19,0,0,1-.1.06.74.74,0,0,1-.19,0h-.59a.74.74,0,0,1-.19,0,.19.19,0,0,1-.1-.06.19.19,0,0,1,0-.1v-8h-2.6a.19.19,0,0,1-.1,0,.16.16,0,0,1-.07-.09.5.5,0,0,1-.05-.16,1.45,1.45,0,0,1,0-.48.6.6,0,0,1,.05-.16.15.15,0,0,1,.07-.1.18.18,0,0,1,.1,0h6.43a.16.16,0,0,1,.1,0,.21.21,0,0,1,.08.1.6.6,0,0,1,0,.16A1.77,1.77,0,0,1,33.16,58Z" style="stroke: #000;stroke-miterlimit: 10;stroke-width: 0.009999999776482582px"/>
          <path d="M43.13,63.73a3.38,3.38,0,0,1-.25,1.32,2.81,2.81,0,0,1-.71,1,3.29,3.29,0,0,1-1.09.6,4.42,4.42,0,0,1-1.4.21,5.27,5.27,0,0,1-1.5-.21,3.73,3.73,0,0,1-.49-.18l-.25-.13a.26.26,0,0,1-.07-.1.23.23,0,0,1,0-.1.57.57,0,0,1,0-.15c0-.06,0-.14,0-.22s0-.16,0-.22a.53.53,0,0,1,0-.16.35.35,0,0,1,.07-.09.16.16,0,0,1,.09,0,.5.5,0,0,1,.22.09,2.29,2.29,0,0,0,.41.19,3.78,3.78,0,0,0,.62.2,3.87,3.87,0,0,0,.89.09,3.08,3.08,0,0,0,.88-.11,1.89,1.89,0,0,0,.69-.36,1.65,1.65,0,0,0,.45-.61,2.14,2.14,0,0,0,.17-.89,2.05,2.05,0,0,0-.14-.78,1.44,1.44,0,0,0-.43-.57,1.89,1.89,0,0,0-.73-.33,4.13,4.13,0,0,0-1.06-.12,5.32,5.32,0,0,0-.75.05,4,4,0,0,1-.58,0,.39.39,0,0,1-.29-.09.52.52,0,0,1-.09-.36V57.93a.46.46,0,0,1,.12-.35.39.39,0,0,1,.31-.11h4.09a.2.2,0,0,1,.11,0,.2.2,0,0,1,.09.09.43.43,0,0,1,.06.17,1.55,1.55,0,0,1,0,.23,1.05,1.05,0,0,1-.06.4c-.05.1-.11.15-.19.15H39v2.59a4.07,4.07,0,0,1,.49-.05h.59a4.15,4.15,0,0,1,1.33.19,2.5,2.5,0,0,1,1,.53,2.15,2.15,0,0,1,.58.84A2.94,2.94,0,0,1,43.13,63.73Z" style="stroke: #000;stroke-miterlimit: 10;stroke-width: 0.009999999776482582px"/>
        </g>
        <g>
          <g>
            <circle cx="25.93" cy="24.93" r="23.93" style="fill: #81438c;stroke: #fff;stroke-miterlimit: 10;stroke-width: 2px;stroke-dasharray: 2;opacity: 0.25"/>
            <g style="opacity: 0.8">
              <path d="M13.51,16.65a1.89,1.89,0,0,0-.87,1.49V31.33a1.89,1.89,0,0,0,.87,1.49l11.55,6.6a1.91,1.91,0,0,0,1.74,0l11.54-6.6a1.89,1.89,0,0,0,.87-1.49V18.14a1.89,1.89,0,0,0-.87-1.49L26.8,10.05a2,2,0,0,0-1.74,0Z" style="fill: #5e379b"/>
              <g>
                <g style="opacity: 0.2">
                  <path d="M32.05,31.73a1,1,0,0,1-.27.54,7.86,7.86,0,0,1-6.34,2.85,8.49,8.49,0,0,1-6.57-2.77,9.61,9.61,0,0,1-2.45-6.74,9.85,9.85,0,0,1,2.4-6.7A8.07,8.07,0,0,1,25.19,16a8.53,8.53,0,0,1,6.59,2.58.83.83,0,0,1,.26.51,8.33,8.33,0,0,1-.9,1.83A10.35,10.35,0,0,1,30,22.73a.34.34,0,0,1-.26.1,3.41,3.41,0,0,1-.65-.52,6.67,6.67,0,0,0-1.37-1,4.59,4.59,0,0,0-2.13-.52,3.69,3.69,0,0,0-3.05,1.43,5.09,5.09,0,0,0-1.05,3.27,5.17,5.17,0,0,0,1.05,3.3,3.69,3.69,0,0,0,3.05,1.46,4.8,4.8,0,0,0,2.14-.5,6.74,6.74,0,0,0,1.35-.9,3.17,3.17,0,0,1,.64-.5.38.38,0,0,1,.26.15c.13.15.51.69,1.13,1.62A9,9,0,0,1,32.05,31.73Z"/>
                </g>
                <path d="M33.05,30.73a1,1,0,0,1-.27.54,7.86,7.86,0,0,1-6.34,2.85,8.49,8.49,0,0,1-6.57-2.77,9.61,9.61,0,0,1-2.45-6.74,9.85,9.85,0,0,1,2.4-6.7A8.07,8.07,0,0,1,26.19,15a8.53,8.53,0,0,1,6.59,2.58.83.83,0,0,1,.26.51,8.33,8.33,0,0,1-.9,1.83A10.35,10.35,0,0,1,31,21.73a.34.34,0,0,1-.26.1,3.41,3.41,0,0,1-.65-.52,6.67,6.67,0,0,0-1.37-1,4.59,4.59,0,0,0-2.13-.52,3.69,3.69,0,0,0-3.05,1.43,5.09,5.09,0,0,0-1.05,3.27,5.17,5.17,0,0,0,1.05,3.3,3.69,3.69,0,0,0,3.05,1.46,4.8,4.8,0,0,0,2.14-.5,6.74,6.74,0,0,0,1.35-.9,3.17,3.17,0,0,1,.64-.5.38.38,0,0,1,.26.15c.13.15.51.69,1.13,1.62A9,9,0,0,1,33.05,30.73Z" style="fill: #fff"/>
              </g>
              <g>
                <g style="opacity: 0.2">
                  <path d="M31,24.32h1.14l.31-1.42h.7l-.31,1.42h1.31l.31-1.42h.7l-.31,1.42h.63V25h-.76l-.23,1.12h1v.71H34.35l-.3,1.4h-.7l.3-1.4H32.32L32,28.25h-.7l.3-1.4H31v-.71h.77L32,25H31Zm1.7.7-.23,1.12h1.32L34,25Z"/>
                </g>
                <path d="M32,23.32h1.14l.31-1.42h.7l-.31,1.42h1.31l.31-1.42h.7l-.31,1.42h.63V24h-.76l-.23,1.12h1v.71H35.35l-.3,1.4h-.7l.3-1.4H33.32L33,27.25h-.7l.3-1.4H32v-.71h.77L33,24H32Zm1.7.7-.23,1.12h1.32L35,24Z" style="fill: #fff"/>
              </g>
            </g>
          </g>
          <g>
            <path d="M9.49,64.92a1,1,0,0,1-.17.68.85.85,0,0,1-.61.17.83.83,0,0,1-.59-.17A1,1,0,0,1,8,65a1,1,0,0,1,.16-.68.89.89,0,0,1,.61-.17.84.84,0,0,1,.6.17A1,1,0,0,1,9.49,64.92Z" style="fill: #5e379b;stroke: #fff;stroke-miterlimit: 10;stroke-width: 0.009999999776482582px"/>
            <path d="M18.78,65.2a.6.6,0,0,1-.05.24.5.5,0,0,1-.3.25.63.63,0,0,1-.19,0h-.41a1.06,1.06,0,0,1-.33,0,.67.67,0,0,1-.28-.14,1.41,1.41,0,0,1-.25-.28,3.45,3.45,0,0,1-.28-.46l-2.82-5.25-.44-.85q-.23-.45-.42-.87h0c0,.34,0,.69,0,1.05v6.64a.16.16,0,0,1,0,.09.15.15,0,0,1-.1.07.74.74,0,0,1-.19,0h-.59a.74.74,0,0,1-.19,0,.16.16,0,0,1-.09-.07.16.16,0,0,1,0-.09V57a.46.46,0,0,1,.16-.4.57.57,0,0,1,.35-.12h.61a1.69,1.69,0,0,1,.35,0,.57.57,0,0,1,.26.12.81.81,0,0,1,.22.23,3.27,3.27,0,0,1,.23.36l2.16,4.06.39.72.36.7c.11.23.23.45.34.67l.33.67h0c0-.37,0-.77,0-1.17V56.67a.16.16,0,0,1,0-.09.29.29,0,0,1,.1-.08l.19,0,.31,0,.28,0,.19,0a.44.44,0,0,1,.1.08.16.16,0,0,1,0,.09Z" style="fill: #5e379b;stroke: #fff;stroke-miterlimit: 10;stroke-width: 0.009999999776482582px"/>
            <path d="M26.37,65.2a1.48,1.48,0,0,1,0,.22.6.6,0,0,1-.05.16.36.36,0,0,1-.08.09.2.2,0,0,1-.11,0H21.69a.47.47,0,0,1-.31-.11.45.45,0,0,1-.15-.39V57a.44.44,0,0,1,.15-.38.47.47,0,0,1,.31-.11h4.38a.15.15,0,0,1,.18.12.5.5,0,0,1,.05.16,1.44,1.44,0,0,1,0,.24,1.38,1.38,0,0,1,0,.22.5.5,0,0,1-.05.16.22.22,0,0,1-.07.09.2.2,0,0,1-.11,0H22.46v2.89h3.1a.13.13,0,0,1,.1,0,.24.24,0,0,1,.08.09.44.44,0,0,1,.05.15,1.77,1.77,0,0,1,0,.24,1.48,1.48,0,0,1,0,.22.53.53,0,0,1-.05.15.2.2,0,0,1-.08.08.17.17,0,0,1-.1,0h-3.1v3.3h3.66a.2.2,0,0,1,.11,0,.36.36,0,0,1,.08.09.5.5,0,0,1,.05.16A1.63,1.63,0,0,1,26.37,65.2Z" style="fill: #5e379b;stroke: #fff;stroke-miterlimit: 10;stroke-width: 0.009999999776482582px"/>
            <path d="M34.16,57a1.77,1.77,0,0,1,0,.24.5.5,0,0,1,0,.16.24.24,0,0,1-.08.09.17.17,0,0,1-.1,0h-2.6v8a.19.19,0,0,1,0,.1.19.19,0,0,1-.1.06.74.74,0,0,1-.19,0h-.59a.74.74,0,0,1-.19,0,.19.19,0,0,1-.1-.06.19.19,0,0,1,0-.1v-8h-2.6a.19.19,0,0,1-.1,0,.16.16,0,0,1-.07-.09.5.5,0,0,1-.05-.16,1.45,1.45,0,0,1,0-.48.6.6,0,0,1,.05-.16.15.15,0,0,1,.07-.1.18.18,0,0,1,.1,0h6.43a.16.16,0,0,1,.1,0,.21.21,0,0,1,.08.1.6.6,0,0,1,0,.16A1.77,1.77,0,0,1,34.16,57Z" style="fill: #5e379b;stroke: #fff;stroke-miterlimit: 10;stroke-width: 0.009999999776482582px"/>
            <path d="M44.13,62.73a3.38,3.38,0,0,1-.25,1.32,2.81,2.81,0,0,1-.71,1,3.29,3.29,0,0,1-1.09.6,4.42,4.42,0,0,1-1.4.21,5.27,5.27,0,0,1-1.5-.21,3.73,3.73,0,0,1-.49-.18l-.25-.13a.26.26,0,0,1-.07-.1.23.23,0,0,1,0-.1.57.57,0,0,1,0-.15c0-.06,0-.14,0-.22s0-.16,0-.22a.53.53,0,0,1,0-.16.35.35,0,0,1,.07-.09.16.16,0,0,1,.09,0,.5.5,0,0,1,.22.09,2.29,2.29,0,0,0,.41.19,3.78,3.78,0,0,0,.62.2,3.87,3.87,0,0,0,.89.09,3.08,3.08,0,0,0,.88-.11,1.89,1.89,0,0,0,.69-.36,1.65,1.65,0,0,0,.45-.61,2.14,2.14,0,0,0,.17-.89,2.05,2.05,0,0,0-.14-.78,1.44,1.44,0,0,0-.43-.57,1.89,1.89,0,0,0-.73-.33,4.13,4.13,0,0,0-1.06-.12,5.32,5.32,0,0,0-.75.05,4,4,0,0,1-.58,0,.39.39,0,0,1-.29-.09.52.52,0,0,1-.09-.36V56.93a.46.46,0,0,1,.12-.35.39.39,0,0,1,.31-.11h4.09a.2.2,0,0,1,.11,0,.2.2,0,0,1,.09.09.43.43,0,0,1,.06.17,1.55,1.55,0,0,1,0,.23,1.05,1.05,0,0,1-.06.4c-.05.1-.11.15-.19.15H40v2.59a4.07,4.07,0,0,1,.49-.05h.59a4.15,4.15,0,0,1,1.33.19,2.5,2.5,0,0,1,1,.53,2.15,2.15,0,0,1,.58.84A2.94,2.94,0,0,1,44.13,62.73Z" style="fill: #5e379b;stroke: #fff;stroke-miterlimit: 10;stroke-width: 0.009999999776482582px"/>
          </g>
        </g>
      </g>
      <g>
        <g style="opacity: 0.2">
          <circle cx="286.36" cy="25.93" r="23.93" style="stroke: #000;stroke-miterlimit: 10;stroke-width: 2px;stroke-dasharray: 2;opacity: 0.25"/>
          <path d="M289.84,12.87l-3.48,6-3.49-6h-11.6L286.36,39l15.08-26.12Z"/>
          <path d="M289.84,12.87l-3.48,6-3.49-6h-5.56l9.05,15.67,9.05-15.67Z"/>
          <path d="M266.16,56.29h1.15l3.48,8.11,3.53-8.11h1.15l-4.57,10.5h-.23Z" style="stroke: #000;stroke-miterlimit: 10;stroke-width: 0.009999999776482582px"/>
          <path d="M276.94,59h1v3.63a7.47,7.47,0,0,0,.14,1.82,2,2,0,0,0,.82,1.13,2.67,2.67,0,0,0,2.86,0,2.07,2.07,0,0,0,.8-1.06,7.44,7.44,0,0,0,.15-1.9V59h1v3.81a6,6,0,0,1-.37,2.42,2.87,2.87,0,0,1-1.13,1.28,4.11,4.11,0,0,1-3.78,0,2.86,2.86,0,0,1-1.14-1.29,6.27,6.27,0,0,1-.37-2.48Z" style="stroke: #000;stroke-miterlimit: 10;stroke-width: 0.009999999776482582px"/>
          <path d="M292.49,64.21l.84.44a4.53,4.53,0,0,1-.95,1.32,4,4,0,0,1-1.23.76,4.3,4.3,0,0,1-1.53.26,3.7,3.7,0,0,1-3-1.25,4.24,4.24,0,0,1-.17-5.45,3.71,3.71,0,0,1,3.08-1.47,3.82,3.82,0,0,1,3.17,1.51,4.15,4.15,0,0,1,.86,2.65h-7a3.15,3.15,0,0,0,.87,2.22,2.73,2.73,0,0,0,2.06.87,3.3,3.3,0,0,0,1.16-.21,3,3,0,0,0,.95-.55A4.37,4.37,0,0,0,292.49,64.21Zm0-2.09a3.38,3.38,0,0,0-.58-1.28,2.83,2.83,0,0,0-1-.77,3.18,3.18,0,0,0-1.33-.29,2.84,2.84,0,0,0-2,.73,3.42,3.42,0,0,0-.91,1.61Z" style="stroke: #000;stroke-miterlimit: 10;stroke-width: 0.009999999776482582px"/>
          <path d="M296.55,65.22a.83.83,0,0,1,.62.25.85.85,0,0,1,.26.63.89.89,0,0,1-.88.89.85.85,0,0,1-.62-.26.87.87,0,0,1-.25-.63.88.88,0,0,1,.25-.63A.84.84,0,0,1,296.55,65.22Z" style="stroke: #000;stroke-miterlimit: 10;stroke-width: 0.009999999776482582px"/>
          <path d="M299.38,59h1V68a2.25,2.25,0,0,1-.35,1.42,1.17,1.17,0,0,1-1,.45,3.24,3.24,0,0,1-1.14-.24v-.9a1.71,1.71,0,0,0,.72.2.66.66,0,0,0,.61-.33,2.12,2.12,0,0,0,.12-.89Zm.49-3.2a.74.74,0,0,1,.58.25.82.82,0,0,1,0,1.16.77.77,0,0,1-.58.24.82.82,0,0,1-.58-1.4A.76.76,0,0,1,299.87,55.82Z" style="stroke: #000;stroke-miterlimit: 10;stroke-width: 0.009999999776482582px"/>
          <path d="M306.38,59.87l-.65.66a2.31,2.31,0,0,0-1.56-.77,1.16,1.16,0,0,0-.84.32,1,1,0,0,0-.35.75,1.12,1.12,0,0,0,.29.72,4.18,4.18,0,0,0,1.2.82A4.49,4.49,0,0,1,306,63.48a2,2,0,0,1,.39,1.22,2.17,2.17,0,0,1-.67,1.62A2.28,2.28,0,0,1,304,67a3,3,0,0,1-1.28-.29,2.91,2.91,0,0,1-1-.81l.63-.72A2.18,2.18,0,0,0,304,66a1.44,1.44,0,0,0,1-.39,1.18,1.18,0,0,0,.42-.9,1.16,1.16,0,0,0-.28-.77,4.42,4.42,0,0,0-1.26-.83,4,4,0,0,1-1.43-1.07,2,2,0,0,1-.38-1.2,2,2,0,0,1,.61-1.47,2.1,2.1,0,0,1,1.53-.59A3.18,3.18,0,0,1,306.38,59.87Z" style="stroke: #000;stroke-miterlimit: 10;stroke-width: 0.009999999776482582px"/>
        </g>
        <g>
          <g>
            <circle cx="287.36" cy="24.93" r="23.93" style="fill: #41b883;stroke: #fff;stroke-miterlimit: 10;stroke-width: 2px;stroke-dasharray: 2;opacity: 0.25"/>
            <g>
              <path d="M290.84,11.87l-3.48,6-3.49-6h-11.6L287.36,38l15.08-26.12Z" style="fill: #41b883"/>
              <path d="M290.84,11.87l-3.48,6-3.49-6h-5.56l9.05,15.67,9.05-15.67Z" style="fill: #34495e"/>
            </g>
          </g>
          <g>
            <path d="M267.16,55.29h1.15l3.48,8.11,3.53-8.11h1.15l-4.57,10.5h-.23Z" style="fill: #293a4d;stroke: #fff;stroke-miterlimit: 10;stroke-width: 0.009999999776482582px"/>
            <path d="M277.94,58h1v3.63a7.47,7.47,0,0,0,.14,1.82,2,2,0,0,0,.82,1.13,2.67,2.67,0,0,0,2.86,0,2.07,2.07,0,0,0,.8-1.06,7.44,7.44,0,0,0,.15-1.9V58h1v3.81a6,6,0,0,1-.37,2.42,2.87,2.87,0,0,1-1.13,1.28,4.11,4.11,0,0,1-3.78,0,2.86,2.86,0,0,1-1.14-1.29,6.27,6.27,0,0,1-.37-2.48Z" style="fill: #293a4d;stroke: #fff;stroke-miterlimit: 10;stroke-width: 0.009999999776482582px"/>
            <path d="M293.49,63.21l.84.44a4.53,4.53,0,0,1-.95,1.32,4,4,0,0,1-1.23.76,4.3,4.3,0,0,1-1.53.26,3.7,3.7,0,0,1-3-1.25,4.24,4.24,0,0,1-.17-5.45,3.71,3.71,0,0,1,3.08-1.47,3.82,3.82,0,0,1,3.17,1.51,4.15,4.15,0,0,1,.86,2.65h-7a3.15,3.15,0,0,0,.87,2.22,2.73,2.73,0,0,0,2.06.87,3.3,3.3,0,0,0,1.16-.21,3,3,0,0,0,.95-.55A4.37,4.37,0,0,0,293.49,63.21Zm0-2.09a3.38,3.38,0,0,0-.58-1.28,2.83,2.83,0,0,0-1-.77,3.18,3.18,0,0,0-1.33-.29,2.84,2.84,0,0,0-2,.73,3.42,3.42,0,0,0-.91,1.61Z" style="fill: #293a4d;stroke: #fff;stroke-miterlimit: 10;stroke-width: 0.009999999776482582px"/>
            <path d="M297.55,64.22a.83.83,0,0,1,.62.25.85.85,0,0,1,.26.63.89.89,0,0,1-.88.89.85.85,0,0,1-.62-.26.87.87,0,0,1-.25-.63.88.88,0,0,1,.25-.63A.84.84,0,0,1,297.55,64.22Z" style="fill: #293a4d;stroke: #fff;stroke-miterlimit: 10;stroke-width: 0.009999999776482582px"/>
            <path d="M300.38,58h1V67a2.25,2.25,0,0,1-.35,1.42,1.17,1.17,0,0,1-1,.45,3.24,3.24,0,0,1-1.14-.24v-.9a1.71,1.71,0,0,0,.72.2.66.66,0,0,0,.61-.33,2.12,2.12,0,0,0,.12-.89Zm.49-3.2a.74.74,0,0,1,.58.25.82.82,0,0,1,0,1.16.77.77,0,0,1-.58.24.82.82,0,0,1-.58-1.4A.76.76,0,0,1,300.87,54.82Z" style="fill: #293a4d;stroke: #fff;stroke-miterlimit: 10;stroke-width: 0.009999999776482582px"/>
            <path d="M307.38,58.87l-.65.66a2.31,2.31,0,0,0-1.56-.77,1.16,1.16,0,0,0-.84.32,1,1,0,0,0-.35.75,1.12,1.12,0,0,0,.29.72,4.18,4.18,0,0,0,1.2.82A4.49,4.49,0,0,1,307,62.48a2,2,0,0,1,.39,1.22,2.17,2.17,0,0,1-.67,1.62A2.28,2.28,0,0,1,305,66a3,3,0,0,1-1.28-.29,2.91,2.91,0,0,1-1-.81l.63-.72A2.18,2.18,0,0,0,305,65a1.44,1.44,0,0,0,1-.39,1.18,1.18,0,0,0,.42-.9,1.16,1.16,0,0,0-.28-.77,4.42,4.42,0,0,0-1.26-.83,4,4,0,0,1-1.43-1.07,2,2,0,0,1-.38-1.2,2,2,0,0,1,.61-1.47,2.1,2.1,0,0,1,1.53-.59A3.18,3.18,0,0,1,307.38,58.87Z" style="fill: #293a4d;stroke: #fff;stroke-miterlimit: 10;stroke-width: 0.009999999776482582px"/>
          </g>
        </g>
      </g>
      <g>
        <g style="opacity: 0.2">
          <circle cx="361.67" cy="25.93" r="23.93" style="stroke: #000;stroke-miterlimit: 10;stroke-width: 2px;stroke-dasharray: 2;opacity: 0.25"/>
          <rect x="348.16" y="12.42" width="27.01" height="27.01" rx="2.74"/>
          <path d="M354.16,26h8.62v2.34h-2.84V38.48h-3V28.34h-2.77Z"/>
          <path d="M373,27.7l-2.2,1.55A3.25,3.25,0,0,0,368.45,28a1.65,1.65,0,0,0-1,.25.69.69,0,0,0-.37.56.9.9,0,0,0,.26.6,19.28,19.28,0,0,0,2.18,1.6c1.13.76,1.82,1.24,2.06,1.44a5.15,5.15,0,0,1,1.28,1.39,2.94,2.94,0,0,1,.38,1.46A3.05,3.05,0,0,1,372,37.79a5.58,5.58,0,0,1-3.46,1,6.06,6.06,0,0,1-2.9-.66,5.6,5.6,0,0,1-2.12-2L366,34.88a3.17,3.17,0,0,0,2.59,1.66,2.21,2.21,0,0,0,1.29-.36,1,1,0,0,0,.52-.82,1.27,1.27,0,0,0-.39-.85,11.15,11.15,0,0,0-1.73-1.3,16.22,16.22,0,0,1-3.3-2.57,2.86,2.86,0,0,1-.74-1.8,2.73,2.73,0,0,1,1.24-2.23,5,5,0,0,1,3.05-.92,5.74,5.74,0,0,1,2.22.43A7.75,7.75,0,0,1,373,27.7Z"/>
          <path d="M355.16,25h8.62v2.34h-2.84V37.48h-3V27.34h-2.77Z"/>
          <path d="M374,26.7l-2.2,1.55A3.25,3.25,0,0,0,369.45,27a1.65,1.65,0,0,0-1,.25.69.69,0,0,0-.37.56.9.9,0,0,0,.26.6,19.28,19.28,0,0,0,2.18,1.6c1.13.76,1.82,1.24,2.06,1.44a5.15,5.15,0,0,1,1.28,1.39,2.94,2.94,0,0,1,.38,1.46A3.05,3.05,0,0,1,373,36.79a5.58,5.58,0,0,1-3.46,1,6.06,6.06,0,0,1-2.9-.66,5.6,5.6,0,0,1-2.12-2L367,33.88a3.17,3.17,0,0,0,2.59,1.66,2.21,2.21,0,0,0,1.29-.36,1,1,0,0,0,.52-.82,1.27,1.27,0,0,0-.39-.85,11.15,11.15,0,0,0-1.73-1.3,16.22,16.22,0,0,1-3.3-2.57,2.86,2.86,0,0,1-.74-1.8,2.73,2.73,0,0,1,1.24-2.23,5,5,0,0,1,3.05-.92,5.74,5.74,0,0,1,2.22.43A7.75,7.75,0,0,1,374,26.7Z"/>
          <path d="M326.45,57.31v-1h5.75v1h-2.34v9.48h-1.07V57.31Z" style="stroke: #000;stroke-miterlimit: 10;stroke-width: 0.009999999776482582px"/>
          <path d="M332.72,59h1l2.67,6L339,59h1.07l-4.64,10.61h-1l1.49-3.43Z" style="stroke: #000;stroke-miterlimit: 10;stroke-width: 0.009999999776482582px"/>
          <path d="M341.4,59h1v1.43a4.1,4.1,0,0,1,1.36-1.22,3.67,3.67,0,0,1,1.72-.41A3.83,3.83,0,0,1,348.31,60a3.93,3.93,0,0,1,1.18,2.87,4,4,0,0,1-1.17,2.91,3.76,3.76,0,0,1-2.81,1.2,3.7,3.7,0,0,1-1.7-.39,4.34,4.34,0,0,1-1.41-1.15v4.18h-1Zm4,.76a3,3,0,0,0-2.18.91,3.08,3.08,0,0,0-.89,2.25,3.13,3.13,0,0,0,.4,1.59,2.83,2.83,0,0,0,1.13,1.12,3.09,3.09,0,0,0,1.55.42,2.93,2.93,0,0,0,1.52-.42,3.1,3.1,0,0,0,1.13-1.17,3.16,3.16,0,0,0,.42-1.57,3.1,3.1,0,0,0-.42-1.56,3,3,0,0,0-2.66-1.57Z" style="stroke: #000;stroke-miterlimit: 10;stroke-width: 0.009999999776482582px"/>
          <path d="M357.9,64.21l.84.44a4.5,4.5,0,0,1-1,1.32,4,4,0,0,1-1.22.76A4.3,4.3,0,0,1,355,67a3.74,3.74,0,0,1-3-1.25A4.23,4.23,0,0,1,351,62.92a4.12,4.12,0,0,1,.91-2.63A3.71,3.71,0,0,1,355,58.82a3.82,3.82,0,0,1,3.17,1.51A4.21,4.21,0,0,1,359,63h-7a3.17,3.17,0,0,0,.87,2.22,2.73,2.73,0,0,0,2.06.87,3.21,3.21,0,0,0,1.15-.21,3,3,0,0,0,1-.55A4.83,4.83,0,0,0,357.9,64.21Zm0-2.09a3.38,3.38,0,0,0-.58-1.28,2.76,2.76,0,0,0-1-.77,3,3,0,0,0-1.32-.29,2.84,2.84,0,0,0-2,.73,3.29,3.29,0,0,0-.91,1.61Z" style="stroke: #000;stroke-miterlimit: 10;stroke-width: 0.009999999776482582px"/>
          <path d="M364.77,59.87l-.65.66a2.27,2.27,0,0,0-1.56-.77,1.16,1.16,0,0,0-.84.32,1,1,0,0,0-.34.75,1.11,1.11,0,0,0,.28.72,4.18,4.18,0,0,0,1.2.82,4.36,4.36,0,0,1,1.52,1.11,2,2,0,0,1,.39,1.22,2.17,2.17,0,0,1-.67,1.62,2.32,2.32,0,0,1-1.68.67,2.86,2.86,0,0,1-1.28-.3,2.67,2.67,0,0,1-1-.8l.62-.72a2.19,2.19,0,0,0,1.63.87,1.44,1.44,0,0,0,1-.39,1.2,1.2,0,0,0,.42-.91,1.18,1.18,0,0,0-.27-.76,4.75,4.75,0,0,0-1.26-.83,3.93,3.93,0,0,1-1.43-1.07,2.09,2.09,0,0,1,.22-2.67,2.1,2.1,0,0,1,1.53-.59A3.18,3.18,0,0,1,364.77,59.87Z" style="stroke: #000;stroke-miterlimit: 10;stroke-width: 0.009999999776482582px"/>
          <path d="M374.07,60.63l-.79.5a3.32,3.32,0,0,0-2.8-1.37,3.25,3.25,0,0,0-2.36.92,3,3,0,0,0-.93,2.21,3.12,3.12,0,0,0,.43,1.6,2.93,2.93,0,0,0,1.18,1.16,3.55,3.55,0,0,0,4.48-1l.79.52a3.69,3.69,0,0,1-1.49,1.3,4.78,4.78,0,0,1-2.14.47,4.23,4.23,0,0,1-3.06-1.17A3.86,3.86,0,0,1,366.17,63a4.09,4.09,0,0,1,.57-2.1,4,4,0,0,1,1.56-1.51,4.56,4.56,0,0,1,2.22-.54,4.7,4.7,0,0,1,1.49.24,3.92,3.92,0,0,1,1.21.61A3.16,3.16,0,0,1,374.07,60.63Z" style="stroke: #000;stroke-miterlimit: 10;stroke-width: 0.009999999776482582px"/>
          <path d="M375.62,59h1v1.14a3.47,3.47,0,0,1,1-1,1.92,1.92,0,0,1,1.06-.33,1.87,1.87,0,0,1,.88.26l-.52.85a1.39,1.39,0,0,0-.53-.14,1.46,1.46,0,0,0-1,.41,2.56,2.56,0,0,0-.71,1.28,12.51,12.51,0,0,0-.18,2.68v2.63h-1Z" style="stroke: #000;stroke-miterlimit: 10;stroke-width: 0.009999999776482582px"/>
          <path d="M380.74,55.82a.78.78,0,0,1,.58.24.82.82,0,0,1,.24.59.8.8,0,0,1-.24.58.78.78,0,0,1-.58.24.82.82,0,0,1-.82-.82.82.82,0,0,1,.24-.59A.8.8,0,0,1,380.74,55.82Zm-.5,3.2h1v7.77h-1Z" style="stroke: #000;stroke-miterlimit: 10;stroke-width: 0.009999999776482582px"/>
          <path d="M383.33,59h1v1.43a4.1,4.1,0,0,1,1.36-1.22,3.67,3.67,0,0,1,1.72-.41A3.83,3.83,0,0,1,390.24,60a3.93,3.93,0,0,1,1.18,2.87,4,4,0,0,1-1.16,2.91,3.8,3.8,0,0,1-2.82,1.2,3.73,3.73,0,0,1-1.7-.39,4.34,4.34,0,0,1-1.41-1.15v4.18h-1Zm4,.76a3,3,0,0,0-2.18.91,3.08,3.08,0,0,0-.89,2.25,3.13,3.13,0,0,0,.4,1.59,2.83,2.83,0,0,0,1.13,1.12,3.09,3.09,0,0,0,1.55.42,2.93,2.93,0,0,0,1.52-.42A3.1,3.1,0,0,0,390,64.48a3.16,3.16,0,0,0,.42-1.57,3.1,3.1,0,0,0-.42-1.56,3,3,0,0,0-2.66-1.57Z" style="stroke: #000;stroke-miterlimit: 10;stroke-width: 0.009999999776482582px"/>
          <path d="M394.16,56.14h1V59h1.59v.86h-1.59v6.91h-1V59.88H392.8V59h1.36Z" style="stroke: #000;stroke-miterlimit: 10;stroke-width: 0.009999999776482582px"/>
        </g>
        <g>
          <g>
            <circle cx="362.67" cy="24.93" r="23.93" style="fill: #2f74c0;stroke: #fff;stroke-miterlimit: 10;stroke-width: 2px;stroke-dasharray: 2;opacity: 0.25"/>
            <g>
              <rect x="349.16" y="11.42" width="27.01" height="27.01" rx="2.74" style="fill: #2f74c0"/>
              <g>
                <g style="opacity: 0.2">
                  <path d="M355.16,25h8.62v2.34h-2.84V37.48h-3V27.34h-2.77Z"/>
                  <path d="M374,26.7l-2.2,1.55A3.25,3.25,0,0,0,369.45,27a1.65,1.65,0,0,0-1,.25.69.69,0,0,0-.37.56.9.9,0,0,0,.26.6,19.28,19.28,0,0,0,2.18,1.6c1.13.76,1.82,1.24,2.06,1.44a5.15,5.15,0,0,1,1.28,1.39,2.94,2.94,0,0,1,.38,1.46A3.05,3.05,0,0,1,373,36.79a5.58,5.58,0,0,1-3.46,1,6.06,6.06,0,0,1-2.9-.66,5.6,5.6,0,0,1-2.12-2L367,33.88a3.17,3.17,0,0,0,2.59,1.66,2.21,2.21,0,0,0,1.29-.36,1,1,0,0,0,.52-.82,1.27,1.27,0,0,0-.39-.85,11.15,11.15,0,0,0-1.73-1.3,16.22,16.22,0,0,1-3.3-2.57,2.86,2.86,0,0,1-.74-1.8,2.73,2.73,0,0,1,1.24-2.23,5,5,0,0,1,3.05-.92,5.74,5.74,0,0,1,2.22.43A7.75,7.75,0,0,1,374,26.7Z"/>
                </g>
                <g>
                  <path d="M356.16,24h8.62v2.34h-2.84V36.48h-3V26.34h-2.77Z" style="fill: #fff"/>
                  <path d="M375,25.7l-2.2,1.55A3.25,3.25,0,0,0,370.45,26a1.65,1.65,0,0,0-1,.25.69.69,0,0,0-.37.56.9.9,0,0,0,.26.6,19.28,19.28,0,0,0,2.18,1.6c1.13.76,1.82,1.24,2.06,1.44a5.15,5.15,0,0,1,1.28,1.39,2.94,2.94,0,0,1,.38,1.46A3.05,3.05,0,0,1,374,35.79a5.58,5.58,0,0,1-3.46,1,6.06,6.06,0,0,1-2.9-.66,5.6,5.6,0,0,1-2.12-2L368,32.88a3.17,3.17,0,0,0,2.59,1.66,2.21,2.21,0,0,0,1.29-.36,1,1,0,0,0,.52-.82,1.27,1.27,0,0,0-.39-.85,11.15,11.15,0,0,0-1.73-1.3,16.22,16.22,0,0,1-3.3-2.57,2.86,2.86,0,0,1-.74-1.8,2.73,2.73,0,0,1,1.24-2.23,5,5,0,0,1,3.05-.92,5.74,5.74,0,0,1,2.22.43A7.75,7.75,0,0,1,375,25.7Z" style="fill: #fff"/>
                </g>
              </g>
            </g>
          </g>
          <g>
            <path d="M327.45,56.31v-1h5.75v1h-2.34v9.48h-1.07V56.31Z" style="fill: #2f74c0;stroke: #fff;stroke-miterlimit: 10;stroke-width: 0.009999999776482582px"/>
            <path d="M333.72,58h1l2.67,6L340,58h1.07l-4.64,10.61h-1l1.49-3.43Z" style="fill: #2f74c0;stroke: #fff;stroke-miterlimit: 10;stroke-width: 0.009999999776482582px"/>
            <path d="M342.4,58h1v1.43a4.1,4.1,0,0,1,1.36-1.22,3.67,3.67,0,0,1,1.72-.41A3.83,3.83,0,0,1,349.31,59a3.93,3.93,0,0,1,1.18,2.87,4,4,0,0,1-1.17,2.91,3.76,3.76,0,0,1-2.81,1.2,3.7,3.7,0,0,1-1.7-.39,4.34,4.34,0,0,1-1.41-1.15v4.18h-1Zm4,.76a3,3,0,0,0-2.18.91,3.08,3.08,0,0,0-.89,2.25,3.13,3.13,0,0,0,.4,1.59,2.83,2.83,0,0,0,1.13,1.12,3.09,3.09,0,0,0,1.55.42,2.93,2.93,0,0,0,1.52-.42,3.1,3.1,0,0,0,1.13-1.17,3.16,3.16,0,0,0,.42-1.57,3.1,3.1,0,0,0-.42-1.56,3,3,0,0,0-2.66-1.57Z" style="fill: #2f74c0;stroke: #fff;stroke-miterlimit: 10;stroke-width: 0.009999999776482582px"/>
            <path d="M358.9,63.21l.84.44a4.5,4.5,0,0,1-1,1.32,4,4,0,0,1-1.22.76A4.3,4.3,0,0,1,356,66a3.74,3.74,0,0,1-3-1.25A4.23,4.23,0,0,1,352,61.92a4.12,4.12,0,0,1,.91-2.63A3.71,3.71,0,0,1,356,57.82a3.82,3.82,0,0,1,3.17,1.51A4.21,4.21,0,0,1,360,62h-7a3.17,3.17,0,0,0,.87,2.22,2.73,2.73,0,0,0,2.06.87,3.21,3.21,0,0,0,1.15-.21,3,3,0,0,0,1-.55A4.83,4.83,0,0,0,358.9,63.21Zm0-2.09a3.38,3.38,0,0,0-.58-1.28,2.76,2.76,0,0,0-1-.77,3,3,0,0,0-1.32-.29,2.84,2.84,0,0,0-2,.73,3.29,3.29,0,0,0-.91,1.61Z" style="fill: #2f74c0;stroke: #fff;stroke-miterlimit: 10;stroke-width: 0.009999999776482582px"/>
            <path d="M365.77,58.87l-.65.66a2.27,2.27,0,0,0-1.56-.77,1.16,1.16,0,0,0-.84.32,1,1,0,0,0-.34.75,1.11,1.11,0,0,0,.28.72,4.18,4.18,0,0,0,1.2.82,4.36,4.36,0,0,1,1.52,1.11,2,2,0,0,1,.39,1.22,2.17,2.17,0,0,1-.67,1.62,2.32,2.32,0,0,1-1.68.67,2.86,2.86,0,0,1-1.28-.3,2.67,2.67,0,0,1-1-.8l.62-.72a2.19,2.19,0,0,0,1.63.87,1.44,1.44,0,0,0,1-.39,1.2,1.2,0,0,0,.42-.91,1.18,1.18,0,0,0-.27-.76,4.75,4.75,0,0,0-1.26-.83,3.93,3.93,0,0,1-1.43-1.07,2.09,2.09,0,0,1,.22-2.67,2.1,2.1,0,0,1,1.53-.59A3.18,3.18,0,0,1,365.77,58.87Z" style="fill: #2f74c0;stroke: #fff;stroke-miterlimit: 10;stroke-width: 0.009999999776482582px"/>
            <path d="M375.07,59.63l-.79.5a3.32,3.32,0,0,0-2.8-1.37,3.25,3.25,0,0,0-2.36.92,3,3,0,0,0-.93,2.21,3.12,3.12,0,0,0,.43,1.6,2.93,2.93,0,0,0,1.18,1.16,3.55,3.55,0,0,0,4.48-1l.79.52a3.69,3.69,0,0,1-1.49,1.3,4.78,4.78,0,0,1-2.14.47,4.23,4.23,0,0,1-3.06-1.17A3.86,3.86,0,0,1,367.17,62a4.09,4.09,0,0,1,.57-2.1,4,4,0,0,1,1.56-1.51,4.56,4.56,0,0,1,2.22-.54,4.7,4.7,0,0,1,1.49.24,3.92,3.92,0,0,1,1.21.61A3.16,3.16,0,0,1,375.07,59.63Z" style="fill: #2f74c0;stroke: #fff;stroke-miterlimit: 10;stroke-width: 0.009999999776482582px"/>
            <path d="M376.62,58h1v1.14a3.47,3.47,0,0,1,1-1,1.92,1.92,0,0,1,1.06-.33,1.87,1.87,0,0,1,.88.26l-.52.85a1.39,1.39,0,0,0-.53-.14,1.46,1.46,0,0,0-1,.41,2.56,2.56,0,0,0-.71,1.28,12.51,12.51,0,0,0-.18,2.68v2.63h-1Z" style="fill: #2f74c0;stroke: #fff;stroke-miterlimit: 10;stroke-width: 0.009999999776482582px"/>
            <path d="M381.74,54.82a.78.78,0,0,1,.58.24.82.82,0,0,1,.24.59.8.8,0,0,1-.24.58.78.78,0,0,1-.58.24.82.82,0,0,1-.82-.82.82.82,0,0,1,.24-.59A.8.8,0,0,1,381.74,54.82Zm-.5,3.2h1v7.77h-1Z" style="fill: #2f74c0;stroke: #fff;stroke-miterlimit: 10;stroke-width: 0.009999999776482582px"/>
            <path d="M384.33,58h1v1.43a4.1,4.1,0,0,1,1.36-1.22,3.67,3.67,0,0,1,1.72-.41A3.83,3.83,0,0,1,391.24,59a3.93,3.93,0,0,1,1.18,2.87,4,4,0,0,1-1.16,2.91,3.8,3.8,0,0,1-2.82,1.2,3.73,3.73,0,0,1-1.7-.39,4.34,4.34,0,0,1-1.41-1.15v4.18h-1Zm4,.76a3,3,0,0,0-2.18.91,3.08,3.08,0,0,0-.89,2.25,3.13,3.13,0,0,0,.4,1.59,2.83,2.83,0,0,0,1.13,1.12,3.09,3.09,0,0,0,1.55.42,2.93,2.93,0,0,0,1.52-.42A3.1,3.1,0,0,0,391,63.48a3.16,3.16,0,0,0,.42-1.57,3.1,3.1,0,0,0-.42-1.56,3,3,0,0,0-2.66-1.57Z" style="fill: #2f74c0;stroke: #fff;stroke-miterlimit: 10;stroke-width: 0.009999999776482582px"/>
            <path d="M395.16,55.14h1V58h1.59v.86h-1.59v6.91h-1V58.88H393.8V58h1.36Z" style="fill: #2f74c0;stroke: #fff;stroke-miterlimit: 10;stroke-width: 0.009999999776482582px"/>
          </g>
        </g>
      </g>
      <g>
        <g style="opacity: 0.2">
          <circle cx="63.16" cy="101.24" r="23.93" style="stroke: #000;stroke-miterlimit: 10;stroke-width: 2px;stroke-dasharray: 2;opacity: 0.25"/>
          <path d="M59.38,99.16l13-7.8,0,0c-4.58-3.4-11.71-5.59-19.66-5.59v9.1" style="fill: none;stroke: #000;stroke-linecap: round;stroke-linejoin: round;stroke-width: 2px"/>
          <path d="M66.07,105.48,52.69,96.93v17.53a38.82,38.82,0,0,0,13.49-2.32" style="fill: none;stroke: #000;stroke-linecap: round;stroke-linejoin: round;stroke-width: 2px"/>
          <path d="M67.56,96.56c-.08.17.1,11.31,0,14.31a.51.51,0,0,0,.72.44c10-4,14.07-12.32,5.65-18.69" style="fill: none;stroke: #000;stroke-linecap: round;stroke-linejoin: round;stroke-width: 2px"/>
          <path d="M49.33,137.26a6.63,6.63,0,0,1-.31,2.1,3.69,3.69,0,0,1-.9,1.48,3.64,3.64,0,0,1-1.44.88,6.18,6.18,0,0,1-2,.3h-2a.53.53,0,0,1-.31-.11.47.47,0,0,1-.15-.39v-8.24a.45.45,0,0,1,.15-.39.53.53,0,0,1,.31-.11h2.09a5.74,5.74,0,0,1,2,.31,3.7,3.7,0,0,1,1.39.89,3.86,3.86,0,0,1,.85,1.41A5.73,5.73,0,0,1,49.33,137.26Zm-1.29.05a5.13,5.13,0,0,0-.19-1.39,3,3,0,0,0-.58-1.12,2.82,2.82,0,0,0-1-.74,4,4,0,0,0-1.56-.26H43.45V141h1.27a4.59,4.59,0,0,0,1.49-.22,2.54,2.54,0,0,0,1-.68,2.94,2.94,0,0,0,.61-1.15A5.61,5.61,0,0,0,48,137.31Z" style="stroke: #000;stroke-miterlimit: 10;stroke-width: 0.5px"/>
          <path d="M55.92,141.85a.15.15,0,0,1-.05.12.48.48,0,0,1-.16.07l-.29,0-.3,0A.4.4,0,0,1,55,142a.15.15,0,0,1-.05-.12v-.65a3,3,0,0,1-.94.7,2.43,2.43,0,0,1-1.1.25A2.9,2.9,0,0,1,52,142a2,2,0,0,1-.7-.38,1.77,1.77,0,0,1-.45-.62,1.94,1.94,0,0,1-.16-.82,1.91,1.91,0,0,1,.22-.95,2,2,0,0,1,.63-.66,3.15,3.15,0,0,1,1-.4,6.87,6.87,0,0,1,1.35-.13h.88v-.5a2.14,2.14,0,0,0-.08-.65,1.1,1.1,0,0,0-.25-.48,1,1,0,0,0-.45-.28,2,2,0,0,0-.69-.1,2.68,2.68,0,0,0-.78.1,5.24,5.24,0,0,0-.61.23,4,4,0,0,0-.43.23.61.61,0,0,1-.26.1.17.17,0,0,1-.1,0,.15.15,0,0,1-.08-.08.54.54,0,0,1,0-.15,1.11,1.11,0,0,1,0-.19,1.12,1.12,0,0,1,0-.29.34.34,0,0,1,.12-.19,1.32,1.32,0,0,1,.33-.22,4.61,4.61,0,0,1,.54-.23,6,6,0,0,1,.67-.17,4.63,4.63,0,0,1,.74-.07,3.74,3.74,0,0,1,1.18.16,1.88,1.88,0,0,1,.78.46,1.76,1.76,0,0,1,.44.75,3.68,3.68,0,0,1,.13,1Zm-1.17-2.94h-1a4.16,4.16,0,0,0-.85.08,1.87,1.87,0,0,0-.59.25,1,1,0,0,0-.35.38,1.21,1.21,0,0,0-.11.52,1,1,0,0,0,.32.79,1.24,1.24,0,0,0,.89.3,1.7,1.7,0,0,0,.86-.23,3.77,3.77,0,0,0,.83-.73Z" style="stroke: #000;stroke-miterlimit: 10;stroke-width: 0.5px"/>
          <path d="M64,138.53a5.43,5.43,0,0,1-.19,1.51,3.34,3.34,0,0,1-.53,1.14,2.45,2.45,0,0,1-.88.72,2.64,2.64,0,0,1-1.19.25,3,3,0,0,1-.53-.05,2.07,2.07,0,0,1-.47-.18,2.65,2.65,0,0,1-.46-.31c-.15-.12-.31-.27-.49-.44v3.22a.36.36,0,0,1,0,.1.29.29,0,0,1-.1.07.6.6,0,0,1-.18,0h-.57l-.19,0a.35.35,0,0,1-.09-.07.18.18,0,0,1,0-.1v-9a.16.16,0,0,1,0-.1s0-.05.08-.07l.17,0h.49l.16,0a.22.22,0,0,1,.09.07.3.3,0,0,1,0,.1v.87a6.4,6.4,0,0,1,.56-.52,4.08,4.08,0,0,1,.55-.37,2.32,2.32,0,0,1,.57-.22,2.37,2.37,0,0,1,.61-.08,2.46,2.46,0,0,1,1.19.27,2.21,2.21,0,0,1,.8.75,3.13,3.13,0,0,1,.45,1.09A5.71,5.71,0,0,1,64,138.53Zm-1.22.13a5.89,5.89,0,0,0-.08-.95,2.82,2.82,0,0,0-.26-.82,1.44,1.44,0,0,0-.49-.57,1.34,1.34,0,0,0-.77-.21,1.74,1.74,0,0,0-.45.06,1.87,1.87,0,0,0-.45.22,2.66,2.66,0,0,0-.48.38,6.54,6.54,0,0,0-.54.59v2.56a5.11,5.11,0,0,0,.93.9,1.56,1.56,0,0,0,.92.32,1.26,1.26,0,0,0,.76-.22,1.51,1.51,0,0,0,.52-.57,2.71,2.71,0,0,0,.29-.8A4.41,4.41,0,0,0,62.78,138.66Z" style="stroke: #000;stroke-miterlimit: 10;stroke-width: 0.5px"/>
          <path d="M71.68,138.53A5.84,5.84,0,0,1,71.5,140a3.35,3.35,0,0,1-.54,1.14,2.51,2.51,0,0,1-.87.72,2.71,2.71,0,0,1-1.2.25,3,3,0,0,1-.53-.05,2.27,2.27,0,0,1-.47-.18,3.1,3.1,0,0,1-.46-.31c-.15-.12-.31-.27-.49-.44v3.22a.36.36,0,0,1,0,.1.29.29,0,0,1-.1.07.6.6,0,0,1-.18,0h-.57l-.19,0a.35.35,0,0,1-.09-.07.36.36,0,0,1,0-.1v-9a.16.16,0,0,1,0-.1s0-.05.08-.07l.17,0h.49l.16,0a.22.22,0,0,1,.09.07.3.3,0,0,1,0,.1v.87a5.28,5.28,0,0,1,.57-.52,3.47,3.47,0,0,1,.54-.37,2.32,2.32,0,0,1,.57-.22,2.37,2.37,0,0,1,.61-.08,2.46,2.46,0,0,1,1.19.27,2.21,2.21,0,0,1,.8.75,3.13,3.13,0,0,1,.45,1.09A5.71,5.71,0,0,1,71.68,138.53Zm-1.22.13a5.89,5.89,0,0,0-.08-.95,2.82,2.82,0,0,0-.26-.82,1.44,1.44,0,0,0-.49-.57,1.34,1.34,0,0,0-.77-.21,1.74,1.74,0,0,0-.45.06,1.87,1.87,0,0,0-.45.22,2.66,2.66,0,0,0-.48.38,6.54,6.54,0,0,0-.54.59v2.56a5.11,5.11,0,0,0,.93.9,1.56,1.56,0,0,0,.92.32,1.26,1.26,0,0,0,.76-.22,1.51,1.51,0,0,0,.52-.57,2.71,2.71,0,0,0,.29-.8A3.8,3.8,0,0,0,70.46,138.66Z" style="stroke: #000;stroke-miterlimit: 10;stroke-width: 0.5px"/>
          <path d="M78.93,138.35a.5.5,0,0,1-.14.39.47.47,0,0,1-.32.12H74.24a4.11,4.11,0,0,0,.11,1,1.79,1.79,0,0,0,.36.73,1.59,1.59,0,0,0,.65.47,2.57,2.57,0,0,0,1,.17,4,4,0,0,0,.82-.08,4.87,4.87,0,0,0,.62-.17,3.21,3.21,0,0,0,.43-.17,1,1,0,0,1,.25-.07.12.12,0,0,1,.09,0,.16.16,0,0,1,.07.07,1.06,1.06,0,0,1,0,.14c0,.06,0,.13,0,.22a.81.81,0,0,1,0,.16.5.5,0,0,1,0,.12.38.38,0,0,1,0,.1l-.07.08a1.08,1.08,0,0,1-.23.13,3.57,3.57,0,0,1-.5.17,5.14,5.14,0,0,1-.71.15,4.68,4.68,0,0,1-.86.07,3.94,3.94,0,0,1-1.39-.22,2.65,2.65,0,0,1-1-.66,2.69,2.69,0,0,1-.61-1.09,5,5,0,0,1-.21-1.53,4.85,4.85,0,0,1,.21-1.48,3.19,3.19,0,0,1,.62-1.12,2.62,2.62,0,0,1,1-.71,3.14,3.14,0,0,1,1.28-.25,3.1,3.1,0,0,1,1.29.24,2.46,2.46,0,0,1,.88.66,2.74,2.74,0,0,1,.5,1,4.1,4.1,0,0,1,.16,1.18ZM77.74,138a2.12,2.12,0,0,0-.41-1.46A1.58,1.58,0,0,0,76,136a1.71,1.71,0,0,0-.77.17,1.67,1.67,0,0,0-.55.43,1.91,1.91,0,0,0-.34.63,2.43,2.43,0,0,0-.14.76Z" style="stroke: #000;stroke-miterlimit: 10;stroke-width: 0.5px"/>
          <path d="M84.48,135.83c0,.11,0,.2,0,.27s0,.13,0,.17a.19.19,0,0,1,0,.09.12.12,0,0,1-.09,0l-.14,0L84,136.3l-.23-.07-.28,0a.87.87,0,0,0-.35.07,1.52,1.52,0,0,0-.36.23,3,3,0,0,0-.39.44c-.14.18-.29.4-.46.66v4.23a.12.12,0,0,1,0,.09.22.22,0,0,1-.09.07.4.4,0,0,1-.18,0l-.29,0L81,142a.44.44,0,0,1-.18,0s-.08,0-.09-.07a.12.12,0,0,1,0-.09v-6.43a.24.24,0,0,1,0-.09.22.22,0,0,1,.09-.07.38.38,0,0,1,.16-.05h.53a.34.34,0,0,1,.16.05.19.19,0,0,1,.08.07.13.13,0,0,1,0,.09v.94a5.54,5.54,0,0,1,.5-.63,2.81,2.81,0,0,1,.44-.38,1.26,1.26,0,0,1,.41-.19,1.45,1.45,0,0,1,.41-.06h.21l.25,0,.23.07a.35.35,0,0,1,.15.07.18.18,0,0,1,.05.07.34.34,0,0,1,0,.08.53.53,0,0,1,0,.14C84.47,135.64,84.48,135.73,84.48,135.83Z" style="stroke: #000;stroke-miterlimit: 10;stroke-width: 0.5px"/>
        </g>
        <g>
          <g>
            <circle cx="64.16" cy="100.24" r="23.93" style="fill: #001526;stroke: #fff;stroke-miterlimit: 10;stroke-width: 2px;stroke-dasharray: 2;opacity: 0.25"/>
            <g>
              <path d="M60.38,98.16l13-7.8,0,0c-4.58-3.4-11.71-5.59-19.66-5.59v9.1" style="fill: none;stroke: #f68121;stroke-linecap: round;stroke-linejoin: round;stroke-width: 2px"/>
              <path d="M67.07,104.48,53.69,95.93v17.53a38.82,38.82,0,0,0,13.49-2.32" style="fill: none;stroke: #ee0f6a;stroke-linecap: round;stroke-linejoin: round;stroke-width: 2px"/>
              <path d="M68.56,95.56c-.08.17.1,11.31,0,14.31a.51.51,0,0,0,.72.44c10-4,14.07-12.32,5.65-18.69" style="fill: none;stroke: #00abc5;stroke-linecap: round;stroke-linejoin: round;stroke-width: 2px"/>
            </g>
          </g>
          <g>
            <path d="M50.33,136.26a6.63,6.63,0,0,1-.31,2.1,3.69,3.69,0,0,1-.9,1.48,3.64,3.64,0,0,1-1.44.88,6.18,6.18,0,0,1-2,.3h-2a.53.53,0,0,1-.31-.11.47.47,0,0,1-.15-.39v-8.24a.45.45,0,0,1,.15-.39.53.53,0,0,1,.31-.11h2.09a5.74,5.74,0,0,1,2,.31,3.7,3.7,0,0,1,1.39.89,3.86,3.86,0,0,1,.85,1.41A5.73,5.73,0,0,1,50.33,136.26Zm-1.29.05a5.13,5.13,0,0,0-.19-1.39,3,3,0,0,0-.58-1.12,2.82,2.82,0,0,0-1-.74,4,4,0,0,0-1.56-.26H44.45V140h1.27a4.59,4.59,0,0,0,1.49-.22,2.54,2.54,0,0,0,1-.68,2.94,2.94,0,0,0,.61-1.15A5.61,5.61,0,0,0,49,136.31Z" style="fill: #fff;stroke: #001526;stroke-miterlimit: 10;stroke-width: 0.5px"/>
            <path d="M56.92,140.85a.15.15,0,0,1-.05.12.48.48,0,0,1-.16.07l-.29,0-.3,0A.4.4,0,0,1,56,141a.15.15,0,0,1-.05-.12v-.65a3,3,0,0,1-.94.7,2.43,2.43,0,0,1-1.1.25A2.9,2.9,0,0,1,53,141a2,2,0,0,1-.7-.38,1.77,1.77,0,0,1-.45-.62,1.94,1.94,0,0,1-.16-.82,1.91,1.91,0,0,1,.22-.95,2,2,0,0,1,.63-.66,3.15,3.15,0,0,1,1-.4,6.87,6.87,0,0,1,1.35-.13h.88v-.5a2.14,2.14,0,0,0-.08-.65,1.1,1.1,0,0,0-.25-.48,1,1,0,0,0-.45-.28,2,2,0,0,0-.69-.1,2.68,2.68,0,0,0-.78.1,5.24,5.24,0,0,0-.61.23,4,4,0,0,0-.43.23.61.61,0,0,1-.26.1.17.17,0,0,1-.1,0,.15.15,0,0,1-.08-.08.54.54,0,0,1,0-.15,1.11,1.11,0,0,1,0-.19,1.12,1.12,0,0,1,0-.29.34.34,0,0,1,.12-.19,1.32,1.32,0,0,1,.33-.22,4.61,4.61,0,0,1,.54-.23,6,6,0,0,1,.67-.17,4.63,4.63,0,0,1,.74-.07,3.74,3.74,0,0,1,1.18.16,1.88,1.88,0,0,1,.78.46,1.76,1.76,0,0,1,.44.75,3.68,3.68,0,0,1,.13,1Zm-1.17-2.94h-1a4.16,4.16,0,0,0-.85.08,1.87,1.87,0,0,0-.59.25,1,1,0,0,0-.35.38,1.21,1.21,0,0,0-.11.52,1,1,0,0,0,.32.79,1.24,1.24,0,0,0,.89.3,1.7,1.7,0,0,0,.86-.23,3.77,3.77,0,0,0,.83-.73Z" style="fill: #fff;stroke: #001526;stroke-miterlimit: 10;stroke-width: 0.5px"/>
            <path d="M65,137.53a5.43,5.43,0,0,1-.19,1.51,3.34,3.34,0,0,1-.53,1.14,2.45,2.45,0,0,1-.88.72,2.64,2.64,0,0,1-1.19.25,3,3,0,0,1-.53-.05,2.07,2.07,0,0,1-.47-.18,2.65,2.65,0,0,1-.46-.31c-.15-.12-.31-.27-.49-.44v3.22a.36.36,0,0,1,0,.1.29.29,0,0,1-.1.07.6.6,0,0,1-.18,0h-.57l-.19,0a.35.35,0,0,1-.09-.07.18.18,0,0,1,0-.1v-9a.16.16,0,0,1,0-.1s0-.05.08-.07l.17,0h.49l.16,0a.22.22,0,0,1,.09.07.3.3,0,0,1,0,.1v.87a6.4,6.4,0,0,1,.56-.52,4.08,4.08,0,0,1,.55-.37,2.32,2.32,0,0,1,.57-.22,2.37,2.37,0,0,1,.61-.08,2.46,2.46,0,0,1,1.19.27,2.21,2.21,0,0,1,.8.75,3.13,3.13,0,0,1,.45,1.09A5.71,5.71,0,0,1,65,137.53Zm-1.22.13a5.89,5.89,0,0,0-.08-.95,2.82,2.82,0,0,0-.26-.82,1.44,1.44,0,0,0-.49-.57,1.34,1.34,0,0,0-.77-.21,1.74,1.74,0,0,0-.45.06,1.87,1.87,0,0,0-.45.22,2.66,2.66,0,0,0-.48.38,6.54,6.54,0,0,0-.54.59v2.56a5.11,5.11,0,0,0,.93.9,1.56,1.56,0,0,0,.92.32,1.26,1.26,0,0,0,.76-.22,1.51,1.51,0,0,0,.52-.57,2.71,2.71,0,0,0,.29-.8A4.41,4.41,0,0,0,63.78,137.66Z" style="fill: #fff;stroke: #001526;stroke-miterlimit: 10;stroke-width: 0.5px"/>
            <path d="M72.68,137.53A5.84,5.84,0,0,1,72.5,139a3.35,3.35,0,0,1-.54,1.14,2.51,2.51,0,0,1-.87.72,2.71,2.71,0,0,1-1.2.25,3,3,0,0,1-.53-.05,2.27,2.27,0,0,1-.47-.18,3.1,3.1,0,0,1-.46-.31c-.15-.12-.31-.27-.49-.44v3.22a.36.36,0,0,1,0,.1.29.29,0,0,1-.1.07.6.6,0,0,1-.18,0h-.57l-.19,0a.35.35,0,0,1-.09-.07.36.36,0,0,1,0-.1v-9a.16.16,0,0,1,0-.1s0-.05.08-.07l.17,0h.49l.16,0a.22.22,0,0,1,.09.07.3.3,0,0,1,0,.1v.87a5.28,5.28,0,0,1,.57-.52,3.47,3.47,0,0,1,.54-.37,2.32,2.32,0,0,1,.57-.22,2.37,2.37,0,0,1,.61-.08,2.46,2.46,0,0,1,1.19.27,2.21,2.21,0,0,1,.8.75,3.13,3.13,0,0,1,.45,1.09A5.71,5.71,0,0,1,72.68,137.53Zm-1.22.13a5.89,5.89,0,0,0-.08-.95,2.82,2.82,0,0,0-.26-.82,1.44,1.44,0,0,0-.49-.57,1.34,1.34,0,0,0-.77-.21,1.74,1.74,0,0,0-.45.06,1.87,1.87,0,0,0-.45.22,2.66,2.66,0,0,0-.48.38,6.54,6.54,0,0,0-.54.59v2.56a5.11,5.11,0,0,0,.93.9,1.56,1.56,0,0,0,.92.32,1.26,1.26,0,0,0,.76-.22,1.51,1.51,0,0,0,.52-.57,2.71,2.71,0,0,0,.29-.8A3.8,3.8,0,0,0,71.46,137.66Z" style="fill: #fff;stroke: #001526;stroke-miterlimit: 10;stroke-width: 0.5px"/>
            <path d="M79.93,137.35a.5.5,0,0,1-.14.39.47.47,0,0,1-.32.12H75.24a4.11,4.11,0,0,0,.11,1,1.79,1.79,0,0,0,.36.73,1.59,1.59,0,0,0,.65.47,2.57,2.57,0,0,0,1,.17,4,4,0,0,0,.82-.08,4.87,4.87,0,0,0,.62-.17,3.21,3.21,0,0,0,.43-.17,1,1,0,0,1,.25-.07.12.12,0,0,1,.09,0,.16.16,0,0,1,.07.07,1.06,1.06,0,0,1,0,.14c0,.06,0,.13,0,.22a.81.81,0,0,1,0,.16.5.5,0,0,1,0,.12.38.38,0,0,1,0,.1l-.07.08a1.08,1.08,0,0,1-.23.13,3.57,3.57,0,0,1-.5.17,5.14,5.14,0,0,1-.71.15,4.68,4.68,0,0,1-.86.07,3.94,3.94,0,0,1-1.39-.22,2.65,2.65,0,0,1-1-.66,2.69,2.69,0,0,1-.61-1.09,5,5,0,0,1-.21-1.53,4.85,4.85,0,0,1,.21-1.48,3.19,3.19,0,0,1,.62-1.12,2.62,2.62,0,0,1,1-.71,3.14,3.14,0,0,1,1.28-.25,3.1,3.1,0,0,1,1.29.24,2.46,2.46,0,0,1,.88.66,2.74,2.74,0,0,1,.5,1,4.1,4.1,0,0,1,.16,1.18ZM78.74,137a2.12,2.12,0,0,0-.41-1.46A1.58,1.58,0,0,0,77,135a1.71,1.71,0,0,0-.77.17,1.67,1.67,0,0,0-.55.43,1.91,1.91,0,0,0-.34.63,2.43,2.43,0,0,0-.14.76Z" style="fill: #fff;stroke: #001526;stroke-miterlimit: 10;stroke-width: 0.5px"/>
            <path d="M85.48,134.83c0,.11,0,.2,0,.27s0,.13,0,.17a.19.19,0,0,1,0,.09.12.12,0,0,1-.09,0l-.14,0L85,135.3l-.23-.07-.28,0a.87.87,0,0,0-.35.07,1.52,1.52,0,0,0-.36.23,3,3,0,0,0-.39.44c-.14.18-.29.4-.46.66v4.23a.12.12,0,0,1,0,.09.22.22,0,0,1-.09.07.4.4,0,0,1-.18,0l-.29,0L82,141a.44.44,0,0,1-.18,0s-.08,0-.09-.07a.12.12,0,0,1,0-.09v-6.43a.24.24,0,0,1,0-.09.22.22,0,0,1,.09-.07.38.38,0,0,1,.16-.05h.53a.34.34,0,0,1,.16.05.19.19,0,0,1,.08.07.13.13,0,0,1,0,.09v.94a5.54,5.54,0,0,1,.5-.63,2.81,2.81,0,0,1,.44-.38,1.26,1.26,0,0,1,.41-.19,1.45,1.45,0,0,1,.41-.06h.21l.25,0,.23.07a.35.35,0,0,1,.15.07.18.18,0,0,1,.05.07.34.34,0,0,1,0,.08.53.53,0,0,1,0,.14C85.47,134.64,85.48,134.73,85.48,134.83Z" style="fill: #fff;stroke: #001526;stroke-miterlimit: 10;stroke-width: 0.5px"/>
          </g>
        </g>
      </g>
      <g>
        <g style="opacity: 0.2">
          <circle cx="324.07" cy="101.25" r="23.93" style="stroke: #000;stroke-miterlimit: 10;stroke-width: 2px;stroke-dasharray: 2;opacity: 0.25"/>
          <path id="path50" d="M337.18,109.26l-12.27,6.94v-5.41l7.64-4.21Zm.84-.76V94l-4.49,2.59v9.34Zm-26.46.76,12.27,6.94v-5.41l-7.65-4.21Zm-.84-.76V94l4.49,2.59v9.34ZM311.25,93l12.58-7.12v5.23l-8.06,4.43-.07,0Zm26.24,0-12.58-7.12v5.23L333,95.58l.07,0Z"/>
          <path id="path52" d="M323.83,109.56l-7.54-4.15V97.19l7.54,4.36Zm1.08,0,7.54-4.15V97.19l-7.54,4.36ZM316.8,96.25l7.57-4.17,7.57,4.17-7.57,4.37Z"/>
          <path d="M289.3,131.6h1.07l2.15,7.57,3-7.57h.22l3,7.57,2.18-7.57H302l-3,10.5h-.2l-3.12-7.94-3.17,7.94h-.2Z" style="stroke: #000;stroke-miterlimit: 10;stroke-width: 0.009999999776482582px"/>
          <path d="M310.3,139.52l.84.45a4.68,4.68,0,0,1-1,1.31A3.79,3.79,0,0,1,309,142a4.36,4.36,0,0,1-1.54.26,3.72,3.72,0,0,1-3-1.24,4.23,4.23,0,0,1-1.07-2.82,4.1,4.1,0,0,1,.91-2.63,3.7,3.7,0,0,1,3.08-1.47,3.84,3.84,0,0,1,3.17,1.5,4.17,4.17,0,0,1,.85,2.66h-7a3.12,3.12,0,0,0,.86,2.21,2.76,2.76,0,0,0,2.07.87,3.25,3.25,0,0,0,1.15-.21,3.08,3.08,0,0,0,1-.54A4.92,4.92,0,0,0,310.3,139.52Zm0-2.09a3.26,3.26,0,0,0-.59-1.27,2.76,2.76,0,0,0-1-.78,3.17,3.17,0,0,0-1.32-.29,2.87,2.87,0,0,0-2,.74,3.24,3.24,0,0,0-.9,1.6Z" style="stroke: #000;stroke-miterlimit: 10;stroke-width: 0.009999999776482582px"/>
          <path d="M313.32,142.1V131.34h1v4.33a4.21,4.21,0,0,1,1.41-1.15,3.94,3.94,0,0,1,4.51.81,4,4,0,0,1,1.17,2.9,3.93,3.93,0,0,1-1.18,2.88,3.83,3.83,0,0,1-2.83,1.19,3.55,3.55,0,0,1-1.72-.41,4,4,0,0,1-1.36-1.22v1.43Zm4-.76a3,3,0,0,0,2.66-1.57,3.11,3.11,0,0,0,.42-1.57,3.16,3.16,0,0,0-.42-1.57,3.1,3.1,0,0,0-1.13-1.17,2.93,2.93,0,0,0-1.52-.42,3.09,3.09,0,0,0-1.55.42,2.9,2.9,0,0,0-1.13,1.12,3.17,3.17,0,0,0-.4,1.6,3.1,3.1,0,0,0,.89,2.25A2.91,2.91,0,0,0,317.32,141.34Z" style="stroke: #000;stroke-miterlimit: 10;stroke-width: 0.009999999776482582px"/>
          <path d="M323.25,134.33h1v1.43a4,4,0,0,1,1.37-1.22,3.61,3.61,0,0,1,1.72-.4,3.82,3.82,0,0,1,2.83,1.19,3.94,3.94,0,0,1,1.17,2.87,4,4,0,0,1-1.16,2.91,3.82,3.82,0,0,1-2.82,1.19,3.89,3.89,0,0,1-1.7-.38,4.34,4.34,0,0,1-1.41-1.15v4.17h-1Zm4,.77a2.94,2.94,0,0,0-2.18.9,3.33,3.33,0,0,0-.49,3.85A2.9,2.9,0,0,0,325.7,141a3.19,3.19,0,0,0,1.56.41,2.92,2.92,0,0,0,1.51-.42,3,3,0,0,0,1.13-1.16,3.14,3.14,0,0,0,0-3.14,3,3,0,0,0-1.12-1.15A3,3,0,0,0,327.24,135.1Z" style="stroke: #000;stroke-miterlimit: 10;stroke-width: 0.009999999776482582px"/>
          <path d="M340.94,134.33v7.77h-1v-1.33a4.34,4.34,0,0,1-1.41,1.15,3.9,3.9,0,0,1-1.71.38,3.82,3.82,0,0,1-2.82-1.19,4,4,0,0,1-1.17-2.91,4,4,0,0,1,1.18-2.87,3.83,3.83,0,0,1,2.84-1.19,3.7,3.7,0,0,1,1.73.4,4,4,0,0,1,1.36,1.22v-1.43Zm-4,.77a3,3,0,0,0-2.67,1.56,3.23,3.23,0,0,0-.41,1.57,3.16,3.16,0,0,0,.42,1.57,3.06,3.06,0,0,0,2.65,1.58,3.15,3.15,0,0,0,1.55-.41,3,3,0,0,0,1.14-1.12,3.23,3.23,0,0,0,.39-1.59,3.12,3.12,0,0,0-.89-2.26A2.94,2.94,0,0,0,337,135.1Z" style="stroke: #000;stroke-miterlimit: 10;stroke-width: 0.009999999776482582px"/>
          <path d="M350.73,136l-.79.49a3.33,3.33,0,0,0-2.81-1.36,3.22,3.22,0,0,0-2.35.91,3,3,0,0,0-.94,2.22,3.18,3.18,0,0,0,1.61,2.76,3.55,3.55,0,0,0,1.69.41,3.42,3.42,0,0,0,2.8-1.36l.79.52a3.72,3.72,0,0,1-1.5,1.3,4.74,4.74,0,0,1-2.14.46,4.23,4.23,0,0,1-3-1.17,3.8,3.8,0,0,1-1.21-2.85,4,4,0,0,1,.56-2.09,4,4,0,0,1,1.56-1.51,4.56,4.56,0,0,1,2.22-.54,4.64,4.64,0,0,1,1.49.23,4.22,4.22,0,0,1,1.22.61A3.64,3.64,0,0,1,350.73,136Z" style="stroke: #000;stroke-miterlimit: 10;stroke-width: 0.009999999776482582px"/>
          <path d="M352.64,131.34h1v6.13l3.6-3.14h1.47L354.44,138,359,142.1h-1.41l-3.91-3.5v3.5h-1Z" style="stroke: #000;stroke-miterlimit: 10;stroke-width: 0.009999999776482582px"/>
        </g>
        <g>
          <g>
            <circle cx="325.07" cy="100.25" r="23.93" style="fill: #34b0d6;stroke: #fff;stroke-miterlimit: 10;stroke-width: 2px;stroke-dasharray: 2;opacity: 0.25"/>
            <g>
              <path id="path50-2" data-name="path50" d="M338.18,108.26l-12.27,6.94v-5.41l7.64-4.21Zm.84-.76V93l-4.49,2.59v9.34Zm-26.46.76,12.27,6.94v-5.41l-7.65-4.21Zm-.84-.76V93l4.49,2.59v9.34ZM312.25,92l12.58-7.12v5.23l-8.06,4.43-.07,0Zm26.24,0-12.58-7.12v5.23L334,94.58l.07,0Z" style="fill: #8ed6fb"/>
              <path id="path52-2" data-name="path52" d="M324.83,108.56l-7.54-4.15V96.19l7.54,4.36Zm1.08,0,7.54-4.15V96.19l-7.54,4.36ZM317.8,95.25l7.57-4.17,7.57,4.17-7.57,4.37Z" style="fill: #1c78c0"/>
            </g>
          </g>
          <g>
            <path d="M290.3,130.6h1.07l2.15,7.57,3-7.57h.22l3,7.57,2.18-7.57H303l-3,10.5h-.2l-3.12-7.94-3.17,7.94h-.2Z" style="fill: #34b0d6;stroke: #fff;stroke-miterlimit: 10;stroke-width: 0.009999999776482582px"/>
            <path d="M311.3,138.52l.84.45a4.68,4.68,0,0,1-1,1.31A3.79,3.79,0,0,1,310,141a4.36,4.36,0,0,1-1.54.26,3.72,3.72,0,0,1-3-1.24,4.23,4.23,0,0,1-1.07-2.82,4.1,4.1,0,0,1,.91-2.63,3.7,3.7,0,0,1,3.08-1.47,3.84,3.84,0,0,1,3.17,1.5,4.17,4.17,0,0,1,.85,2.66h-7a3.12,3.12,0,0,0,.86,2.21,2.76,2.76,0,0,0,2.07.87,3.25,3.25,0,0,0,1.15-.21,3.08,3.08,0,0,0,1-.54A4.92,4.92,0,0,0,311.3,138.52Zm0-2.09a3.26,3.26,0,0,0-.59-1.27,2.76,2.76,0,0,0-1-.78,3.17,3.17,0,0,0-1.32-.29,2.87,2.87,0,0,0-2,.74,3.24,3.24,0,0,0-.9,1.6Z" style="fill: #34b0d6;stroke: #fff;stroke-miterlimit: 10;stroke-width: 0.009999999776482582px"/>
            <path d="M314.32,141.1V130.34h1v4.33a4.21,4.21,0,0,1,1.41-1.15,3.94,3.94,0,0,1,4.51.81,4,4,0,0,1,1.17,2.9,3.93,3.93,0,0,1-1.18,2.88,3.83,3.83,0,0,1-2.83,1.19,3.55,3.55,0,0,1-1.72-.41,4,4,0,0,1-1.36-1.22v1.43Zm4-.76a3,3,0,0,0,2.66-1.57,3.11,3.11,0,0,0,.42-1.57,3.16,3.16,0,0,0-.42-1.57,3.1,3.1,0,0,0-1.13-1.17,2.93,2.93,0,0,0-1.52-.42,3.09,3.09,0,0,0-1.55.42,2.9,2.9,0,0,0-1.13,1.12,3.17,3.17,0,0,0-.4,1.6,3.1,3.1,0,0,0,.89,2.25A2.91,2.91,0,0,0,318.32,140.34Z" style="fill: #34b0d6;stroke: #fff;stroke-miterlimit: 10;stroke-width: 0.009999999776482582px"/>
            <path d="M324.25,133.33h1v1.43a4,4,0,0,1,1.37-1.22,3.61,3.61,0,0,1,1.72-.4,3.82,3.82,0,0,1,2.83,1.19,3.94,3.94,0,0,1,1.17,2.87,4,4,0,0,1-1.16,2.91,3.82,3.82,0,0,1-2.82,1.19,3.89,3.89,0,0,1-1.7-.38,4.34,4.34,0,0,1-1.41-1.15v4.17h-1Zm4,.77a2.94,2.94,0,0,0-2.18.9,3.33,3.33,0,0,0-.49,3.85A2.9,2.9,0,0,0,326.7,140a3.19,3.19,0,0,0,1.56.41,2.92,2.92,0,0,0,1.51-.42,3,3,0,0,0,1.13-1.16,3.14,3.14,0,0,0,0-3.14,3,3,0,0,0-1.12-1.15A3,3,0,0,0,328.24,134.1Z" style="fill: #34b0d6;stroke: #fff;stroke-miterlimit: 10;stroke-width: 0.009999999776482582px"/>
            <path d="M341.94,133.33v7.77h-1v-1.33a4.34,4.34,0,0,1-1.41,1.15,3.9,3.9,0,0,1-1.71.38,3.82,3.82,0,0,1-2.82-1.19,4,4,0,0,1-1.17-2.91,4,4,0,0,1,1.18-2.87,3.83,3.83,0,0,1,2.84-1.19,3.7,3.7,0,0,1,1.73.4,4,4,0,0,1,1.36,1.22v-1.43Zm-4,.77a3,3,0,0,0-2.67,1.56,3.23,3.23,0,0,0-.41,1.57,3.16,3.16,0,0,0,.42,1.57,3.06,3.06,0,0,0,2.65,1.58,3.15,3.15,0,0,0,1.55-.41,3,3,0,0,0,1.14-1.12,3.23,3.23,0,0,0,.39-1.59,3.12,3.12,0,0,0-.89-2.26A2.94,2.94,0,0,0,338,134.1Z" style="fill: #34b0d6;stroke: #fff;stroke-miterlimit: 10;stroke-width: 0.009999999776482582px"/>
            <path d="M351.73,135l-.79.49a3.33,3.33,0,0,0-2.81-1.36,3.22,3.22,0,0,0-2.35.91,3,3,0,0,0-.94,2.22,3.18,3.18,0,0,0,1.61,2.76,3.55,3.55,0,0,0,1.69.41,3.42,3.42,0,0,0,2.8-1.36l.79.52a3.72,3.72,0,0,1-1.5,1.3,4.74,4.74,0,0,1-2.14.46,4.23,4.23,0,0,1-3-1.17,3.8,3.8,0,0,1-1.21-2.85,4,4,0,0,1,.56-2.09,4,4,0,0,1,1.56-1.51,4.56,4.56,0,0,1,2.22-.54,4.64,4.64,0,0,1,1.49.23,4.22,4.22,0,0,1,1.22.61A3.64,3.64,0,0,1,351.73,135Z" style="fill: #34b0d6;stroke: #fff;stroke-miterlimit: 10;stroke-width: 0.009999999776482582px"/>
            <path d="M353.64,130.34h1v6.13l3.6-3.14h1.47L355.44,137,360,141.1h-1.41l-3.91-3.5v3.5h-1Z" style="fill: #34b0d6;stroke: #fff;stroke-miterlimit: 10;stroke-width: 0.009999999776482582px"/>
          </g>
        </g>
      </g>
    </g>
    <g id="Layer_2-2" data-name="Layer 2">
      <g>
        <g style="opacity: 0.2">
          <path d="M158.12,36.65c-5.21,2.51-8.25,5.7-8.05,9.3-.16.56,0,71-.06,71.62l57.9.7a9.8,9.8,0,0,1,10-9.61h10.78V44.55a1.82,1.82,0,0,0-.52-1.26C225.22,36.33,209,31,189.34,31c-12.68.07-24,2.21-31.22,5.66"/>
          <path d="M228.67,127.93a.51.51,0,0,1-.51.52H160a10.18,10.18,0,0,1,.16-20.36h68a.51.51,0,0,1,.51.51h0a.54.54,0,0,1-.29.48,10.26,10.26,0,0,0,0,18.38.54.54,0,0,1,.29.47Z"/>
          <path d="M170.24,128.45H160.13A10.14,10.14,0,0,1,150,118.09a10.24,10.24,0,0,1,10.27-10h10.12a10.18,10.18,0,1,0-.17,20.36Z"/>
          <rect x="164.58" y="49.9" width="52.44" height="37.82" rx="4.65"/>
          <rect x="164.49" y="49.98" width="52.44" height="37.82" rx="4.65" style="fill: none;stroke: #000;stroke-miterlimit: 10;stroke-width: 4px"/>
          <rect x="168.49" y="52.62" width="45.96" height="32.96" rx="4.16"/>
          <ellipse cx="177.69" cy="65.9" rx="1.46" ry="5.82" style="stroke: #000;stroke-miterlimit: 10;stroke-width: 2px;opacity: 0.6000000000000001"/>
          <ellipse cx="206.82" cy="65.9" rx="1.46" ry="5.82" style="stroke: #000;stroke-miterlimit: 10;stroke-width: 2px;opacity: 0.6000000000000001"/>
          <path d="M199.54,73.18c0,1.59-3.29,2.91-7.28,2.91S185,74.77,185,73.18" style="fill: none;stroke: #000;stroke-linecap: round;stroke-linejoin: round;stroke-width: 3px;opacity: 0.6000000000000001"/>
          <path d="M150.33,106.67c0,6,0,10.08,0,10.21Z" style="fill: none;stroke: #000;stroke-linecap: round;stroke-linejoin: round;stroke-width: 4px"/>
          <path d="M150.31,55.18c0,10.49,0,28.14,0,42" style="fill: none;stroke: #000;stroke-linecap: round;stroke-linejoin: bevel;stroke-width: 4px"/>
          <path d="M165.06,34.39c-9.15,2.67-15,6.84-14.68,11.77,0,.06,0,.91,0,2.38" style="fill: none;stroke: #000;stroke-linecap: round;stroke-linejoin: bevel;stroke-width: 4px"/>
          <path d="M229,107.12V44.77a1.85,1.85,0,0,0-.52-1.26c-2.93-7-19.16-12.3-38.81-12.3a91.6,91.6,0,0,0-24.59,3.18" style="fill: none;stroke: #000;stroke-linecap: round;stroke-linejoin: bevel;stroke-width: 4px"/>
          <path d="M228.88,128a.51.51,0,0,1-.51.52H160.2a10.18,10.18,0,0,1,.17-20.36h68c.71-1.23.71-1.23.51.52h0a.53.53,0,0,1-.3.47,10.27,10.27,0,0,0,0,18.38.53.53,0,0,1,.3.47Z" style="fill: none;stroke: #000;stroke-miterlimit: 10;stroke-width: 4px"/>
          <path d="M186.85,142.94h0a17.12,17.12,0,0,0-12.67,0h0a.69.69,0,0,1-1-.61V116.81H187.8v25.52A.69.69,0,0,1,186.85,142.94Z"/>
          <path d="M179.06,141.81a18.43,18.43,0,0,0-4.84,1.13h0a.71.71,0,0,1-1-.61V116.81h5.83v25Z"/>
          <path d="M186.85,142.94h0a17.12,17.12,0,0,0-12.67,0h0a.69.69,0,0,1-1-.61V116.81H187.8v25.52A.69.69,0,0,1,186.85,142.94Z" style="fill: none;stroke: #000;stroke-linejoin: round;stroke-width: 4px"/>
        </g>
        <g>
          <path d="M164.12,30.65c-5.21,2.51-8.25,5.7-8.05,9.3-.16.56,0,71-.06,71.62l57.9.7a9.8,9.8,0,0,1,10-9.61h10.78V38.55a1.82,1.82,0,0,0-.52-1.26C231.22,30.33,215,25,195.34,25c-12.68.07-24,2.21-31.22,5.66" style="fill: url(#linear-gradient)"/>
          <path d="M234.67,121.93a.51.51,0,0,1-.51.52H166a10.18,10.18,0,0,1,.16-20.36h68a.51.51,0,0,1,.51.51h0a.54.54,0,0,1-.29.48,10.26,10.26,0,0,0,0,18.38.54.54,0,0,1,.29.47Z" style="fill: #f8c087"/>
          <path d="M176.24,122.45H166.13A10.14,10.14,0,0,1,156,112.09a10.24,10.24,0,0,1,10.27-10h10.12a10.18,10.18,0,1,0-.17,20.36Z" style="fill: #ef9f67"/>
          <rect x="170.58" y="43.9" width="52.44" height="37.82" rx="4.65" style="fill: #e7e8ec"/>
          <rect x="170.49" y="43.98" width="52.44" height="37.82" rx="4.65" style="fill: none;stroke: #666;stroke-miterlimit: 10;stroke-width: 4px"/>
          <rect x="174.49" y="46.62" width="45.96" height="32.96" rx="4.16" style="fill: #fafbfc"/>
          <ellipse cx="183.69" cy="59.9" rx="1.46" ry="5.82" style="stroke: #000;stroke-miterlimit: 10;stroke-width: 2px;opacity: 0.6000000000000001"/>
          <ellipse cx="212.82" cy="59.9" rx="1.46" ry="5.82" style="stroke: #000;stroke-miterlimit: 10;stroke-width: 2px;opacity: 0.6000000000000001"/>
          <path d="M205.54,67.18c0,1.59-3.29,2.91-7.28,2.91S191,68.77,191,67.18" style="fill: none;stroke: #000;stroke-linecap: round;stroke-linejoin: round;stroke-width: 3px;opacity: 0.6000000000000001"/>
          <g>
            <path d="M156.33,100.67c0,6,0,10.08,0,10.21Z" style="fill: none;stroke: #666;stroke-linecap: round;stroke-linejoin: round;stroke-width: 4px"/>
            <path d="M156.31,49.18c0,10.49,0,28.14,0,42" style="fill: none;stroke: #666;stroke-linecap: round;stroke-linejoin: bevel;stroke-width: 4px"/>
            <path d="M171.06,28.39c-9.15,2.67-15,6.84-14.68,11.77,0,.06,0,.91,0,2.38" style="fill: none;stroke: #666;stroke-linecap: round;stroke-linejoin: bevel;stroke-width: 4px"/>
            <path d="M235,101.12V38.77a1.85,1.85,0,0,0-.52-1.26c-2.93-7-19.16-12.3-38.81-12.3a91.6,91.6,0,0,0-24.59,3.18" style="fill: none;stroke: #666;stroke-linecap: round;stroke-linejoin: bevel;stroke-width: 4px"/>
            <path d="M234.88,122a.51.51,0,0,1-.51.52H166.2a10.18,10.18,0,0,1,.17-20.36h68c.71-1.23.71-1.23.51.52h0a.53.53,0,0,1-.3.47,10.27,10.27,0,0,0,0,18.38.53.53,0,0,1,.3.47Z" style="fill: none;stroke: #666;stroke-miterlimit: 10;stroke-width: 4px"/>
          </g>
          <g>
            <path d="M192.85,136.94h0a17.12,17.12,0,0,0-12.67,0h0a.69.69,0,0,1-1-.61V110.81H193.8v25.52A.69.69,0,0,1,192.85,136.94Z" style="fill: #ff4040"/>
            <path d="M185.06,135.81a18.43,18.43,0,0,0-4.84,1.13h0a.71.71,0,0,1-1-.61V110.81h5.83v25Z" style="fill: #ed3c3c"/>
          </g>
          <path d="M192.85,136.94h0a17.12,17.12,0,0,0-12.67,0h0a.69.69,0,0,1-1-.61V110.81H193.8v25.52A.69.69,0,0,1,192.85,136.94Z" style="fill: none;stroke: #666;stroke-linejoin: round;stroke-width: 4px"/>
        </g>
      </g>
    </g>
  </g>
</svg>
