<svg xmlns="http://www.w3.org/2000/svg" xmlns:xlink="http://www.w3.org/1999/xlink" viewBox="0 0 1415.94 175.8">
  <defs>
    <linearGradient id="linear-gradient" x1="660.47" y1="56.88" x2="760.34" y2="56.88" gradientUnits="userSpaceOnUse">
      <stop offset="0.2" stop-color="#1a82b6"/>
      <stop offset="0.31" stop-color="#1f8dc4"/>
      <stop offset="0.47" stop-color="#2599d2"/>
      <stop offset="0.67" stop-color="#28a0da"/>
      <stop offset="1" stop-color="#29a2dd"/>
    </linearGradient>
  </defs>
  <g id="Layer_2" data-name="Layer 2">
    <g id="Layer_1-2" data-name="Layer 1">
      <g>
        <g style="opacity: 0.2">
          <path d="M406.64,141.44h14.54v5h-9.51v4.82h9.51v4.87h-9.51v7h9.51v5H406.64Z"/>
          <path d="M426,141.44h13.23v4.95H431v4.84h8.19v4.87H431v12h-5Z"/>
          <path d="M478.59,146.13,475,149.51a11,11,0,0,0-8.14-3.83,8.91,8.91,0,0,0-9,9,9.5,9.5,0,0,0,1.16,4.73,8.31,8.31,0,0,0,3.27,3.25,9.49,9.49,0,0,0,4.71,1.18,9.73,9.73,0,0,0,4-.83,14.57,14.57,0,0,0,4-3l3.44,3.59a19.09,19.09,0,0,1-5.58,4,15.27,15.27,0,0,1-6,1.11,14.2,14.2,0,0,1-12.33-21.12,13.3,13.3,0,0,1,5.16-5,14.52,14.52,0,0,1,7.24-1.89,15.39,15.39,0,0,1,11.61,5.36Z"/>
          <path d="M495.61,140.77a13.22,13.22,0,0,1,9.72,4.1,13.59,13.59,0,0,1,4.07,10,13.44,13.44,0,0,1-4,9.87,13.91,13.91,0,0,1-19.71-.11,14,14,0,0,1,9.93-23.84Zm-.05,5a8.34,8.34,0,0,0-6.22,2.57,8.94,8.94,0,0,0-2.52,6.54,8.49,8.49,0,0,0,3.17,7,8.7,8.7,0,0,0,5.66,2,8.25,8.25,0,0,0,6.14-2.61,8.83,8.83,0,0,0,2.54-6.43,8.93,8.93,0,0,0-2.55-6.44A8.34,8.34,0,0,0,495.56,145.74Z"/>
          <path d="M514.53,141.44h5.38a17.85,17.85,0,0,1,6.28.79,6.48,6.48,0,0,1,3,2.62,8,8,0,0,1,1.14,4.33,7.37,7.37,0,0,1-1.26,4.39,7.62,7.62,0,0,1-3.8,2.67l6.31,11.85h-5.54l-6-11.29h-.47v11.29h-5.07Zm5.07,10.42h1.59a6.1,6.1,0,0,0,3.33-.64,2.38,2.38,0,0,0,.92-2.11,2.57,2.57,0,0,0-.45-1.51,2.59,2.59,0,0,0-1.21-.93,9.2,9.2,0,0,0-2.79-.28H519.6Z"/>
          <path d="M535.73,141.44h14.54v5h-9.51v4.82h9.51v4.87h-9.51v7h9.51v5H535.73Z"/>
          <circle cx="476.87" cy="64.4" r="60.72" style="stroke: #000;stroke-miterlimit: 10;stroke-width: 4px;stroke-dasharray: 4;opacity: 0.25"/>
          <path d="M431.43,46.35h-5.19V37.69h5v1.59h-3v1.93H431v1.58h-2.83v2h3.24Z"/>
          <path d="M438.61,46.35H436.7V42.91c0-.95-.34-1.43-1-1.43a1,1,0,0,0-.82.38,1.44,1.44,0,0,0-.32,1v3.53h-1.91V40.17h1.91v1h0a2.17,2.17,0,0,1,2-1.12c1.37,0,2.06.84,2.06,2.54Z"/>
          <path d="M443.85,46.28a2.78,2.78,0,0,1-1.27.22,1.82,1.82,0,0,1-2-2.09V41.57h-1v-1.4h1V38.83l1.9-.54v1.88h1.39v1.4h-1.39v2.5c0,.65.26,1,.77,1a1.25,1.25,0,0,0,.62-.18Z"/>
          <path d="M445.89,39.19a1.13,1.13,0,0,1-.79-.29.93.93,0,0,1-.31-.7.9.9,0,0,1,.31-.7,1.31,1.31,0,0,1,1.59,0,.89.89,0,0,1,.3.7.91.91,0,0,1-.3.71A1.13,1.13,0,0,1,445.89,39.19Zm.95,7.16h-1.91V40.17h1.91Z"/>
          <path d="M452.18,46.28a2.81,2.81,0,0,1-1.27.22,1.82,1.82,0,0,1-2-2.09V41.57h-1v-1.4h1V38.83l1.9-.54v1.88h1.39v1.4h-1.39v2.5c0,.65.26,1,.77,1a1.25,1.25,0,0,0,.62-.18Z"/>
          <path d="M459.14,40.17l-2.51,6.67c-.6,1.61-1.51,2.41-2.73,2.41a3.66,3.66,0,0,1-1.14-.15V47.58a1.69,1.69,0,0,0,.83.22,1,1,0,0,0,1-.7l.33-.76-2.51-6.17h2.11l1.15,3.76a4.17,4.17,0,0,1,.17.83h0a4.6,4.6,0,0,1,.2-.82l1.16-3.77Z"/>
          <path d="M468.51,39.28h-3.05V41.4h2.81V43h-2.81v3.36h-1.95V37.69h5Z"/>
          <path d="M473.78,41.89a1.58,1.58,0,0,0-.8-.19,1.14,1.14,0,0,0-1,.46,2,2,0,0,0-.35,1.24v3h-1.91V40.17h1.91v1.14h0a1.66,1.66,0,0,1,1.63-1.25,1.19,1.19,0,0,1,.47.07Z"/>
          <path d="M479.82,46.35H478v-.89h0a2,2,0,0,1-1.84,1,1.93,1.93,0,0,1-1.42-.51,1.84,1.84,0,0,1-.52-1.36c0-1.2.71-1.89,2.13-2.08l1.68-.22c0-.68-.36-1-1.1-1a3.77,3.77,0,0,0-2.1.66V40.53a5.53,5.53,0,0,1,1.09-.36,6,6,0,0,1,1.26-.15,2.33,2.33,0,0,1,2.65,2.63ZM478,43.84v-.42l-1.12.15q-.93.12-.93.84a.7.7,0,0,0,.23.53.85.85,0,0,0,.61.21,1.17,1.17,0,0,0,.88-.37A1.37,1.37,0,0,0,478,43.84Z"/>
          <path d="M491.14,46.35h-1.9V42.82c0-.89-.33-1.34-1-1.34a.89.89,0,0,0-.76.4,1.66,1.66,0,0,0-.3,1v3.46h-1.91V42.79c0-.88-.32-1.31-1-1.31a.93.93,0,0,0-.78.38,1.68,1.68,0,0,0-.3,1v3.44h-1.9V40.17h1.9v1h0a2.2,2.2,0,0,1,.83-.8,2.25,2.25,0,0,1,1.17-.31,1.77,1.77,0,0,1,1.79,1.15A2.28,2.28,0,0,1,489.13,40c1.34,0,2,.82,2,2.48Z"/>
          <path d="M498.21,43.8h-4c.06.9.63,1.35,1.69,1.35a3.28,3.28,0,0,0,1.8-.49V46a4.7,4.7,0,0,1-2.23.46,2.87,2.87,0,0,1-3.15-3.15,3.32,3.32,0,0,1,.89-2.44,3,3,0,0,1,2.2-.89,2.68,2.68,0,0,1,2.09.8,3.09,3.09,0,0,1,.74,2.18Zm-1.77-1.17c0-.89-.36-1.33-1.07-1.33a1.05,1.05,0,0,0-.8.38,1.79,1.79,0,0,0-.41,1Z"/>
          <path d="M508.3,40.17l-1.78,6.18h-2l-.91-3.62a4,4,0,0,1-.1-.79h0a5.07,5.07,0,0,1-.12.76l-1,3.65h-2l-1.74-6.18h1.94l.85,4a5.32,5.32,0,0,1,.09.69h0a3.94,3.94,0,0,1,.11-.71l1.06-4h1.82l.95,4a4.44,4.44,0,0,1,.09.7h0a5.62,5.62,0,0,1,.1-.7l.8-4Z"/>
          <path d="M512.15,46.5a3.32,3.32,0,0,1-2.43-.87,3.58,3.58,0,0,1,0-4.75,3.44,3.44,0,0,1,2.48-.86,3.26,3.26,0,0,1,2.41.86,3.06,3.06,0,0,1,.88,2.29,3.29,3.29,0,0,1-.9,2.44A3.41,3.41,0,0,1,512.15,46.5Zm.05-5a1.27,1.27,0,0,0-1.05.46,2.05,2.05,0,0,0-.37,1.32c0,1.19.47,1.78,1.43,1.78s1.37-.61,1.37-1.83S513.12,41.48,512.2,41.48Z"/>
          <path d="M520.8,41.89a1.6,1.6,0,0,0-.8-.19,1.16,1.16,0,0,0-1,.46,2,2,0,0,0-.35,1.24v3h-1.9V40.17h1.9v1.14h0a1.65,1.65,0,0,1,1.63-1.25,1.19,1.19,0,0,1,.47.07Z"/>
          <path d="M527.88,46.35h-2.29l-2-3.07h0v3.07h-1.91V37.2h1.91V43h0l1.84-2.85h2.27l-2.22,2.9Z"/>
          <path d="M432.43,45.35h-5.19V36.69h5v1.59h-3v1.93H432v1.58h-2.83v2h3.24Z"/>
          <path d="M439.61,45.35H437.7V41.91c0-.95-.34-1.43-1-1.43a1,1,0,0,0-.82.38,1.44,1.44,0,0,0-.32,1v3.53h-1.91V39.17h1.91v1h0a2.17,2.17,0,0,1,2-1.12c1.37,0,2.06.84,2.06,2.54Z"/>
          <path d="M444.85,45.28a2.78,2.78,0,0,1-1.27.22,1.82,1.82,0,0,1-2-2.09V40.57h-1v-1.4h1V37.83l1.9-.54v1.88h1.39v1.4h-1.39v2.5c0,.65.26,1,.77,1a1.25,1.25,0,0,0,.62-.18Z"/>
          <path d="M446.89,38.19a1.13,1.13,0,0,1-.79-.29.93.93,0,0,1-.31-.7.9.9,0,0,1,.31-.7,1.31,1.31,0,0,1,1.59,0,.89.89,0,0,1,.3.7.91.91,0,0,1-.3.71A1.13,1.13,0,0,1,446.89,38.19Zm.95,7.16h-1.91V39.17h1.91Z"/>
          <path d="M453.18,45.28a2.81,2.81,0,0,1-1.27.22,1.82,1.82,0,0,1-2-2.09V40.57h-1v-1.4h1V37.83l1.9-.54v1.88h1.39v1.4h-1.39v2.5c0,.65.26,1,.77,1a1.25,1.25,0,0,0,.62-.18Z"/>
          <path d="M460.14,39.17l-2.51,6.67c-.6,1.61-1.51,2.41-2.73,2.41a3.66,3.66,0,0,1-1.14-.15V46.58a1.69,1.69,0,0,0,.83.22,1,1,0,0,0,1-.7l.33-.76-2.51-6.17h2.11l1.15,3.76a4.17,4.17,0,0,1,.17.83h0a4.6,4.6,0,0,1,.2-.82l1.16-3.77Z"/>
          <path d="M469.51,38.28h-3.05V40.4h2.81V42h-2.81v3.36h-1.95V36.69h5Z"/>
          <path d="M474.78,40.89a1.58,1.58,0,0,0-.8-.19,1.14,1.14,0,0,0-1,.46,2,2,0,0,0-.35,1.24v3h-1.91V39.17h1.91v1.14h0a1.66,1.66,0,0,1,1.63-1.25,1.19,1.19,0,0,1,.47.07Z"/>
          <path d="M480.82,45.35H479v-.89h0a2,2,0,0,1-1.84,1,1.93,1.93,0,0,1-1.42-.51,1.84,1.84,0,0,1-.52-1.36c0-1.2.71-1.89,2.13-2.08l1.68-.22c0-.68-.36-1-1.1-1a3.77,3.77,0,0,0-2.1.66V39.53a5.53,5.53,0,0,1,1.09-.36,6,6,0,0,1,1.26-.15,2.33,2.33,0,0,1,2.65,2.63ZM479,42.84v-.42l-1.12.15q-.93.12-.93.84a.7.7,0,0,0,.23.53.85.85,0,0,0,.61.21,1.17,1.17,0,0,0,.88-.37A1.37,1.37,0,0,0,479,42.84Z"/>
          <path d="M492.14,45.35h-1.9V41.82c0-.89-.33-1.34-1-1.34a.89.89,0,0,0-.76.4,1.66,1.66,0,0,0-.3,1v3.46h-1.91V41.79c0-.88-.32-1.31-1-1.31a.93.93,0,0,0-.78.38,1.68,1.68,0,0,0-.3,1v3.44h-1.9V39.17h1.9v1h0a2.2,2.2,0,0,1,.83-.8,2.25,2.25,0,0,1,1.17-.31,1.77,1.77,0,0,1,1.79,1.15A2.28,2.28,0,0,1,490.13,39c1.34,0,2,.82,2,2.48Z"/>
          <path d="M499.21,42.8h-4c.06.9.63,1.35,1.69,1.35a3.28,3.28,0,0,0,1.8-.49V45a4.7,4.7,0,0,1-2.23.46,2.87,2.87,0,0,1-3.15-3.15,3.32,3.32,0,0,1,.89-2.44,3,3,0,0,1,2.2-.89,2.68,2.68,0,0,1,2.09.8,3.09,3.09,0,0,1,.74,2.18Zm-1.77-1.17c0-.89-.36-1.33-1.07-1.33a1.05,1.05,0,0,0-.8.38,1.79,1.79,0,0,0-.41,1Z"/>
          <path d="M509.3,39.17l-1.78,6.18h-2l-.91-3.62a4,4,0,0,1-.1-.79h0a5.07,5.07,0,0,1-.12.76l-1,3.65h-2l-1.74-6.18h1.94l.85,4a5.32,5.32,0,0,1,.09.69h0a3.94,3.94,0,0,1,.11-.71l1.06-4h1.82l.95,4a4.44,4.44,0,0,1,.09.7h0a5.62,5.62,0,0,1,.1-.7l.8-4Z"/>
          <path d="M513.15,45.5a3.32,3.32,0,0,1-2.43-.87,3.58,3.58,0,0,1,0-4.75,3.44,3.44,0,0,1,2.48-.86,3.26,3.26,0,0,1,2.41.86,3.06,3.06,0,0,1,.88,2.29,3.29,3.29,0,0,1-.9,2.44A3.41,3.41,0,0,1,513.15,45.5Zm.05-5a1.27,1.27,0,0,0-1.05.46,2.05,2.05,0,0,0-.37,1.32c0,1.19.47,1.78,1.43,1.78s1.37-.61,1.37-1.83S514.12,40.48,513.2,40.48Z"/>
          <path d="M521.8,40.89a1.6,1.6,0,0,0-.8-.19,1.16,1.16,0,0,0-1,.46,2,2,0,0,0-.35,1.24v3h-1.9V39.17h1.9v1.14h0a1.65,1.65,0,0,1,1.63-1.25,1.19,1.19,0,0,1,.47.07Z"/>
          <path d="M528.88,45.35h-2.29l-2-3.07h0v3.07h-1.91V36.2h1.91V42h0l1.84-2.85h2.27l-2.22,2.9Z"/>
          <path d="M476.17,67l-3.35,2.57a18.38,18.38,0,0,0-6.66-5.47,19.43,19.43,0,0,0-8.54-1.87,18.87,18.87,0,0,0-9.43,2.45,17.35,17.35,0,0,0-6.71,6.56,18.12,18.12,0,0,0-2.39,9.26,17.42,17.42,0,0,0,5.33,13,18.53,18.53,0,0,0,13.46,5.2,18.91,18.91,0,0,0,14.94-7l3.35,2.55a21.43,21.43,0,0,1-7.93,6.25,24.8,24.8,0,0,1-10.62,2.21q-11.16,0-17.6-7.42a22.39,22.39,0,0,1-5.41-15.15,21,21,0,0,1,6.55-15.7,22.56,22.56,0,0,1,16.4-6.38,24.07,24.07,0,0,1,10.75,2.36A20.84,20.84,0,0,1,476.17,67Z"/>
          <path d="M477.17,66l-3.35,2.57a18.38,18.38,0,0,0-6.66-5.47,19.43,19.43,0,0,0-8.54-1.87,18.87,18.87,0,0,0-9.43,2.45,17.35,17.35,0,0,0-6.71,6.56,18.12,18.12,0,0,0-2.39,9.26,17.42,17.42,0,0,0,5.33,13,18.53,18.53,0,0,0,13.46,5.2,18.91,18.91,0,0,0,14.94-7l3.35,2.55a21.43,21.43,0,0,1-7.93,6.25,24.8,24.8,0,0,1-10.62,2.21q-11.16,0-17.6-7.42a22.39,22.39,0,0,1-5.41-15.15,21,21,0,0,1,6.55-15.7,22.56,22.56,0,0,1,16.4-6.38,24.07,24.07,0,0,1,10.75,2.36A20.84,20.84,0,0,1,477.17,66Z"/>
          <circle cx="458.6" cy="80.95" r="11.2"/>
          <circle cx="459.6" cy="79.95" r="11.2"/>
          <path d="M479.48,71.23h3.17v3.44a10.83,10.83,0,0,1,3-3,5.9,5.9,0,0,1,3.27-1,5.78,5.78,0,0,1,2.75.8L490,74a4.25,4.25,0,0,0-1.64-.41,4.54,4.54,0,0,0-3,1.24,7.81,7.81,0,0,0-2.19,3.87,36.67,36.67,0,0,0-.57,8.15v8h-3.17Z" style="stroke: #000;stroke-linecap: square;stroke-linejoin: round;stroke-width: 0.009999999776482582px"/>
          <path d="M514.58,87l2.62,1.35a14.12,14.12,0,0,1-3,4,11.68,11.68,0,0,1-3.79,2.31,13.48,13.48,0,0,1-4.77.79q-5.9,0-9.22-3.78a12.59,12.59,0,0,1-3.33-8.55,12.43,12.43,0,0,1,2.82-8,11.61,11.61,0,0,1,9.55-4.46,12,12,0,0,1,9.85,4.57A12.6,12.6,0,0,1,518,83.25H496.31A9.54,9.54,0,0,0,499,90a8.67,8.67,0,0,0,6.41,2.63A10.52,10.52,0,0,0,509,92a9.62,9.62,0,0,0,3-1.66A14.14,14.14,0,0,0,514.58,87Zm0-6.35a9.92,9.92,0,0,0-1.8-3.88,8.49,8.49,0,0,0-3.14-2.34,9.83,9.83,0,0,0-4.1-.89,9,9,0,0,0-6.1,2.23,10.12,10.12,0,0,0-2.82,4.88Z" style="stroke: #000;stroke-miterlimit: 10;stroke-width: 0.009999999776482582px"/>
          <path d="M480.48,70.23h3.17v3.44a10.83,10.83,0,0,1,3-3,5.9,5.9,0,0,1,3.27-1,5.78,5.78,0,0,1,2.75.8L491,73a4.25,4.25,0,0,0-1.64-.41,4.54,4.54,0,0,0-3,1.24,7.81,7.81,0,0,0-2.19,3.87,36.67,36.67,0,0,0-.57,8.15v8h-3.17Z" style="stroke: #000;stroke-linecap: square;stroke-linejoin: round;stroke-width: 0.009999999776482582px"/>
          <path d="M515.58,86l2.62,1.35a14.12,14.12,0,0,1-3,4,11.68,11.68,0,0,1-3.79,2.31,13.48,13.48,0,0,1-4.77.79q-5.9,0-9.22-3.78a12.59,12.59,0,0,1-3.33-8.55,12.43,12.43,0,0,1,2.82-8,11.61,11.61,0,0,1,9.55-4.46,12,12,0,0,1,9.85,4.57A12.6,12.6,0,0,1,519,82.25H497.31A9.54,9.54,0,0,0,500,89a8.67,8.67,0,0,0,6.41,2.63A10.52,10.52,0,0,0,510,91a9.62,9.62,0,0,0,3-1.66A14.14,14.14,0,0,0,515.58,86Zm0-6.35a9.92,9.92,0,0,0-1.8-3.88,8.49,8.49,0,0,0-3.14-2.34,9.83,9.83,0,0,0-4.1-.89,9,9,0,0,0-6.1,2.23,10.12,10.12,0,0,0-2.82,4.88Z" style="stroke: #000;stroke-miterlimit: 10;stroke-width: 0.009999999776482582px"/>
        </g>
        <g>
          <g>
            <path d="M407.64,140.44h14.54v5h-9.51v4.82h9.51v4.87h-9.51v7h9.51v5H407.64Z" style="fill: #652076"/>
            <path d="M427,140.44h13.23v4.95H432v4.84h8.19v4.87H432v12h-5Z" style="fill: #652076"/>
            <path d="M479.59,145.13,476,148.51a11,11,0,0,0-8.14-3.83,8.91,8.91,0,0,0-9,9,9.5,9.5,0,0,0,1.16,4.73,8.31,8.31,0,0,0,3.27,3.25,9.49,9.49,0,0,0,4.71,1.18,9.73,9.73,0,0,0,4-.83,14.57,14.57,0,0,0,4-3l3.44,3.59a19.09,19.09,0,0,1-5.58,4,15.27,15.27,0,0,1-6,1.11,14.2,14.2,0,0,1-12.33-21.12,13.3,13.3,0,0,1,5.16-5,14.52,14.52,0,0,1,7.24-1.89,15.39,15.39,0,0,1,11.61,5.36Z" style="fill: #652076"/>
            <path d="M496.61,139.77a13.22,13.22,0,0,1,9.72,4.1,13.59,13.59,0,0,1,4.07,10,13.44,13.44,0,0,1-4,9.87,13.91,13.91,0,0,1-19.71-.11,14,14,0,0,1,9.93-23.84Zm-.05,5a8.34,8.34,0,0,0-6.22,2.57,8.94,8.94,0,0,0-2.52,6.54,8.49,8.49,0,0,0,3.17,7,8.7,8.7,0,0,0,5.66,2,8.25,8.25,0,0,0,6.14-2.61,8.83,8.83,0,0,0,2.54-6.43,8.93,8.93,0,0,0-2.55-6.44A8.34,8.34,0,0,0,496.56,144.74Z" style="fill: #652076"/>
            <path d="M515.53,140.44h5.38a17.85,17.85,0,0,1,6.28.79,6.48,6.48,0,0,1,3,2.62,8,8,0,0,1,1.14,4.33,7.37,7.37,0,0,1-1.26,4.39,7.62,7.62,0,0,1-3.8,2.67l6.31,11.85h-5.54l-6-11.29h-.47v11.29h-5.07Zm5.07,10.42h1.59a6.1,6.1,0,0,0,3.33-.64,2.38,2.38,0,0,0,.92-2.11,2.57,2.57,0,0,0-.45-1.51,2.59,2.59,0,0,0-1.21-.93,9.2,9.2,0,0,0-2.79-.28H520.6Z" style="fill: #652076"/>
            <path d="M536.73,140.44h14.54v5h-9.51v4.82h9.51v4.87h-9.51v7h9.51v5H536.73Z" style="fill: #652076"/>
          </g>
          <g>
            <circle cx="477.87" cy="63.4" r="60.72" style="fill: #5e379b;stroke: #5e379b;stroke-miterlimit: 10;stroke-width: 4px;stroke-dasharray: 4;opacity: 0.25"/>
            <g style="opacity: 0.8">
              <g>
                <g style="opacity: 0.2">
                  <path d="M432.43,45.35h-5.19V36.69h5v1.59h-3v1.93H432v1.58h-2.83v2h3.24Z"/>
                  <path d="M439.61,45.35H437.7V41.91c0-.95-.34-1.43-1-1.43a1,1,0,0,0-.82.38,1.44,1.44,0,0,0-.32,1v3.53h-1.91V39.17h1.91v1h0a2.17,2.17,0,0,1,2-1.12c1.37,0,2.06.84,2.06,2.54Z"/>
                  <path d="M444.85,45.28a2.78,2.78,0,0,1-1.27.22,1.82,1.82,0,0,1-2-2.09V40.57h-1v-1.4h1V37.83l1.9-.54v1.88h1.39v1.4h-1.39v2.5c0,.65.26,1,.77,1a1.25,1.25,0,0,0,.62-.18Z"/>
                  <path d="M446.89,38.19a1.13,1.13,0,0,1-.79-.29.93.93,0,0,1-.31-.7.9.9,0,0,1,.31-.7,1.31,1.31,0,0,1,1.59,0,.89.89,0,0,1,.3.7.91.91,0,0,1-.3.71A1.13,1.13,0,0,1,446.89,38.19Zm.95,7.16h-1.91V39.17h1.91Z"/>
                  <path d="M453.18,45.28a2.81,2.81,0,0,1-1.27.22,1.82,1.82,0,0,1-2-2.09V40.57h-1v-1.4h1V37.83l1.9-.54v1.88h1.39v1.4h-1.39v2.5c0,.65.26,1,.77,1a1.25,1.25,0,0,0,.62-.18Z"/>
                  <path d="M460.14,39.17l-2.51,6.67c-.6,1.61-1.51,2.41-2.73,2.41a3.66,3.66,0,0,1-1.14-.15V46.58a1.69,1.69,0,0,0,.83.22,1,1,0,0,0,1-.7l.33-.76-2.51-6.17h2.11l1.15,3.76a4.17,4.17,0,0,1,.17.83h0a4.6,4.6,0,0,1,.2-.82l1.16-3.77Z"/>
                  <path d="M469.51,38.28h-3.05V40.4h2.81V42h-2.81v3.36h-1.95V36.69h5Z"/>
                  <path d="M474.78,40.89a1.58,1.58,0,0,0-.8-.19,1.14,1.14,0,0,0-1,.46,2,2,0,0,0-.35,1.24v3h-1.91V39.17h1.91v1.14h0a1.66,1.66,0,0,1,1.63-1.25,1.19,1.19,0,0,1,.47.07Z"/>
                  <path d="M480.82,45.35H479v-.89h0a2,2,0,0,1-1.84,1,1.93,1.93,0,0,1-1.42-.51,1.84,1.84,0,0,1-.52-1.36c0-1.2.71-1.89,2.13-2.08l1.68-.22c0-.68-.36-1-1.1-1a3.77,3.77,0,0,0-2.1.66V39.53a5.53,5.53,0,0,1,1.09-.36,6,6,0,0,1,1.26-.15,2.33,2.33,0,0,1,2.65,2.63ZM479,42.84v-.42l-1.12.15q-.93.12-.93.84a.7.7,0,0,0,.23.53.85.85,0,0,0,.61.21,1.17,1.17,0,0,0,.88-.37A1.37,1.37,0,0,0,479,42.84Z"/>
                  <path d="M492.14,45.35h-1.9V41.82c0-.89-.33-1.34-1-1.34a.89.89,0,0,0-.76.4,1.66,1.66,0,0,0-.3,1v3.46h-1.91V41.79c0-.88-.32-1.31-1-1.31a.93.93,0,0,0-.78.38,1.68,1.68,0,0,0-.3,1v3.44h-1.9V39.17h1.9v1h0a2.2,2.2,0,0,1,.83-.8,2.25,2.25,0,0,1,1.17-.31,1.77,1.77,0,0,1,1.79,1.15A2.28,2.28,0,0,1,490.13,39c1.34,0,2,.82,2,2.48Z"/>
                  <path d="M499.21,42.8h-4c.06.9.63,1.35,1.69,1.35a3.28,3.28,0,0,0,1.8-.49V45a4.7,4.7,0,0,1-2.23.46,2.87,2.87,0,0,1-3.15-3.15,3.32,3.32,0,0,1,.89-2.44,3,3,0,0,1,2.2-.89,2.68,2.68,0,0,1,2.09.8,3.09,3.09,0,0,1,.74,2.18Zm-1.77-1.17c0-.89-.36-1.33-1.07-1.33a1.05,1.05,0,0,0-.8.38,1.79,1.79,0,0,0-.41,1Z"/>
                  <path d="M509.3,39.17l-1.78,6.18h-2l-.91-3.62a4,4,0,0,1-.1-.79h0a5.07,5.07,0,0,1-.12.76l-1,3.65h-2l-1.74-6.18h1.94l.85,4a5.32,5.32,0,0,1,.09.69h0a3.94,3.94,0,0,1,.11-.71l1.06-4h1.82l.95,4a4.44,4.44,0,0,1,.09.7h0a5.62,5.62,0,0,1,.1-.7l.8-4Z"/>
                  <path d="M513.15,45.5a3.32,3.32,0,0,1-2.43-.87,3.58,3.58,0,0,1,0-4.75,3.44,3.44,0,0,1,2.48-.86,3.26,3.26,0,0,1,2.41.86,3.06,3.06,0,0,1,.88,2.29,3.29,3.29,0,0,1-.9,2.44A3.41,3.41,0,0,1,513.15,45.5Zm.05-5a1.27,1.27,0,0,0-1.05.46,2.05,2.05,0,0,0-.37,1.32c0,1.19.47,1.78,1.43,1.78s1.37-.61,1.37-1.83S514.12,40.48,513.2,40.48Z"/>
                  <path d="M521.8,40.89a1.6,1.6,0,0,0-.8-.19,1.16,1.16,0,0,0-1,.46,2,2,0,0,0-.35,1.24v3h-1.9V39.17h1.9v1.14h0a1.65,1.65,0,0,1,1.63-1.25,1.19,1.19,0,0,1,.47.07Z"/>
                  <path d="M528.88,45.35h-2.29l-2-3.07h0v3.07h-1.91V36.2h1.91V42h0l1.84-2.85h2.27l-2.22,2.9Z"/>
                </g>
                <g>
                  <path d="M433.43,44.35h-5.19V35.69h5v1.59h-3v1.93H433v1.58h-2.83v2h3.24Z" style="fill: #f2f2f2"/>
                  <path d="M440.61,44.35H438.7V40.91c0-.95-.34-1.43-1-1.43a1,1,0,0,0-.82.38,1.44,1.44,0,0,0-.32,1v3.53h-1.91V38.17h1.91v1h0a2.17,2.17,0,0,1,2-1.12c1.37,0,2.06.84,2.06,2.54Z" style="fill: #f2f2f2"/>
                  <path d="M445.85,44.28a2.78,2.78,0,0,1-1.27.22,1.82,1.82,0,0,1-2-2.09V39.57h-1v-1.4h1V36.83l1.9-.54v1.88h1.39v1.4h-1.39v2.5c0,.65.26,1,.77,1a1.25,1.25,0,0,0,.62-.18Z" style="fill: #f2f2f2"/>
                  <path d="M447.89,37.19a1.13,1.13,0,0,1-.79-.29.93.93,0,0,1-.31-.7.9.9,0,0,1,.31-.7,1.31,1.31,0,0,1,1.59,0,.89.89,0,0,1,.3.7.91.91,0,0,1-.3.71A1.13,1.13,0,0,1,447.89,37.19Zm.95,7.16h-1.91V38.17h1.91Z" style="fill: #f2f2f2"/>
                  <path d="M454.18,44.28a2.81,2.81,0,0,1-1.27.22,1.82,1.82,0,0,1-2-2.09V39.57h-1v-1.4h1V36.83l1.9-.54v1.88h1.39v1.4h-1.39v2.5c0,.65.26,1,.77,1a1.25,1.25,0,0,0,.62-.18Z" style="fill: #f2f2f2"/>
                  <path d="M461.14,38.17l-2.51,6.67c-.6,1.61-1.51,2.41-2.73,2.41a3.66,3.66,0,0,1-1.14-.15V45.58a1.69,1.69,0,0,0,.83.22,1,1,0,0,0,1-.7l.33-.76-2.51-6.17h2.11l1.15,3.76a4.17,4.17,0,0,1,.17.83h0a4.6,4.6,0,0,1,.2-.82l1.16-3.77Z" style="fill: #f2f2f2"/>
                  <path d="M470.51,37.28h-3.05V39.4h2.81V41h-2.81v3.36h-1.95V35.69h5Z" style="fill: #f2f2f2"/>
                  <path d="M475.78,39.89a1.58,1.58,0,0,0-.8-.19,1.14,1.14,0,0,0-1,.46,2,2,0,0,0-.35,1.24v3h-1.91V38.17h1.91v1.14h0a1.66,1.66,0,0,1,1.63-1.25,1.19,1.19,0,0,1,.47.07Z" style="fill: #f2f2f2"/>
                  <path d="M481.82,44.35H480v-.89h0a2,2,0,0,1-1.84,1,1.93,1.93,0,0,1-1.42-.51,1.84,1.84,0,0,1-.52-1.36c0-1.2.71-1.89,2.13-2.08l1.68-.22c0-.68-.36-1-1.1-1a3.77,3.77,0,0,0-2.1.66V38.53a5.53,5.53,0,0,1,1.09-.36,6,6,0,0,1,1.26-.15,2.33,2.33,0,0,1,2.65,2.63ZM480,41.84v-.42l-1.12.15q-.93.12-.93.84a.7.7,0,0,0,.23.53.85.85,0,0,0,.61.21,1.17,1.17,0,0,0,.88-.37A1.37,1.37,0,0,0,480,41.84Z" style="fill: #f2f2f2"/>
                  <path d="M493.14,44.35h-1.9V40.82c0-.89-.33-1.34-1-1.34a.89.89,0,0,0-.76.4,1.66,1.66,0,0,0-.3,1v3.46h-1.91V40.79c0-.88-.32-1.31-1-1.31a.93.93,0,0,0-.78.38,1.68,1.68,0,0,0-.3,1v3.44h-1.9V38.17h1.9v1h0a2.2,2.2,0,0,1,.83-.8,2.25,2.25,0,0,1,1.17-.31,1.77,1.77,0,0,1,1.79,1.15A2.28,2.28,0,0,1,491.13,38c1.34,0,2,.82,2,2.48Z" style="fill: #f2f2f2"/>
                  <path d="M500.21,41.8h-4c.06.9.63,1.35,1.69,1.35a3.28,3.28,0,0,0,1.8-.49V44a4.7,4.7,0,0,1-2.23.46,2.87,2.87,0,0,1-3.15-3.15,3.32,3.32,0,0,1,.89-2.44,3,3,0,0,1,2.2-.89,2.68,2.68,0,0,1,2.09.8,3.09,3.09,0,0,1,.74,2.18Zm-1.77-1.17c0-.89-.36-1.33-1.07-1.33a1.05,1.05,0,0,0-.8.38,1.79,1.79,0,0,0-.41,1Z" style="fill: #f2f2f2"/>
                  <path d="M510.3,38.17l-1.78,6.18h-2l-.91-3.62a4,4,0,0,1-.1-.79h0a5.07,5.07,0,0,1-.12.76l-1,3.65h-2l-1.74-6.18h1.94l.85,4a5.32,5.32,0,0,1,.09.69h0a3.94,3.94,0,0,1,.11-.71l1.06-4h1.82l.95,4a4.44,4.44,0,0,1,.09.7h0a5.62,5.62,0,0,1,.1-.7l.8-4Z" style="fill: #f2f2f2"/>
                  <path d="M514.15,44.5a3.32,3.32,0,0,1-2.43-.87,3.58,3.58,0,0,1,0-4.75,3.44,3.44,0,0,1,2.48-.86,3.26,3.26,0,0,1,2.41.86,3.06,3.06,0,0,1,.88,2.29,3.29,3.29,0,0,1-.9,2.44A3.41,3.41,0,0,1,514.15,44.5Zm.05-5a1.27,1.27,0,0,0-1.05.46,2.05,2.05,0,0,0-.37,1.32c0,1.19.47,1.78,1.43,1.78s1.37-.61,1.37-1.83S515.12,39.48,514.2,39.48Z" style="fill: #f2f2f2"/>
                  <path d="M522.8,39.89a1.6,1.6,0,0,0-.8-.19,1.16,1.16,0,0,0-1,.46,2,2,0,0,0-.35,1.24v3h-1.9V38.17h1.9v1.14h0a1.65,1.65,0,0,1,1.63-1.25,1.19,1.19,0,0,1,.47.07Z" style="fill: #f2f2f2"/>
                  <path d="M529.88,44.35h-2.29l-2-3.07h0v3.07h-1.91V35.2h1.91V41h0l1.84-2.85h2.27l-2.22,2.9Z" style="fill: #f2f2f2"/>
                </g>
              </g>
              <g>
                <g>
                  <g style="opacity: 0.2">
                    <path d="M477.17,66l-3.35,2.57a18.38,18.38,0,0,0-6.66-5.47,19.43,19.43,0,0,0-8.54-1.87,18.87,18.87,0,0,0-9.43,2.45,17.35,17.35,0,0,0-6.71,6.56,18.12,18.12,0,0,0-2.39,9.26,17.42,17.42,0,0,0,5.33,13,18.53,18.53,0,0,0,13.46,5.2,18.91,18.91,0,0,0,14.94-7l3.35,2.55a21.43,21.43,0,0,1-7.93,6.25,24.8,24.8,0,0,1-10.62,2.21q-11.16,0-17.6-7.42a22.39,22.39,0,0,1-5.41-15.15,21,21,0,0,1,6.55-15.7,22.56,22.56,0,0,1,16.4-6.38,24.07,24.07,0,0,1,10.75,2.36A20.84,20.84,0,0,1,477.17,66Z"/>
                  </g>
                  <path d="M478.17,65l-3.35,2.57a18.38,18.38,0,0,0-6.66-5.47,19.43,19.43,0,0,0-8.54-1.87,18.87,18.87,0,0,0-9.43,2.45,17.35,17.35,0,0,0-6.71,6.56,18.12,18.12,0,0,0-2.39,9.26,17.42,17.42,0,0,0,5.33,13,18.53,18.53,0,0,0,13.46,5.2,18.91,18.91,0,0,0,14.94-7l3.35,2.55a21.43,21.43,0,0,1-7.93,6.25,24.8,24.8,0,0,1-10.62,2.21q-11.16,0-17.6-7.42a22.39,22.39,0,0,1-5.41-15.15,21,21,0,0,1,6.55-15.7,22.56,22.56,0,0,1,16.4-6.38,24.07,24.07,0,0,1,10.75,2.36A20.84,20.84,0,0,1,478.17,65Z" style="fill: #fff"/>
                </g>
                <g>
                  <g style="opacity: 0.2">
                    <circle cx="459.6" cy="79.95" r="11.2"/>
                  </g>
                  <circle cx="460.6" cy="78.95" r="11.2" style="fill: #3ec6ec"/>
                </g>
                <g>
                  <g style="opacity: 0.2">
                    <path d="M480.48,70.23h3.17v3.44a10.83,10.83,0,0,1,3-3,5.9,5.9,0,0,1,3.27-1,5.78,5.78,0,0,1,2.75.8L491,73a4.25,4.25,0,0,0-1.64-.41,4.54,4.54,0,0,0-3,1.24,7.81,7.81,0,0,0-2.19,3.87,36.67,36.67,0,0,0-.57,8.15v8h-3.17Z" style="stroke: #000;stroke-linecap: square;stroke-linejoin: round;stroke-width: 0.009999999776482582px"/>
                    <path d="M515.58,86l2.62,1.35a14.12,14.12,0,0,1-3,4,11.68,11.68,0,0,1-3.79,2.31,13.48,13.48,0,0,1-4.77.79q-5.9,0-9.22-3.78a12.59,12.59,0,0,1-3.33-8.55,12.43,12.43,0,0,1,2.82-8,11.61,11.61,0,0,1,9.55-4.46,12,12,0,0,1,9.85,4.57A12.6,12.6,0,0,1,519,82.25H497.31A9.54,9.54,0,0,0,500,89a8.67,8.67,0,0,0,6.41,2.63A10.52,10.52,0,0,0,510,91a9.62,9.62,0,0,0,3-1.66A14.14,14.14,0,0,0,515.58,86Zm0-6.35a9.92,9.92,0,0,0-1.8-3.88,8.49,8.49,0,0,0-3.14-2.34,9.83,9.83,0,0,0-4.1-.89,9,9,0,0,0-6.1,2.23,10.12,10.12,0,0,0-2.82,4.88Z" style="stroke: #000;stroke-miterlimit: 10;stroke-width: 0.009999999776482582px"/>
                  </g>
                  <g>
                    <path d="M481.48,69.23h3.17v3.44a10.83,10.83,0,0,1,3-3,5.9,5.9,0,0,1,3.27-1,5.78,5.78,0,0,1,2.75.8L492,72a4.25,4.25,0,0,0-1.64-.41,4.54,4.54,0,0,0-3,1.24,7.81,7.81,0,0,0-2.19,3.87,36.67,36.67,0,0,0-.57,8.15v8h-3.17Z" style="fill: #fff;stroke: #fff;stroke-linecap: square;stroke-linejoin: round;stroke-width: 0.009999999776482582px"/>
                    <path d="M516.58,85l2.62,1.35a14.12,14.12,0,0,1-3,4,11.68,11.68,0,0,1-3.79,2.31,13.48,13.48,0,0,1-4.77.79q-5.9,0-9.22-3.78a12.59,12.59,0,0,1-3.33-8.55,12.43,12.43,0,0,1,2.82-8,11.61,11.61,0,0,1,9.55-4.46,12,12,0,0,1,9.85,4.57A12.6,12.6,0,0,1,520,81.25H498.31A9.54,9.54,0,0,0,501,88a8.67,8.67,0,0,0,6.41,2.63A10.52,10.52,0,0,0,511,90a9.62,9.62,0,0,0,3-1.66A14.14,14.14,0,0,0,516.58,85Zm0-6.35a9.92,9.92,0,0,0-1.8-3.88,8.49,8.49,0,0,0-3.14-2.34,9.83,9.83,0,0,0-4.1-.89,9,9,0,0,0-6.1,2.23,10.12,10.12,0,0,0-2.82,4.88Z" style="fill: #fff;stroke: #fff;stroke-miterlimit: 10;stroke-width: 0.009999999776482582px"/>
                  </g>
                </g>
              </g>
            </g>
          </g>
        </g>
      </g>
      <g>
        <g style="opacity: 0.2">
          <circle cx="62.72" cy="63.72" r="60.72" style="stroke: #000;stroke-miterlimit: 10;stroke-width: 4px;stroke-dasharray: 4;opacity: 0.25"/>
          <path d="M29.88,43.47A1.91,1.91,0,0,0,29,45V81.5A1.89,1.89,0,0,0,29.88,83l32,18.28a2,2,0,0,0,1.74,0L95.57,83a1.89,1.89,0,0,0,.87-1.49V45a1.91,1.91,0,0,0-.87-1.5l-32-18.27a1.91,1.91,0,0,0-1.74,0Z"/>
          <path d="M79.8,79.44a2.5,2.5,0,0,1-.69,1.38Q73,88,63,88q-10.27,0-16.66-7-6.23-6.78-6.22-17.12a24.94,24.94,0,0,1,6.09-17A20.49,20.49,0,0,1,62.39,39.6q10.67,0,16.72,6.55a2.07,2.07,0,0,1,.66,1.29q0,.62-2.29,4.64a25.93,25.93,0,0,1-2.88,4.51.89.89,0,0,1-.66.26,8.72,8.72,0,0,1-1.64-1.31,17.19,17.19,0,0,0-3.49-2.47,11.83,11.83,0,0,0-5.4-1.32,9.41,9.41,0,0,0-7.74,3.62A12.93,12.93,0,0,0,53,63.67a13.13,13.13,0,0,0,2.67,8.39,9.34,9.34,0,0,0,7.74,3.69,12.15,12.15,0,0,0,5.43-1.25,17,17,0,0,0,3.42-2.3A8.12,8.12,0,0,1,73.88,71a.92.92,0,0,1,.65.36c.36.39,1.31,1.76,2.87,4.11A24.17,24.17,0,0,1,79.8,79.44Z"/>
          <path d="M80.8,78.44a2.5,2.5,0,0,1-.69,1.38Q74,87,64,87q-10.28,0-16.66-7-6.23-6.78-6.22-17.12a24.94,24.94,0,0,1,6.09-17A20.49,20.49,0,0,1,63.39,38.6q10.67,0,16.72,6.55a2.07,2.07,0,0,1,.66,1.29q0,.62-2.29,4.64a25.93,25.93,0,0,1-2.88,4.51.89.89,0,0,1-.66.26,8.72,8.72,0,0,1-1.64-1.31,17.19,17.19,0,0,0-3.49-2.47,11.83,11.83,0,0,0-5.4-1.32,9.41,9.41,0,0,0-7.74,3.62A12.93,12.93,0,0,0,54,62.67a13.13,13.13,0,0,0,2.67,8.39,9.34,9.34,0,0,0,7.74,3.69,12.15,12.15,0,0,0,5.43-1.25,17,17,0,0,0,3.42-2.3A8.12,8.12,0,0,1,74.88,70a.92.92,0,0,1,.65.36c.36.39,1.31,1.76,2.87,4.11A24.17,24.17,0,0,1,80.8,78.44Z"/>
          <path d="M77.12,60.64H80l.79-3.6h1.78l-.79,3.6h3.34l.77-3.6h1.77l-.77,3.6h1.6v1.78H86.57L86,65.27h2.53v1.78H85.64l-.77,3.57H83.08l.79-3.57H80.49l-.74,3.57H78l.76-3.57h-1.6V65.27h2l.59-2.85H77.12Zm4.34,1.78-.6,2.84h3.35l.59-2.84Z"/>
          <path d="M78.12,59.64H81l.79-3.6h1.78l-.79,3.6h3.34l.77-3.6h1.77l-.77,3.6h1.6v1.78H87.57L87,64.27h2.53v1.78H86.64l-.77,3.57H84.08l.79-3.57H81.49l-.74,3.57H79l.76-3.57h-1.6V64.27h2l.59-2.85H78.12Zm4.34,1.78-.6,2.84h3.35l.59-2.84Z"/>
          <path d="M22,164.58a3.16,3.16,0,0,1-.59,2.26,3,3,0,0,1-2.11.58,3,3,0,0,1-2.1-.57,3,3,0,0,1-.58-2.16,3.24,3.24,0,0,1,.59-2.28,3,3,0,0,1,2.13-.58,2.94,2.94,0,0,1,2.08.57A3,3,0,0,1,22,164.58Z"/>
          <path d="M46.17,165.52a1.72,1.72,0,0,1-.15.74,1.41,1.41,0,0,1-1,.86,2.29,2.29,0,0,1-.68.1h-2a4.4,4.4,0,0,1-1.1-.12,2.28,2.28,0,0,1-.85-.46,4.19,4.19,0,0,1-.75-.91,16,16,0,0,1-.82-1.48l-5.83-11c-.34-.65-.68-1.35-1-2.11S31.3,149.7,31,149h0c.05.87.08,1.74.11,2.6s0,1.76,0,2.67v12.27a.51.51,0,0,1-.1.32.72.72,0,0,1-.34.25,2.31,2.31,0,0,1-.66.15,7.85,7.85,0,0,1-1.07.06,7.63,7.63,0,0,1-1.05-.06,2.15,2.15,0,0,1-.65-.15.69.69,0,0,1-.33-.25.57.57,0,0,1-.09-.32V145.45a1.61,1.61,0,0,1,.5-1.28,1.83,1.83,0,0,1,1.22-.42h2.56a4.87,4.87,0,0,1,1.16.12,2.29,2.29,0,0,1,.84.38,3,3,0,0,1,.69.76,9.3,9.3,0,0,1,.68,1.18l4.56,8.57.79,1.53c.26.5.51,1,.75,1.51l.71,1.47c.23.48.45,1,.67,1.45h0c0-.84-.06-1.73-.08-2.64s0-1.8,0-2.63v-11a.51.51,0,0,1,.1-.32,1,1,0,0,1,.37-.26,2.47,2.47,0,0,1,.67-.15,10.5,10.5,0,0,1,1.07,0,10,10,0,0,1,1,0,2.07,2.07,0,0,1,.64.15.79.79,0,0,1,.32.26.57.57,0,0,1,.09.32Z"/>
          <path d="M65.17,165.32a7.24,7.24,0,0,1,0,.88,2.15,2.15,0,0,1-.14.57.74.74,0,0,1-.23.32.46.46,0,0,1-.29.1H52.69a1.44,1.44,0,0,1-1-.36,1.4,1.4,0,0,1-.41-1.15V145.25a1.43,1.43,0,0,1,.41-1.15,1.49,1.49,0,0,1,1-.35h11.7a.48.48,0,0,1,.29.09.62.62,0,0,1,.22.32,2.37,2.37,0,0,1,.14.57,7.6,7.6,0,0,1,0,.9,7,7,0,0,1,0,.86,2.15,2.15,0,0,1-.14.57.72.72,0,0,1-.22.32.43.43,0,0,1-.29.1H56v5.72h7.09a.54.54,0,0,1,.3.1.75.75,0,0,1,.22.31,2.17,2.17,0,0,1,.14.56,7.2,7.2,0,0,1,0,.86,7.06,7.06,0,0,1,0,.87,2.17,2.17,0,0,1-.14.56.68.68,0,0,1-.22.29.53.53,0,0,1-.3.09H56v6.62h8.45a.46.46,0,0,1,.29.1.7.7,0,0,1,.23.31,2.37,2.37,0,0,1,.14.57A7.34,7.34,0,0,1,65.17,165.32Z"/>
          <path d="M85,145.7a7.82,7.82,0,0,1,0,.9,2.42,2.42,0,0,1-.14.6.7.7,0,0,1-.23.33.42.42,0,0,1-.29.11H78.4v18.9a.47.47,0,0,1-.12.32.82.82,0,0,1-.39.24,3.5,3.5,0,0,1-.73.14,11.15,11.15,0,0,1-2.31,0,3.5,3.5,0,0,1-.73-.14.82.82,0,0,1-.39-.24.47.47,0,0,1-.12-.32v-18.9H67.74a.4.4,0,0,1-.3-.11.76.76,0,0,1-.22-.33,2.42,2.42,0,0,1-.14-.6,7.82,7.82,0,0,1,0-.9,8.08,8.08,0,0,1,0-.92,2.51,2.51,0,0,1,.14-.61.67.67,0,0,1,.22-.32.44.44,0,0,1,.3-.1H84.27a.46.46,0,0,1,.29.1.62.62,0,0,1,.23.32,2.51,2.51,0,0,1,.14.61A8.08,8.08,0,0,1,85,145.7Z"/>
          <path d="M110.68,159.58A8.35,8.35,0,0,1,110,163a7.22,7.22,0,0,1-1.87,2.52,8.32,8.32,0,0,1-2.9,1.56,12.32,12.32,0,0,1-3.76.55,15,15,0,0,1-2.06-.14,14.41,14.41,0,0,1-1.76-.35,9.28,9.28,0,0,1-1.28-.41,2.35,2.35,0,0,1-.65-.35,1,1,0,0,1-.23-.29,2.66,2.66,0,0,1-.11-.39c0-.15-.05-.35-.07-.57s0-.51,0-.82,0-.63,0-.86a2.78,2.78,0,0,1,.12-.57.69.69,0,0,1,.19-.31.38.38,0,0,1,.25-.09,1.35,1.35,0,0,1,.56.21,9.16,9.16,0,0,0,1,.46,10.08,10.08,0,0,0,1.48.46,9,9,0,0,0,2.08.21,7.53,7.53,0,0,0,1.91-.22,3.67,3.67,0,0,0,1.46-.69,3.28,3.28,0,0,0,.93-1.21,4.33,4.33,0,0,0,.32-1.74,4.2,4.2,0,0,0-.27-1.55,2.82,2.82,0,0,0-.85-1.15,3.87,3.87,0,0,0-1.5-.7,9.12,9.12,0,0,0-2.25-.24,15.75,15.75,0,0,0-1.91.11,13.63,13.63,0,0,1-1.62.11,1,1,0,0,1-.75-.26,1.48,1.48,0,0,1-.23-1V145.11a1.57,1.57,0,0,1,.28-1.05,1.16,1.16,0,0,1,.9-.31h11.1a.47.47,0,0,1,.31.11.69.69,0,0,1,.24.34,2.24,2.24,0,0,1,.15.63,8.38,8.38,0,0,1,0,.93,4.59,4.59,0,0,1-.19,1.57c-.12.33-.31.49-.55.49h-8.33v5q.63-.08,1.26-.09l1.31,0a11.62,11.62,0,0,1,3.38.45,6.73,6.73,0,0,1,2.48,1.3,5.53,5.53,0,0,1,1.53,2.14A7.74,7.74,0,0,1,110.68,159.58Z"/>
        </g>
        <g>
          <g>
            <circle cx="63.72" cy="62.72" r="60.72" style="fill: #81438c;stroke: #81438c;stroke-miterlimit: 10;stroke-width: 4px;stroke-dasharray: 4;opacity: 0.25"/>
            <g style="opacity: 0.8">
              <path d="M30.88,42.47A1.91,1.91,0,0,0,30,44V80.5A1.89,1.89,0,0,0,30.88,82l32,18.28a2,2,0,0,0,1.74,0L96.57,82a1.89,1.89,0,0,0,.87-1.49V44a1.91,1.91,0,0,0-.87-1.5l-32-18.27a1.91,1.91,0,0,0-1.74,0Z" style="fill: #5e379b"/>
              <g>
                <g style="opacity: 0.2">
                  <path d="M80.8,78.44a2.5,2.5,0,0,1-.69,1.38Q74,87,64,87q-10.28,0-16.66-7-6.23-6.78-6.22-17.12a24.94,24.94,0,0,1,6.09-17A20.49,20.49,0,0,1,63.39,38.6q10.67,0,16.72,6.55a2.07,2.07,0,0,1,.66,1.29q0,.62-2.29,4.64a25.93,25.93,0,0,1-2.88,4.51.89.89,0,0,1-.66.26,8.72,8.72,0,0,1-1.64-1.31,17.19,17.19,0,0,0-3.49-2.47,11.83,11.83,0,0,0-5.4-1.32,9.41,9.41,0,0,0-7.74,3.62A12.93,12.93,0,0,0,54,62.67a13.13,13.13,0,0,0,2.67,8.39,9.34,9.34,0,0,0,7.74,3.69,12.15,12.15,0,0,0,5.43-1.25,17,17,0,0,0,3.42-2.3A8.12,8.12,0,0,1,74.88,70a.92.92,0,0,1,.65.36c.36.39,1.31,1.76,2.87,4.11A24.17,24.17,0,0,1,80.8,78.44Z"/>
                </g>
                <path d="M81.8,77.44a2.5,2.5,0,0,1-.69,1.38Q75,86,65,86q-10.28,0-16.66-7-6.23-6.78-6.22-17.12a24.94,24.94,0,0,1,6.09-17A20.49,20.49,0,0,1,64.39,37.6q10.67,0,16.72,6.55a2.07,2.07,0,0,1,.66,1.29q0,.62-2.29,4.64a25.93,25.93,0,0,1-2.88,4.51.89.89,0,0,1-.66.26,8.72,8.72,0,0,1-1.64-1.31,17.19,17.19,0,0,0-3.49-2.47,11.83,11.83,0,0,0-5.4-1.32,9.41,9.41,0,0,0-7.74,3.62A12.93,12.93,0,0,0,55,61.67a13.13,13.13,0,0,0,2.67,8.39,9.34,9.34,0,0,0,7.74,3.69,12.15,12.15,0,0,0,5.43-1.25,17,17,0,0,0,3.42-2.3A8.12,8.12,0,0,1,75.88,69a.92.92,0,0,1,.65.36c.36.39,1.31,1.76,2.87,4.11A24.17,24.17,0,0,1,81.8,77.44Z" style="fill: #fff"/>
              </g>
              <g>
                <g style="opacity: 0.2">
                  <path d="M78.12,59.64H81l.79-3.6h1.78l-.79,3.6h3.34l.77-3.6h1.77l-.77,3.6h1.6v1.78H87.57L87,64.27h2.53v1.78H86.64l-.77,3.57H84.08l.79-3.57H81.49l-.74,3.57H79l.76-3.57h-1.6V64.27h2l.59-2.85H78.12Zm4.34,1.78-.6,2.84h3.35l.59-2.84Z"/>
                </g>
                <path d="M79.12,58.64H82l.79-3.6h1.78l-.79,3.6h3.34l.77-3.6h1.77l-.77,3.6h1.6v1.78H88.57L88,63.27h2.53v1.78H87.64l-.77,3.57H85.08l.79-3.57H82.49l-.74,3.57H80l.76-3.57h-1.6V63.27h2l.59-2.85H79.12Zm4.34,1.78-.6,2.84h3.35l.59-2.84Z" style="fill: #fff"/>
              </g>
            </g>
          </g>
          <g>
            <path d="M23,163.58a3.16,3.16,0,0,1-.59,2.26,3,3,0,0,1-2.11.58,3,3,0,0,1-2.1-.57,3,3,0,0,1-.58-2.16,3.24,3.24,0,0,1,.59-2.28,3,3,0,0,1,2.13-.58,2.94,2.94,0,0,1,2.08.57A3,3,0,0,1,23,163.58Z" style="fill: #5e379b"/>
            <path d="M47.17,164.52a1.72,1.72,0,0,1-.15.74,1.41,1.41,0,0,1-1,.86,2.29,2.29,0,0,1-.68.1h-2a4.4,4.4,0,0,1-1.1-.12,2.28,2.28,0,0,1-.85-.46,4.19,4.19,0,0,1-.75-.91,16,16,0,0,1-.82-1.48l-5.83-11c-.34-.65-.68-1.35-1-2.11S32.3,148.7,32,148h0c.05.87.08,1.74.11,2.6s0,1.76,0,2.67v12.27a.51.51,0,0,1-.1.32.72.72,0,0,1-.34.25,2.31,2.31,0,0,1-.66.15,7.85,7.85,0,0,1-1.07.06,7.63,7.63,0,0,1-1.05-.06,2.15,2.15,0,0,1-.65-.15.69.69,0,0,1-.33-.25.57.57,0,0,1-.09-.32V144.45a1.61,1.61,0,0,1,.5-1.28,1.83,1.83,0,0,1,1.22-.42h2.56a4.87,4.87,0,0,1,1.16.12,2.29,2.29,0,0,1,.84.38,3,3,0,0,1,.69.76,9.3,9.3,0,0,1,.68,1.18l4.56,8.57.79,1.53c.26.5.51,1,.75,1.51l.71,1.47c.23.48.45,1,.67,1.45h0c0-.84-.06-1.73-.08-2.64s0-1.8,0-2.63v-11a.51.51,0,0,1,.1-.32,1,1,0,0,1,.37-.26,2.47,2.47,0,0,1,.67-.15,10.5,10.5,0,0,1,1.07,0,10,10,0,0,1,1,0,2.07,2.07,0,0,1,.64.15.79.79,0,0,1,.32.26.57.57,0,0,1,.09.32Z" style="fill: #5e379b"/>
            <path d="M66.17,164.32a7.24,7.24,0,0,1,0,.88,2.15,2.15,0,0,1-.14.57.74.74,0,0,1-.23.32.46.46,0,0,1-.29.1H53.69a1.44,1.44,0,0,1-1-.36,1.4,1.4,0,0,1-.41-1.15V144.25a1.43,1.43,0,0,1,.41-1.15,1.49,1.49,0,0,1,1-.35h11.7a.48.48,0,0,1,.29.09.62.62,0,0,1,.22.32,2.37,2.37,0,0,1,.14.57,7.6,7.6,0,0,1,0,.9,7,7,0,0,1,0,.86,2.15,2.15,0,0,1-.14.57.72.72,0,0,1-.22.32.43.43,0,0,1-.29.1H57v5.72h7.09a.54.54,0,0,1,.3.1.75.75,0,0,1,.22.31,2.17,2.17,0,0,1,.14.56,7.2,7.2,0,0,1,0,.86,7.06,7.06,0,0,1,0,.87,2.17,2.17,0,0,1-.14.56.68.68,0,0,1-.22.29.53.53,0,0,1-.3.09H57v6.62h8.45a.46.46,0,0,1,.29.1.7.7,0,0,1,.23.31,2.37,2.37,0,0,1,.14.57A7.34,7.34,0,0,1,66.17,164.32Z" style="fill: #5e379b"/>
            <path d="M86,144.7a7.82,7.82,0,0,1,0,.9,2.42,2.42,0,0,1-.14.6.7.7,0,0,1-.23.33.42.42,0,0,1-.29.11H79.4v18.9a.47.47,0,0,1-.12.32.82.82,0,0,1-.39.24,3.5,3.5,0,0,1-.73.14,11.15,11.15,0,0,1-2.31,0,3.5,3.5,0,0,1-.73-.14.82.82,0,0,1-.39-.24.47.47,0,0,1-.12-.32v-18.9H68.74a.4.4,0,0,1-.3-.11.76.76,0,0,1-.22-.33,2.42,2.42,0,0,1-.14-.6,7.82,7.82,0,0,1,0-.9,8.08,8.08,0,0,1,0-.92,2.51,2.51,0,0,1,.14-.61.67.67,0,0,1,.22-.32.44.44,0,0,1,.3-.1H85.27a.46.46,0,0,1,.29.1.62.62,0,0,1,.23.32,2.51,2.51,0,0,1,.14.61A8.08,8.08,0,0,1,86,144.7Z" style="fill: #5e379b"/>
            <path d="M111.68,158.58A8.35,8.35,0,0,1,111,162a7.22,7.22,0,0,1-1.87,2.52,8.32,8.32,0,0,1-2.9,1.56,12.32,12.32,0,0,1-3.76.55,15,15,0,0,1-2.06-.14,14.41,14.41,0,0,1-1.76-.35,9.28,9.28,0,0,1-1.28-.41,2.35,2.35,0,0,1-.65-.35,1,1,0,0,1-.23-.29,2.66,2.66,0,0,1-.11-.39c0-.15-.05-.35-.07-.57s0-.51,0-.82,0-.63,0-.86a2.78,2.78,0,0,1,.12-.57.69.69,0,0,1,.19-.31.38.38,0,0,1,.25-.09,1.35,1.35,0,0,1,.56.21,9.16,9.16,0,0,0,1,.46,10.08,10.08,0,0,0,1.48.46,9,9,0,0,0,2.08.21,7.53,7.53,0,0,0,1.91-.22,3.67,3.67,0,0,0,1.46-.69,3.28,3.28,0,0,0,.93-1.21,4.33,4.33,0,0,0,.32-1.74,4.2,4.2,0,0,0-.27-1.55,2.82,2.82,0,0,0-.85-1.15,3.87,3.87,0,0,0-1.5-.7,9.12,9.12,0,0,0-2.25-.24,15.75,15.75,0,0,0-1.91.11,13.63,13.63,0,0,1-1.62.11,1,1,0,0,1-.75-.26,1.48,1.48,0,0,1-.23-1V144.11a1.57,1.57,0,0,1,.28-1.05,1.16,1.16,0,0,1,.9-.31h11.1a.47.47,0,0,1,.31.11.69.69,0,0,1,.24.34,2.24,2.24,0,0,1,.15.63,8.38,8.38,0,0,1,0,.93,4.59,4.59,0,0,1-.19,1.57c-.12.33-.31.49-.55.49h-8.33v5q.63-.08,1.26-.09l1.31,0a11.62,11.62,0,0,1,3.38.45,6.73,6.73,0,0,1,2.48,1.3,5.53,5.53,0,0,1,1.53,2.14A7.74,7.74,0,0,1,111.68,158.58Z" style="fill: #5e379b"/>
          </g>
        </g>
      </g>
      <g>
        <g style="opacity: 0.2">
          <circle cx="911.72" cy="64.4" r="60.72" style="stroke: #000;stroke-miterlimit: 10;stroke-width: 4px;stroke-dasharray: 4;opacity: 0.25"/>
          <path d="M920.56,31.25l-8.84,15.31-8.84-15.31H873.45l38.27,66.3L950,31.25Z"/>
          <path d="M920.56,31.25l-8.84,15.31-8.84-15.31H888.76l23,39.78,23-39.78Z"/>
          <path d="M860.29,141.44h5.22l6.7,18.93,6.8-18.93h5.21l-9.6,26.65h-4.89Z"/>
          <path d="M887.73,148.38h5v9.49a13,13,0,0,0,.38,3.85,3.35,3.35,0,0,0,1.22,1.68,3.59,3.59,0,0,0,2.08.59,3.63,3.63,0,0,0,2.1-.58,3.46,3.46,0,0,0,1.28-1.74,13,13,0,0,0,.31-3.64v-9.65h4.95v8.35c0,3.44-.28,5.8-.82,7.06a7.63,7.63,0,0,1-2.93,3.56,9,9,0,0,1-4.93,1.24,8.81,8.81,0,0,1-5.25-1.44,7.69,7.69,0,0,1-2.81-4,24.38,24.38,0,0,1-.58-6.53Z"/>
          <path d="M929.75,159.66H913.87a5.28,5.28,0,0,0,1.84,3.35,5.78,5.78,0,0,0,3.81,1.24,6.58,6.58,0,0,0,4.76-1.94l4.17,2a9.89,9.89,0,0,1-3.73,3.27,11.76,11.76,0,0,1-5.16,1.05,10.21,10.21,0,0,1-7.56-2.92,10,10,0,0,1-2.91-7.33,10.28,10.28,0,0,1,2.9-7.49,9.79,9.79,0,0,1,7.29-3,10.17,10.17,0,0,1,7.58,3,10.79,10.79,0,0,1,2.91,7.87Zm-4.94-3.89a5,5,0,0,0-1.93-2.68,5.61,5.61,0,0,0-3.35-1,5.88,5.88,0,0,0-3.63,1.16,6.38,6.38,0,0,0-1.81,2.55Z"/>
          <path d="M936.46,162.92a2.77,2.77,0,0,1,2,.83,2.84,2.84,0,0,1-2,4.84,2.83,2.83,0,0,1-2-4.84A2.74,2.74,0,0,1,936.46,162.92Z"/>
          <path d="M944,148.38h5v20.36a12.17,12.17,0,0,1-.55,4.19,4.31,4.31,0,0,1-1.75,2.13,5.32,5.32,0,0,1-2.88.74,12,12,0,0,1-3.7-.74v-3.89a4.92,4.92,0,0,0,2.05.56,1.74,1.74,0,0,0,1.41-.56,3.31,3.31,0,0,0,.47-2.07Zm2.47-8.12a3.07,3.07,0,0,1,2.25.94,3.13,3.13,0,0,1,.93,2.28,3.09,3.09,0,0,1-.92,2.26,3.09,3.09,0,0,1-4.46,0,3.17,3.17,0,0,1-.94-2.31,3.07,3.07,0,0,1,.92-2.23A3,3,0,0,1,946.46,140.26Z"/>
          <path d="M965.84,151.13l-3.06,3.06a5.18,5.18,0,0,0-3.39-1.84,2.09,2.09,0,0,0-1.3.35,1,1,0,0,0-.47.88,1.07,1.07,0,0,0,.3.73,5.33,5.33,0,0,0,1.47.92l1.81.9a10.59,10.59,0,0,1,3.93,2.88,6,6,0,0,1-.86,7.83,7.38,7.38,0,0,1-5.17,1.75,8.22,8.22,0,0,1-6.88-3.36l3-3.32a7,7,0,0,0,2,1.64,4.46,4.46,0,0,0,2.07.62,2.44,2.44,0,0,0,1.58-.47,1.35,1.35,0,0,0,.6-1.08c0-.76-.72-1.51-2.16-2.23l-1.67-.83c-3.18-1.61-4.78-3.62-4.78-6a5.23,5.23,0,0,1,1.8-4,6.54,6.54,0,0,1,4.61-1.66,8,8,0,0,1,3.62.84A8.12,8.12,0,0,1,965.84,151.13Z"/>
        </g>
        <g>
          <g>
            <circle cx="912.72" cy="63.4" r="60.72" style="fill: #68ca9e;stroke: #68ca9e;stroke-miterlimit: 10;stroke-width: 4px;stroke-dasharray: 4;opacity: 0.25"/>
            <g>
              <path d="M921.56,30.25l-8.84,15.31-8.84-15.31H874.45l38.27,66.3L951,30.25Z" style="fill: #41b883"/>
              <path d="M921.56,30.25l-8.84,15.31-8.84-15.31H889.76l23,39.78,23-39.78Z" style="fill: #34495e"/>
            </g>
          </g>
          <g>
            <path d="M861.29,140.44h5.22l6.7,18.93,6.8-18.93h5.21l-9.6,26.65h-4.89Z" style="fill: #41b883"/>
            <path d="M888.73,147.38h5v9.49a13,13,0,0,0,.38,3.85,3.35,3.35,0,0,0,1.22,1.68,3.59,3.59,0,0,0,2.08.59,3.63,3.63,0,0,0,2.1-.58,3.46,3.46,0,0,0,1.28-1.74,13,13,0,0,0,.31-3.64v-9.65h4.95v8.35c0,3.44-.28,5.8-.82,7.06a7.63,7.63,0,0,1-2.93,3.56,9,9,0,0,1-4.93,1.24,8.81,8.81,0,0,1-5.25-1.44,7.69,7.69,0,0,1-2.81-4,24.38,24.38,0,0,1-.58-6.53Z" style="fill: #41b883"/>
            <path d="M930.75,158.66H914.87a5.28,5.28,0,0,0,1.84,3.35,5.78,5.78,0,0,0,3.81,1.24,6.58,6.58,0,0,0,4.76-1.94l4.17,2a9.89,9.89,0,0,1-3.73,3.27,11.76,11.76,0,0,1-5.16,1.05,10.21,10.21,0,0,1-7.56-2.92,10,10,0,0,1-2.91-7.33,10.28,10.28,0,0,1,2.9-7.49,9.79,9.79,0,0,1,7.29-3,10.17,10.17,0,0,1,7.58,3,10.79,10.79,0,0,1,2.91,7.87Zm-4.94-3.89a5,5,0,0,0-1.93-2.68,5.61,5.61,0,0,0-3.35-1,5.88,5.88,0,0,0-3.63,1.16,6.38,6.38,0,0,0-1.81,2.55Z" style="fill: #41b883"/>
            <path d="M937.46,161.92a2.77,2.77,0,0,1,2,.83,2.84,2.84,0,0,1-2,4.84,2.83,2.83,0,0,1-2-4.84A2.74,2.74,0,0,1,937.46,161.92Z" style="fill: #41b883"/>
            <path d="M945,147.38h5v20.36a12.17,12.17,0,0,1-.55,4.19,4.31,4.31,0,0,1-1.75,2.13,5.32,5.32,0,0,1-2.88.74,12,12,0,0,1-3.7-.74v-3.89a4.92,4.92,0,0,0,2.05.56,1.74,1.74,0,0,0,1.41-.56,3.31,3.31,0,0,0,.47-2.07Zm2.47-8.12a3.07,3.07,0,0,1,2.25.94,3.13,3.13,0,0,1,.93,2.28,3.09,3.09,0,0,1-.92,2.26,3.09,3.09,0,0,1-4.46,0,3.17,3.17,0,0,1-.94-2.31,3.07,3.07,0,0,1,.92-2.23A3,3,0,0,1,947.46,139.26Z" style="fill: #41b883"/>
            <path d="M966.84,150.13l-3.06,3.06a5.18,5.18,0,0,0-3.39-1.84,2.09,2.09,0,0,0-1.3.35,1,1,0,0,0-.47.88,1.07,1.07,0,0,0,.3.73,5.33,5.33,0,0,0,1.47.92l1.81.9a10.59,10.59,0,0,1,3.93,2.88,6,6,0,0,1-.86,7.83,7.38,7.38,0,0,1-5.17,1.75,8.22,8.22,0,0,1-6.88-3.36l3-3.32a7,7,0,0,0,2,1.64,4.46,4.46,0,0,0,2.07.62,2.44,2.44,0,0,0,1.58-.47,1.35,1.35,0,0,0,.6-1.08c0-.76-.72-1.51-2.16-2.23l-1.67-.83c-3.18-1.61-4.78-3.62-4.78-6a5.23,5.23,0,0,1,1.8-4,6.54,6.54,0,0,1,4.61-1.66,8,8,0,0,1,3.62.84A8.12,8.12,0,0,1,966.84,150.13Z" style="fill: #41b883"/>
          </g>
        </g>
      </g>
      <g>
        <g style="opacity: 0.2">
          <circle cx="1116.74" cy="64.4" r="60.72" style="stroke: #000;stroke-miterlimit: 10;stroke-width: 4px;stroke-dasharray: 4;opacity: 0.25"/>
          <rect x="1082.47" y="30.13" width="68.55" height="68.55" rx="2.74"/>
          <path d="M1099.22,63h21.88V69h-7.21V94.72h-7.65V69h-7Z"/>
          <path d="M1147,67.35l-5.58,3.94c-2-2.18-4-3.28-6-3.28a4.28,4.28,0,0,0-2.43.64,1.75,1.75,0,0,0-1,1.43,2.23,2.23,0,0,0,.67,1.51,49.52,49.52,0,0,0,5.54,4.07c2.87,1.92,4.61,3.14,5.22,3.64a13.19,13.19,0,0,1,3.25,3.54,7.36,7.36,0,0,1,1,3.69,7.76,7.76,0,0,1-3.37,6.44,14.14,14.14,0,0,1-8.78,2.54,15.62,15.62,0,0,1-7.37-1.65,14.29,14.29,0,0,1-5.37-5.22l6.33-3c1.9,2.8,4.1,4.2,6.57,4.2a5.67,5.67,0,0,0,3.27-.91,2.56,2.56,0,0,0,1.32-2.09,3.22,3.22,0,0,0-1-2.15,27.36,27.36,0,0,0-4.39-3.3q-6.48-4.22-8.36-6.51a7.23,7.23,0,0,1-1.89-4.58,6.93,6.93,0,0,1,3.14-5.65,12.55,12.55,0,0,1,7.75-2.36,14.8,14.8,0,0,1,5.64,1.1A20,20,0,0,1,1147,67.35Z"/>
          <path d="M1100.22,62h21.88V68h-7.21V93.72h-7.65V68h-7Z"/>
          <path d="M1148,66.35l-5.58,3.94c-2-2.18-4-3.28-6-3.28a4.28,4.28,0,0,0-2.43.64,1.75,1.75,0,0,0-1,1.43,2.23,2.23,0,0,0,.67,1.51,49.52,49.52,0,0,0,5.54,4.07c2.87,1.92,4.61,3.14,5.22,3.64a13.19,13.19,0,0,1,3.25,3.54,7.36,7.36,0,0,1,1,3.69,7.76,7.76,0,0,1-3.37,6.44,14.14,14.14,0,0,1-8.78,2.54,15.62,15.62,0,0,1-7.37-1.65,14.29,14.29,0,0,1-5.37-5.22l6.33-3c1.9,2.8,4.1,4.2,6.57,4.2a5.67,5.67,0,0,0,3.27-.91,2.56,2.56,0,0,0,1.32-2.09,3.22,3.22,0,0,0-1-2.15,27.36,27.36,0,0,0-4.39-3.3q-6.48-4.22-8.36-6.51a7.23,7.23,0,0,1-1.89-4.58,6.93,6.93,0,0,1,3.14-5.65,12.55,12.55,0,0,1,7.75-2.36,14.8,14.8,0,0,1,5.64,1.1A20,20,0,0,1,1148,66.35Z"/>
          <path d="M1027.18,141.44h14.73v5h-4.86v21.64h-5.14V146.44h-4.73Z"/>
          <path d="M1042.65,148.38h5.06l5.12,12.36,5.65-12.36h5.06l-12.34,26.91h-5.11l4.05-8.68Z"/>
          <path d="M1071.27,148.38v2.17a9.19,9.19,0,0,1,2.9-2,8.29,8.29,0,0,1,3.33-.67,8.62,8.62,0,0,1,6.56,2.91,10.6,10.6,0,0,1,2.7,7.49,10.32,10.32,0,0,1-2.79,7.36,8.81,8.81,0,0,1-6.61,3,8.07,8.07,0,0,1-3.17-.61,9.56,9.56,0,0,1-2.92-2v9.29h-4.91V148.38Zm5.2,4.05a5.15,5.15,0,0,0-3.88,1.6,5.76,5.76,0,0,0-1.54,4.16,6,6,0,0,0,1.54,4.25,5.13,5.13,0,0,0,3.88,1.62,5,5,0,0,0,3.81-1.65,6.46,6.46,0,0,0,0-8.36A5.06,5.06,0,0,0,1076.47,152.43Z"/>
          <path d="M1110.6,159.66h-15.89a5.25,5.25,0,0,0,1.84,3.34,5.76,5.76,0,0,0,3.81,1.24,6.61,6.61,0,0,0,4.77-1.93l4.16,1.95a9.72,9.72,0,0,1-3.73,3.27,11.62,11.62,0,0,1-5.16,1.06,10.23,10.23,0,0,1-7.56-2.92,10,10,0,0,1-2.91-7.33,10.27,10.27,0,0,1,2.91-7.49,9.73,9.73,0,0,1,7.29-3,10.12,10.12,0,0,1,7.57,3,10.78,10.78,0,0,1,2.92,7.87Zm-4.95-3.89a5,5,0,0,0-1.93-2.69,5.66,5.66,0,0,0-3.35-1,5.94,5.94,0,0,0-3.63,1.16,6.43,6.43,0,0,0-1.81,2.56Z"/>
          <path d="M1126.67,151.13l-3.07,3.06a5.18,5.18,0,0,0-3.38-1.85,2.12,2.12,0,0,0-1.31.36,1,1,0,0,0-.47.87,1.1,1.1,0,0,0,.3.74,5.49,5.49,0,0,0,1.48.91l1.81.91A10.59,10.59,0,0,1,1126,159a6,6,0,0,1-.86,7.82,7.35,7.35,0,0,1-5.17,1.76,8.22,8.22,0,0,1-6.89-3.37l3-3.31a7.15,7.15,0,0,0,2,1.64,4.58,4.58,0,0,0,2.08.62,2.47,2.47,0,0,0,1.57-.47,1.36,1.36,0,0,0,.6-1.09c0-.76-.72-1.5-2.15-2.23l-1.67-.83c-3.19-1.6-4.78-3.62-4.78-6a5.22,5.22,0,0,1,1.8-4,6.52,6.52,0,0,1,4.61-1.66,8,8,0,0,1,6.49,3.26Z"/>
          <path d="M1150.22,152.36l-4.12,2.26a7.07,7.07,0,0,0-2.3-1.68,6.93,6.93,0,0,0-2.65-.47,6.2,6.2,0,0,0-4.49,1.65,5.67,5.67,0,0,0-1.72,4.25,5.45,5.45,0,0,0,1.65,4.1,6,6,0,0,0,4.34,1.59,6.3,6.3,0,0,0,5.17-2.26l3.9,2.67a12,12,0,0,1-17.09,1,10.06,10.06,0,0,1-3-7.21,10.15,10.15,0,0,1,5.43-9.06,12,12,0,0,1,5.73-1.37,11.57,11.57,0,0,1,5.27,1.17A10,10,0,0,1,1150.22,152.36Z"/>
          <path d="M1153.51,148.38h4.24v2.48a5.32,5.32,0,0,1,1.83-2.23,4.4,4.4,0,0,1,2.5-.76,4.6,4.6,0,0,1,2,.51l-1.54,4.25a3.36,3.36,0,0,0-1.43-.43,2.27,2.27,0,0,0-1.93,1.41c-.52.94-.79,2.79-.79,5.54l0,1v8h-4.91Z"/>
          <path d="M1168.47,140.26a3,3,0,0,1,2.23.94,3.25,3.25,0,0,1,0,4.54,3.12,3.12,0,0,1-4.46,0,3.17,3.17,0,0,1-.93-2.31,3.14,3.14,0,0,1,3.15-3.15Zm-2.48,8.12h5v19.7h-5Z"/>
          <path d="M1180.34,148.38v2.17a9.19,9.19,0,0,1,2.9-2,8.29,8.29,0,0,1,3.33-.67,8.62,8.62,0,0,1,6.56,2.91,10.6,10.6,0,0,1,2.7,7.49,10.32,10.32,0,0,1-2.79,7.36,8.79,8.79,0,0,1-6.61,3,8.1,8.1,0,0,1-3.17-.61,9.56,9.56,0,0,1-2.92-2v9.29h-4.91V148.38Zm5.2,4.05a5.15,5.15,0,0,0-3.88,1.6,5.76,5.76,0,0,0-1.54,4.16,6,6,0,0,0,1.54,4.25,5.13,5.13,0,0,0,3.88,1.62,5,5,0,0,0,3.81-1.65,6.46,6.46,0,0,0,0-8.36A5,5,0,0,0,1185.54,152.43Z"/>
          <path d="M1200.52,141.11h5v7.27h2.93v4.25h-2.93v15.45h-5V152.63H1198v-4.25h2.54Z"/>
        </g>
        <g>
          <g>
            <circle cx="1117.74" cy="63.4" r="60.72" style="fill: #5493d6;stroke: #5493d6;stroke-miterlimit: 10;stroke-width: 4px;stroke-dasharray: 4;opacity: 0.25"/>
            <g>
              <rect x="1083.47" y="29.13" width="68.55" height="68.55" rx="2.74" style="fill: #2f74c0"/>
              <g>
                <g style="opacity: 0.2">
                  <path d="M1100.22,62h21.88V68h-7.21V93.72h-7.65V68h-7Z"/>
                  <path d="M1148,66.35l-5.58,3.94c-2-2.18-4-3.28-6-3.28a4.28,4.28,0,0,0-2.43.64,1.75,1.75,0,0,0-1,1.43,2.23,2.23,0,0,0,.67,1.51,49.52,49.52,0,0,0,5.54,4.07c2.87,1.92,4.61,3.14,5.22,3.64a13.19,13.19,0,0,1,3.25,3.54,7.36,7.36,0,0,1,1,3.69,7.76,7.76,0,0,1-3.37,6.44,14.14,14.14,0,0,1-8.78,2.54,15.62,15.62,0,0,1-7.37-1.65,14.29,14.29,0,0,1-5.37-5.22l6.33-3c1.9,2.8,4.1,4.2,6.57,4.2a5.67,5.67,0,0,0,3.27-.91,2.56,2.56,0,0,0,1.32-2.09,3.22,3.22,0,0,0-1-2.15,27.36,27.36,0,0,0-4.39-3.3q-6.48-4.22-8.36-6.51a7.23,7.23,0,0,1-1.89-4.58,6.93,6.93,0,0,1,3.14-5.65,12.55,12.55,0,0,1,7.75-2.36,14.8,14.8,0,0,1,5.64,1.1A20,20,0,0,1,1148,66.35Z"/>
                </g>
                <g>
                  <path d="M1101.22,61h21.88V67h-7.21V92.72h-7.65V67h-7Z" style="fill: #fff"/>
                  <path d="M1149,65.35l-5.58,3.94c-2-2.18-4-3.28-6-3.28a4.28,4.28,0,0,0-2.43.64,1.75,1.75,0,0,0-1,1.43,2.23,2.23,0,0,0,.67,1.51,49.52,49.52,0,0,0,5.54,4.07c2.87,1.92,4.61,3.14,5.22,3.64a13.19,13.19,0,0,1,3.25,3.54,7.36,7.36,0,0,1,1,3.69,7.76,7.76,0,0,1-3.37,6.44,14.14,14.14,0,0,1-8.78,2.54,15.62,15.62,0,0,1-7.37-1.65,14.29,14.29,0,0,1-5.37-5.22l6.33-3c1.9,2.8,4.1,4.2,6.57,4.2a5.67,5.67,0,0,0,3.27-.91,2.56,2.56,0,0,0,1.32-2.09,3.22,3.22,0,0,0-1-2.15,27.36,27.36,0,0,0-4.39-3.3q-6.48-4.22-8.36-6.51a7.23,7.23,0,0,1-1.89-4.58,6.93,6.93,0,0,1,3.14-5.65,12.55,12.55,0,0,1,7.75-2.36,14.8,14.8,0,0,1,5.64,1.1A20,20,0,0,1,1149,65.35Z" style="fill: #fff"/>
                </g>
              </g>
            </g>
          </g>
          <g>
            <path d="M1028.18,140.44h14.73v5h-4.86v21.64h-5.14V145.44h-4.73Z" style="fill: #2f74c0"/>
            <path d="M1043.65,147.38h5.06l5.12,12.36,5.65-12.36h5.06l-12.34,26.91h-5.11l4.05-8.68Z" style="fill: #2f74c0"/>
            <path d="M1072.27,147.38v2.17a9.19,9.19,0,0,1,2.9-2,8.29,8.29,0,0,1,3.33-.67,8.62,8.62,0,0,1,6.56,2.91,10.6,10.6,0,0,1,2.7,7.49,10.32,10.32,0,0,1-2.79,7.36,8.81,8.81,0,0,1-6.61,3,8.07,8.07,0,0,1-3.17-.61,9.56,9.56,0,0,1-2.92-2v9.29h-4.91V147.38Zm5.2,4.05a5.15,5.15,0,0,0-3.88,1.6,5.76,5.76,0,0,0-1.54,4.16,6,6,0,0,0,1.54,4.25,5.13,5.13,0,0,0,3.88,1.62,5,5,0,0,0,3.81-1.65,6.46,6.46,0,0,0,0-8.36A5.06,5.06,0,0,0,1077.47,151.43Z" style="fill: #2f74c0"/>
            <path d="M1111.6,158.66h-15.89a5.25,5.25,0,0,0,1.84,3.34,5.76,5.76,0,0,0,3.81,1.24,6.61,6.61,0,0,0,4.77-1.93l4.16,1.95a9.72,9.72,0,0,1-3.73,3.27,11.62,11.62,0,0,1-5.16,1.06,10.23,10.23,0,0,1-7.56-2.92,10,10,0,0,1-2.91-7.33,10.27,10.27,0,0,1,2.91-7.49,9.73,9.73,0,0,1,7.29-3,10.12,10.12,0,0,1,7.57,3,10.78,10.78,0,0,1,2.92,7.87Zm-4.95-3.89a5,5,0,0,0-1.93-2.69,5.66,5.66,0,0,0-3.35-1,5.94,5.94,0,0,0-3.63,1.16,6.43,6.43,0,0,0-1.81,2.56Z" style="fill: #2f74c0"/>
            <path d="M1127.67,150.13l-3.07,3.06a5.18,5.18,0,0,0-3.38-1.85,2.12,2.12,0,0,0-1.31.36,1,1,0,0,0-.47.87,1.1,1.1,0,0,0,.3.74,5.49,5.49,0,0,0,1.48.91l1.81.91A10.59,10.59,0,0,1,1127,158a6,6,0,0,1-.86,7.82,7.35,7.35,0,0,1-5.17,1.76,8.22,8.22,0,0,1-6.89-3.37l3-3.31a7.15,7.15,0,0,0,2,1.64,4.58,4.58,0,0,0,2.08.62,2.47,2.47,0,0,0,1.57-.47,1.36,1.36,0,0,0,.6-1.09c0-.76-.72-1.5-2.15-2.23l-1.67-.83c-3.19-1.6-4.78-3.62-4.78-6a5.22,5.22,0,0,1,1.8-4,6.52,6.52,0,0,1,4.61-1.66,8,8,0,0,1,6.49,3.26Z" style="fill: #2f74c0"/>
            <path d="M1151.22,151.36l-4.12,2.26a7.07,7.07,0,0,0-2.3-1.68,6.93,6.93,0,0,0-2.65-.47,6.2,6.2,0,0,0-4.49,1.65,5.67,5.67,0,0,0-1.72,4.25,5.45,5.45,0,0,0,1.65,4.1,6,6,0,0,0,4.34,1.59,6.3,6.3,0,0,0,5.17-2.26l3.9,2.67a12,12,0,0,1-17.09,1,10.06,10.06,0,0,1-3-7.21,10.15,10.15,0,0,1,5.43-9.06,12,12,0,0,1,5.73-1.37,11.57,11.57,0,0,1,5.27,1.17A10,10,0,0,1,1151.22,151.36Z" style="fill: #2f74c0"/>
            <path d="M1154.51,147.38h4.24v2.48a5.32,5.32,0,0,1,1.83-2.23,4.4,4.4,0,0,1,2.5-.76,4.6,4.6,0,0,1,2,.51l-1.54,4.25a3.36,3.36,0,0,0-1.43-.43,2.27,2.27,0,0,0-1.93,1.41c-.52.94-.79,2.79-.79,5.54l0,1v8h-4.91Z" style="fill: #2f74c0"/>
            <path d="M1169.47,139.26a3,3,0,0,1,2.23.94,3.25,3.25,0,0,1,0,4.54,3.12,3.12,0,0,1-4.46,0,3.17,3.17,0,0,1-.93-2.31,3.14,3.14,0,0,1,3.15-3.15Zm-2.48,8.12h5v19.7h-5Z" style="fill: #2f74c0"/>
            <path d="M1181.34,147.38v2.17a9.19,9.19,0,0,1,2.9-2,8.29,8.29,0,0,1,3.33-.67,8.62,8.62,0,0,1,6.56,2.91,10.6,10.6,0,0,1,2.7,7.49,10.32,10.32,0,0,1-2.79,7.36,8.79,8.79,0,0,1-6.61,3,8.1,8.1,0,0,1-3.17-.61,9.56,9.56,0,0,1-2.92-2v9.29h-4.91V147.38Zm5.2,4.05a5.15,5.15,0,0,0-3.88,1.6,5.76,5.76,0,0,0-1.54,4.16,6,6,0,0,0,1.54,4.25,5.13,5.13,0,0,0,3.88,1.62,5,5,0,0,0,3.81-1.65,6.46,6.46,0,0,0,0-8.36A5,5,0,0,0,1186.54,151.43Z" style="fill: #2f74c0"/>
            <path d="M1201.52,140.11h5v7.27h2.93v4.25h-2.93v15.45h-5V151.63H1199v-4.25h2.54Z" style="fill: #2f74c0"/>
          </g>
        </g>
      </g>
      <g>
        <g style="opacity: 0.2">
          <circle cx="268.65" cy="63.72" r="60.72" style="stroke: #000;stroke-miterlimit: 10;stroke-width: 4px;stroke-dasharray: 4;opacity: 0.25"/>
          <path d="M259.07,58.44l33-19.81-.1-.1c-11.6-8.61-29.7-14.19-49.88-14.19v23.1" style="fill: none;stroke: #000;stroke-linecap: round;stroke-linejoin: round;stroke-width: 2px"/>
          <path d="M276,74.47l-34-21.69V97.25a98.37,98.37,0,0,0,34.23-5.88" style="fill: none;stroke: #000;stroke-linecap: round;stroke-linejoin: round;stroke-width: 2px"/>
          <path d="M279.82,51.85c-.19.41.26,28.68,0,36.31a1.3,1.3,0,0,0,1.83,1.11C307,79.21,317.3,58,295.93,41.83" style="fill: none;stroke: #000;stroke-linecap: round;stroke-linejoin: round;stroke-width: 2px"/>
          <path d="M234.44,155.12a16.11,16.11,0,0,1-.84,5.52,9.3,9.3,0,0,1-2.42,3.74,9.63,9.63,0,0,1-3.83,2.13,18.86,18.86,0,0,1-5.37.68h-5.6a1.49,1.49,0,0,1-1-.35,1.43,1.43,0,0,1-.41-1.15V145.25a1.43,1.43,0,0,1,.41-1.15,1.49,1.49,0,0,1,1-.35h6a16.79,16.79,0,0,1,5.32.73,9.66,9.66,0,0,1,3.68,2.18,9.23,9.23,0,0,1,2.27,3.56A14.15,14.15,0,0,1,234.44,155.12Zm-4.93.17a11.75,11.75,0,0,0-.39-3.1,6.53,6.53,0,0,0-1.25-2.48,5.75,5.75,0,0,0-2.21-1.64,9,9,0,0,0-3.54-.59h-2.41v15.94h2.49a9.28,9.28,0,0,0,3.29-.51,5.34,5.34,0,0,0,2.24-1.53,6.62,6.62,0,0,0,1.34-2.54A12.62,12.62,0,0,0,229.51,155.29Z"/>
          <path d="M251.85,166.63a.49.49,0,0,1-.18.4,1.29,1.29,0,0,1-.57.2,6.63,6.63,0,0,1-1.15.07,6.78,6.78,0,0,1-1.19-.07,1,1,0,0,1-.52-.2.51.51,0,0,1-.16-.4v-1.29a7.37,7.37,0,0,1-2.27,1.67,6.6,6.6,0,0,1-2.84.6,8.06,8.06,0,0,1-2.36-.34,5.18,5.18,0,0,1-1.87-1,4.47,4.47,0,0,1-1.22-1.64,5.55,5.55,0,0,1-.43-2.28,5.12,5.12,0,0,1,.55-2.45,4.45,4.45,0,0,1,1.65-1.72,8.12,8.12,0,0,1,2.72-1,19.36,19.36,0,0,1,3.79-.32h1.58v-1a5.21,5.21,0,0,0-.16-1.33,2.22,2.22,0,0,0-.51-1,2.09,2.09,0,0,0-.94-.56,5.05,5.05,0,0,0-1.46-.18,7.35,7.35,0,0,0-2,.26,11.23,11.23,0,0,0-1.59.56c-.46.2-.84.39-1.15.56a1.67,1.67,0,0,1-.75.25.55.55,0,0,1-.35-.12.94.94,0,0,1-.26-.37,2.43,2.43,0,0,1-.15-.58,4.42,4.42,0,0,1-.06-.76,3.39,3.39,0,0,1,.09-.88,1.33,1.33,0,0,1,.35-.59,3.16,3.16,0,0,1,.89-.58,10.12,10.12,0,0,1,1.48-.59,14.92,14.92,0,0,1,1.86-.45,13.72,13.72,0,0,1,5.32.2,5.56,5.56,0,0,1,2.22,1.14,4.44,4.44,0,0,1,1.27,2,9.15,9.15,0,0,1,.4,2.88Zm-4.47-6.92h-1.74a9.32,9.32,0,0,0-1.89.16,3.62,3.62,0,0,0-1.27.49,2,2,0,0,0-.71.79,2.39,2.39,0,0,0-.23,1.06,2,2,0,0,0,.65,1.59,2.53,2.53,0,0,0,1.78.58,3.33,3.33,0,0,0,1.77-.49,7.37,7.37,0,0,0,1.64-1.43Z"/>
          <path d="M272.66,158.26a14.91,14.91,0,0,1-.46,3.88,8.82,8.82,0,0,1-1.35,3,5.91,5.91,0,0,1-2.21,1.86,6.67,6.67,0,0,1-3,.66,5.82,5.82,0,0,1-1.3-.14,4.9,4.9,0,0,1-1.14-.42,7.38,7.38,0,0,1-1.1-.69c-.36-.28-.73-.61-1.12-1V173a.46.46,0,0,1-.11.32.77.77,0,0,1-.37.25,3.78,3.78,0,0,1-.7.15,8.23,8.23,0,0,1-1.1.06,8.39,8.39,0,0,1-1.11-.06,3.65,3.65,0,0,1-.69-.15.77.77,0,0,1-.37-.25.46.46,0,0,1-.11-.32V150.41a.54.54,0,0,1,.09-.31.65.65,0,0,1,.31-.23,3,3,0,0,1,.6-.14c.25,0,.56,0,.93,0s.67,0,.92,0a3,3,0,0,1,.6.14.65.65,0,0,1,.31.23.55.55,0,0,1,.1.31v1.91a15.87,15.87,0,0,1,1.38-1.28,7.77,7.77,0,0,1,1.39-.92,6,6,0,0,1,1.46-.56,6.82,6.82,0,0,1,1.6-.18,6,6,0,0,1,3,.7,5.58,5.58,0,0,1,2,1.91,8.46,8.46,0,0,1,1.15,2.83A15.72,15.72,0,0,1,272.66,158.26Zm-4.74.32a11.67,11.67,0,0,0-.16-2,5.67,5.67,0,0,0-.52-1.69,3.3,3.3,0,0,0-1-1.19,2.46,2.46,0,0,0-1.51-.44,3.11,3.11,0,0,0-.9.13,3.16,3.16,0,0,0-.9.45,6.44,6.44,0,0,0-1,.79,11.65,11.65,0,0,0-1,1.22v5.32a10.63,10.63,0,0,0,1.83,1.88,3,3,0,0,0,1.81.66,2.55,2.55,0,0,0,1.52-.45,3.7,3.7,0,0,0,1-1.19,6.26,6.26,0,0,0,.59-1.66A9.6,9.6,0,0,0,267.92,158.58Z"/>
          <path d="M292.57,158.26a14.91,14.91,0,0,1-.46,3.88,8.82,8.82,0,0,1-1.35,3,5.91,5.91,0,0,1-2.21,1.86,6.67,6.67,0,0,1-3,.66,5.76,5.76,0,0,1-1.3-.14,4.9,4.9,0,0,1-1.14-.42,7.38,7.38,0,0,1-1.1-.69c-.36-.28-.73-.61-1.12-1V173a.52.52,0,0,1-.11.32.77.77,0,0,1-.37.25,3.78,3.78,0,0,1-.7.15,10.21,10.21,0,0,1-2.21,0,3.65,3.65,0,0,1-.69-.15.87.87,0,0,1-.38-.25.51.51,0,0,1-.1-.32V150.41a.54.54,0,0,1,.09-.31.65.65,0,0,1,.31-.23,3,3,0,0,1,.6-.14c.25,0,.56,0,.93,0s.67,0,.92,0a3,3,0,0,1,.6.14.65.65,0,0,1,.31.23.54.54,0,0,1,.09.31v1.91a15.92,15.92,0,0,1,1.39-1.28,7.43,7.43,0,0,1,1.39-.92,6.12,6.12,0,0,1,1.45-.56,6.91,6.91,0,0,1,1.61-.18,6,6,0,0,1,3,.7,5.66,5.66,0,0,1,2,1.91,8.46,8.46,0,0,1,1.15,2.83A15.72,15.72,0,0,1,292.57,158.26Zm-4.74.32a12.8,12.8,0,0,0-.16-2,6,6,0,0,0-.52-1.69,3.3,3.3,0,0,0-1-1.19,2.48,2.48,0,0,0-1.51-.44,3.06,3.06,0,0,0-.9.13,3.34,3.34,0,0,0-.91.45,7,7,0,0,0-1,.79,11.65,11.65,0,0,0-1,1.22v5.32a10.63,10.63,0,0,0,1.83,1.88,3,3,0,0,0,1.81.66,2.5,2.5,0,0,0,1.51-.45,3.61,3.61,0,0,0,1-1.19,6.26,6.26,0,0,0,.59-1.66A9.6,9.6,0,0,0,287.83,158.58Z"/>
          <path d="M311.14,158a1.72,1.72,0,0,1-.37,1.23,1.32,1.32,0,0,1-1,.4h-9.84a6.86,6.86,0,0,0,.24,1.88,3.74,3.74,0,0,0,.78,1.43,3.53,3.53,0,0,0,1.38.9,6,6,0,0,0,2,.3,10.88,10.88,0,0,0,2.1-.17,13,13,0,0,0,1.57-.38c.44-.14.8-.26,1.09-.38a2.16,2.16,0,0,1,.71-.17.54.54,0,0,1,.27.06.49.49,0,0,1,.18.23,1.51,1.51,0,0,1,.1.46q0,.3,0,.75c0,.27,0,.49,0,.68a4.77,4.77,0,0,1-.05.48,1.23,1.23,0,0,1-.11.34,1.15,1.15,0,0,1-.19.26,2.21,2.21,0,0,1-.64.34,10.16,10.16,0,0,1-1.34.43,17.83,17.83,0,0,1-1.87.36,15.88,15.88,0,0,1-2.25.16,11.93,11.93,0,0,1-3.77-.55,6.49,6.49,0,0,1-4.33-4.44,12.9,12.9,0,0,1-.54-3.94,12.68,12.68,0,0,1,.56-3.89,8.25,8.25,0,0,1,1.63-2.93,7,7,0,0,1,2.6-1.84,8.8,8.8,0,0,1,3.45-.64,9,9,0,0,1,3.47.6,6.3,6.3,0,0,1,2.37,1.66,6.7,6.7,0,0,1,1.36,2.51,10.86,10.86,0,0,1,.43,3.15Zm-4.42-1.3a4.67,4.67,0,0,0-.77-3,3,3,0,0,0-2.54-1.09,3.44,3.44,0,0,0-1.52.32,3.16,3.16,0,0,0-1.07.88,4.12,4.12,0,0,0-.65,1.31,6.3,6.3,0,0,0-.26,1.6Z"/>
          <path d="M325.27,151.92a10.63,10.63,0,0,1,0,1.07,3.73,3.73,0,0,1-.1.65.64.64,0,0,1-.2.33.44.44,0,0,1-.29.09.85.85,0,0,1-.33-.07l-.41-.13a4.39,4.39,0,0,0-.5-.14,2.74,2.74,0,0,0-.59-.06,2,2,0,0,0-.76.15,2.93,2.93,0,0,0-.79.48,5.89,5.89,0,0,0-.85.87,12.13,12.13,0,0,0-1,1.34v10.07a.52.52,0,0,1-.11.32.87.87,0,0,1-.37.23,3.38,3.38,0,0,1-.7.13,12.24,12.24,0,0,1-2.21,0,3.38,3.38,0,0,1-.7-.13.81.81,0,0,1-.37-.23.52.52,0,0,1-.11-.32V150.41a.54.54,0,0,1,.09-.31.67.67,0,0,1,.33-.23,3.14,3.14,0,0,1,.6-.14c.25,0,.56,0,.94,0s.7,0,1,0a2.7,2.7,0,0,1,.59.14.69.69,0,0,1,.29.23.54.54,0,0,1,.09.31v2a13.51,13.51,0,0,1,1.2-1.5,6.62,6.62,0,0,1,1.07-.93,3.43,3.43,0,0,1,1-.48,4,4,0,0,1,1-.14l.51,0,.56.09a3.88,3.88,0,0,1,.5.14,1.13,1.13,0,0,1,.32.18.48.48,0,0,1,.15.2,2.24,2.24,0,0,1,.08.29,5.2,5.2,0,0,1,.05.58C325.26,151.14,325.27,151.48,325.27,151.92Z"/>
        </g>
        <g>
          <g>
            <circle cx="269.65" cy="62.72" r="60.72" style="fill: #004c89;stroke: #004c89;stroke-miterlimit: 10;stroke-width: 4px;stroke-dasharray: 4;opacity: 0.25"/>
            <g>
              <path d="M260.07,57.44l33-19.81-.1-.1c-11.6-8.61-29.7-14.19-49.88-14.19v23.1" style="fill: none;stroke: #f68121;stroke-linecap: round;stroke-linejoin: round;stroke-width: 2px"/>
              <path d="M277,73.47l-34-21.69V96.25a98.37,98.37,0,0,0,34.23-5.88" style="fill: none;stroke: #ee0f6a;stroke-linecap: round;stroke-linejoin: round;stroke-width: 2px"/>
              <path d="M280.82,50.85c-.19.41.26,28.68,0,36.31a1.3,1.3,0,0,0,1.83,1.11C308,78.21,318.3,57,296.93,40.83" style="fill: none;stroke: #00abc5;stroke-linecap: round;stroke-linejoin: round;stroke-width: 2px"/>
            </g>
          </g>
          <g>
            <path d="M235.44,154.12a16.11,16.11,0,0,1-.84,5.52,9.3,9.3,0,0,1-2.42,3.74,9.63,9.63,0,0,1-3.83,2.13,18.86,18.86,0,0,1-5.37.68h-5.6a1.49,1.49,0,0,1-1-.35,1.43,1.43,0,0,1-.41-1.15V144.25a1.43,1.43,0,0,1,.41-1.15,1.49,1.49,0,0,1,1-.35h6a16.79,16.79,0,0,1,5.32.73,9.66,9.66,0,0,1,3.68,2.18,9.23,9.23,0,0,1,2.27,3.56A14.15,14.15,0,0,1,235.44,154.12Zm-4.93.17a11.75,11.75,0,0,0-.39-3.1,6.53,6.53,0,0,0-1.25-2.48,5.75,5.75,0,0,0-2.21-1.64,9,9,0,0,0-3.54-.59h-2.41v15.94h2.49a9.28,9.28,0,0,0,3.29-.51,5.34,5.34,0,0,0,2.24-1.53,6.62,6.62,0,0,0,1.34-2.54A12.62,12.62,0,0,0,230.51,154.29Z" style="fill: #4386f6"/>
            <path d="M252.85,165.63a.49.49,0,0,1-.18.4,1.29,1.29,0,0,1-.57.2,6.63,6.63,0,0,1-1.15.07,6.78,6.78,0,0,1-1.19-.07,1,1,0,0,1-.52-.2.51.51,0,0,1-.16-.4v-1.29a7.37,7.37,0,0,1-2.27,1.67,6.6,6.6,0,0,1-2.84.6,8.06,8.06,0,0,1-2.36-.34,5.18,5.18,0,0,1-1.87-1,4.47,4.47,0,0,1-1.22-1.64,5.55,5.55,0,0,1-.43-2.28,5.12,5.12,0,0,1,.55-2.45,4.45,4.45,0,0,1,1.65-1.72,8.12,8.12,0,0,1,2.72-1,19.36,19.36,0,0,1,3.79-.32h1.58v-1a5.21,5.21,0,0,0-.16-1.33,2.22,2.22,0,0,0-.51-1,2.09,2.09,0,0,0-.94-.56,5.05,5.05,0,0,0-1.46-.18,7.35,7.35,0,0,0-2,.26,11.23,11.23,0,0,0-1.59.56c-.46.2-.84.39-1.15.56a1.67,1.67,0,0,1-.75.25.55.55,0,0,1-.35-.12.94.94,0,0,1-.26-.37,2.43,2.43,0,0,1-.15-.58,4.42,4.42,0,0,1-.06-.76,3.39,3.39,0,0,1,.09-.88,1.33,1.33,0,0,1,.35-.59,3.16,3.16,0,0,1,.89-.58,10.12,10.12,0,0,1,1.48-.59,14.92,14.92,0,0,1,1.86-.45,13.72,13.72,0,0,1,5.32.2,5.56,5.56,0,0,1,2.22,1.14,4.44,4.44,0,0,1,1.27,2,9.15,9.15,0,0,1,.4,2.88Zm-4.47-6.92h-1.74a9.32,9.32,0,0,0-1.89.16,3.62,3.62,0,0,0-1.27.49,2,2,0,0,0-.71.79,2.39,2.39,0,0,0-.23,1.06,2,2,0,0,0,.65,1.59,2.53,2.53,0,0,0,1.78.58,3.33,3.33,0,0,0,1.77-.49,7.37,7.37,0,0,0,1.64-1.43Z" style="fill: #4386f6"/>
            <path d="M273.66,157.26a14.91,14.91,0,0,1-.46,3.88,8.82,8.82,0,0,1-1.35,3,5.91,5.91,0,0,1-2.21,1.86,6.67,6.67,0,0,1-3,.66,5.82,5.82,0,0,1-1.3-.14,4.9,4.9,0,0,1-1.14-.42,7.38,7.38,0,0,1-1.1-.69c-.36-.28-.73-.61-1.12-1V172a.46.46,0,0,1-.11.32.77.77,0,0,1-.37.25,3.78,3.78,0,0,1-.7.15,8.23,8.23,0,0,1-1.1.06,8.39,8.39,0,0,1-1.11-.06,3.65,3.65,0,0,1-.69-.15.77.77,0,0,1-.37-.25.46.46,0,0,1-.11-.32V149.41a.54.54,0,0,1,.09-.31.65.65,0,0,1,.31-.23,3,3,0,0,1,.6-.14c.25,0,.56,0,.93,0s.67,0,.92,0a3,3,0,0,1,.6.14.65.65,0,0,1,.31.23.55.55,0,0,1,.1.31v1.91a15.87,15.87,0,0,1,1.38-1.28,7.77,7.77,0,0,1,1.39-.92,6,6,0,0,1,1.46-.56,6.82,6.82,0,0,1,1.6-.18,6,6,0,0,1,3,.7,5.58,5.58,0,0,1,2,1.91,8.46,8.46,0,0,1,1.15,2.83A15.72,15.72,0,0,1,273.66,157.26Zm-4.74.32a11.67,11.67,0,0,0-.16-2,5.67,5.67,0,0,0-.52-1.69,3.3,3.3,0,0,0-1-1.19,2.46,2.46,0,0,0-1.51-.44,3.11,3.11,0,0,0-.9.13,3.16,3.16,0,0,0-.9.45,6.44,6.44,0,0,0-1,.79,11.65,11.65,0,0,0-1,1.22v5.32a10.63,10.63,0,0,0,1.83,1.88,3,3,0,0,0,1.81.66,2.55,2.55,0,0,0,1.52-.45,3.7,3.7,0,0,0,1-1.19,6.26,6.26,0,0,0,.59-1.66A9.6,9.6,0,0,0,268.92,157.58Z" style="fill: #4386f6"/>
            <path d="M293.57,157.26a14.91,14.91,0,0,1-.46,3.88,8.82,8.82,0,0,1-1.35,3,5.91,5.91,0,0,1-2.21,1.86,6.67,6.67,0,0,1-3,.66,5.76,5.76,0,0,1-1.3-.14,4.9,4.9,0,0,1-1.14-.42,7.38,7.38,0,0,1-1.1-.69c-.36-.28-.73-.61-1.12-1V172a.52.52,0,0,1-.11.32.77.77,0,0,1-.37.25,3.78,3.78,0,0,1-.7.15,10.21,10.21,0,0,1-2.21,0,3.65,3.65,0,0,1-.69-.15.87.87,0,0,1-.38-.25.51.51,0,0,1-.1-.32V149.41a.54.54,0,0,1,.09-.31.65.65,0,0,1,.31-.23,3,3,0,0,1,.6-.14c.25,0,.56,0,.93,0s.67,0,.92,0a3,3,0,0,1,.6.14.65.65,0,0,1,.31.23.54.54,0,0,1,.09.31v1.91a15.92,15.92,0,0,1,1.39-1.28,7.43,7.43,0,0,1,1.39-.92,6.12,6.12,0,0,1,1.45-.56,6.91,6.91,0,0,1,1.61-.18,6,6,0,0,1,3,.7,5.66,5.66,0,0,1,2,1.91,8.46,8.46,0,0,1,1.15,2.83A15.72,15.72,0,0,1,293.57,157.26Zm-4.74.32a12.8,12.8,0,0,0-.16-2,6,6,0,0,0-.52-1.69,3.3,3.3,0,0,0-1-1.19,2.48,2.48,0,0,0-1.51-.44,3.06,3.06,0,0,0-.9.13,3.34,3.34,0,0,0-.91.45,7,7,0,0,0-1,.79,11.65,11.65,0,0,0-1,1.22v5.32a10.63,10.63,0,0,0,1.83,1.88,3,3,0,0,0,1.81.66,2.5,2.5,0,0,0,1.51-.45,3.61,3.61,0,0,0,1-1.19,6.26,6.26,0,0,0,.59-1.66A9.6,9.6,0,0,0,288.83,157.58Z" style="fill: #4386f6"/>
            <path d="M312.14,157a1.72,1.72,0,0,1-.37,1.23,1.32,1.32,0,0,1-1,.4h-9.84a6.86,6.86,0,0,0,.24,1.88,3.74,3.74,0,0,0,.78,1.43,3.53,3.53,0,0,0,1.38.9,6,6,0,0,0,2,.3,10.88,10.88,0,0,0,2.1-.17,13,13,0,0,0,1.57-.38c.44-.14.8-.26,1.09-.38a2.16,2.16,0,0,1,.71-.17.54.54,0,0,1,.27.06.49.49,0,0,1,.18.23,1.51,1.51,0,0,1,.1.46q0,.3,0,.75c0,.27,0,.49,0,.68a4.77,4.77,0,0,1-.05.48,1.23,1.23,0,0,1-.11.34,1.15,1.15,0,0,1-.19.26,2.21,2.21,0,0,1-.64.34,10.16,10.16,0,0,1-1.34.43,17.83,17.83,0,0,1-1.87.36,15.88,15.88,0,0,1-2.25.16,11.93,11.93,0,0,1-3.77-.55,6.49,6.49,0,0,1-4.33-4.44,12.9,12.9,0,0,1-.54-3.94,12.68,12.68,0,0,1,.56-3.89,8.25,8.25,0,0,1,1.63-2.93,7,7,0,0,1,2.6-1.84,8.8,8.8,0,0,1,3.45-.64,9,9,0,0,1,3.47.6,6.3,6.3,0,0,1,2.37,1.66,6.7,6.7,0,0,1,1.36,2.51,10.86,10.86,0,0,1,.43,3.15Zm-4.42-1.3a4.67,4.67,0,0,0-.77-3,3,3,0,0,0-2.54-1.09,3.44,3.44,0,0,0-1.52.32,3.16,3.16,0,0,0-1.07.88,4.12,4.12,0,0,0-.65,1.31,6.3,6.3,0,0,0-.26,1.6Z" style="fill: #4386f6"/>
            <path d="M326.27,150.92a10.63,10.63,0,0,1,0,1.07,3.73,3.73,0,0,1-.1.65.64.64,0,0,1-.2.33.44.44,0,0,1-.29.09.85.85,0,0,1-.33-.07l-.41-.13a4.39,4.39,0,0,0-.5-.14,2.74,2.74,0,0,0-.59-.06,2,2,0,0,0-.76.15,2.93,2.93,0,0,0-.79.48,5.89,5.89,0,0,0-.85.87,12.13,12.13,0,0,0-1,1.34v10.07a.52.52,0,0,1-.11.32.87.87,0,0,1-.37.23,3.38,3.38,0,0,1-.7.13,12.24,12.24,0,0,1-2.21,0,3.38,3.38,0,0,1-.7-.13.81.81,0,0,1-.37-.23.52.52,0,0,1-.11-.32V149.41a.54.54,0,0,1,.09-.31.67.67,0,0,1,.33-.23,3.14,3.14,0,0,1,.6-.14c.25,0,.56,0,.94,0s.7,0,1,0a2.7,2.7,0,0,1,.59.14.69.69,0,0,1,.29.23.54.54,0,0,1,.09.31v2a13.51,13.51,0,0,1,1.2-1.5,6.62,6.62,0,0,1,1.07-.93,3.43,3.43,0,0,1,1-.48,4,4,0,0,1,1-.14l.51,0,.56.09a3.88,3.88,0,0,1,.5.14,1.13,1.13,0,0,1,.32.18.48.48,0,0,1,.15.2,2.24,2.24,0,0,1,.08.29,5.2,5.2,0,0,1,.05.58C326.26,150.14,326.27,150.48,326.27,150.92Z" style="fill: #4386f6"/>
          </g>
        </g>
      </g>
      <g>
        <g style="opacity: 0.2">
          <circle cx="1328.57" cy="64.4" r="60.72" style="stroke: #000;stroke-miterlimit: 10;stroke-width: 4px;stroke-dasharray: 4;opacity: 0.25"/>
          <path id="path50" d="M1361.85,84.73l-31.14,17.62V88.63L1350.11,78ZM1364,82.8V46l-11.39,6.58V76.23Zm-67.14,1.93L1328,102.35V88.63L1308.57,78Zm-2.13-1.93V46l11.39,6.58V76.23ZM1296,43.58,1328,25.52V38.77L1307.51,50l-.16.09Zm66.61,0-31.94-18.06V38.77L1351.18,50l.16.09Z"/>
          <path id="path52" d="M1328,85.51,1308.83,75V54.12L1328,65.18Zm2.73,0L1349.86,75V54.12l-19.15,11.06Zm-20.58-33.8,19.22-10.56,19.21,10.56-19.21,11.1Z"/>
          <path d="M1239.62,141.44h5l3.85,17,4.76-17h4.22l4.82,17,3.82-17h5l-6,26.64h-4.86l-4.91-17.22-4.82,17.22h-4.82Z"/>
          <path d="M1294.23,159.66h-15.89a5.25,5.25,0,0,0,1.84,3.34,5.76,5.76,0,0,0,3.81,1.24,6.61,6.61,0,0,0,4.77-1.93l4.16,1.95a9.72,9.72,0,0,1-3.73,3.27,11.62,11.62,0,0,1-5.16,1.06,10.23,10.23,0,0,1-7.56-2.92,10,10,0,0,1-2.91-7.33,10.27,10.27,0,0,1,2.91-7.49,9.73,9.73,0,0,1,7.29-3,10.12,10.12,0,0,1,7.57,3,10.78,10.78,0,0,1,2.92,7.87Zm-5-3.89a5,5,0,0,0-1.93-2.69,5.66,5.66,0,0,0-3.35-1,5.94,5.94,0,0,0-3.63,1.16,6.43,6.43,0,0,0-1.81,2.56Z"/>
          <path d="M1303.14,140.77v9.78a9.19,9.19,0,0,1,2.9-2,8.29,8.29,0,0,1,3.33-.67,8.62,8.62,0,0,1,6.56,2.91,10.6,10.6,0,0,1,2.7,7.49,10.32,10.32,0,0,1-2.79,7.36,8.81,8.81,0,0,1-6.61,3,8.07,8.07,0,0,1-3.17-.61,9.56,9.56,0,0,1-2.92-2v2.08h-4.91V140.77Zm5.2,11.66a5.15,5.15,0,0,0-3.88,1.6,5.76,5.76,0,0,0-1.54,4.16,6,6,0,0,0,1.54,4.25,5.13,5.13,0,0,0,3.88,1.62,5,5,0,0,0,3.81-1.65,6.46,6.46,0,0,0,0-8.36A5,5,0,0,0,1308.34,152.43Z"/>
          <path d="M1327.63,148.38v2.17a9.31,9.31,0,0,1,2.9-2,8.29,8.29,0,0,1,3.33-.67,8.61,8.61,0,0,1,6.56,2.91,10.6,10.6,0,0,1,2.7,7.49,10.32,10.32,0,0,1-2.79,7.36,8.79,8.79,0,0,1-6.61,3,8.1,8.1,0,0,1-3.17-.61,9.56,9.56,0,0,1-2.92-2v9.29h-4.91V148.38Zm5.2,4.05A5.15,5.15,0,0,0,1329,154a5.76,5.76,0,0,0-1.54,4.16,6,6,0,0,0,1.54,4.25,5.13,5.13,0,0,0,3.88,1.62,5,5,0,0,0,3.81-1.65,6.46,6.46,0,0,0,0-8.36A5,5,0,0,0,1332.83,152.43Z"/>
          <path d="M1361.76,148.38h5v19.7h-5V166a9.49,9.49,0,0,1-2.9,2,8.05,8.05,0,0,1-3.16.61,8.79,8.79,0,0,1-6.61-3,10.35,10.35,0,0,1-2.78-7.36,10.64,10.64,0,0,1,2.69-7.49,8.6,8.6,0,0,1,6.55-2.91,8.22,8.22,0,0,1,3.33.67,9,9,0,0,1,2.88,2Zm-5.2,4.05a5,5,0,0,0-3.81,1.62,6.49,6.49,0,0,0,0,8.36,5,5,0,0,0,3.8,1.65,5.09,5.09,0,0,0,3.86-1.62,5.91,5.91,0,0,0,1.54-4.25,5.72,5.72,0,0,0-1.54-4.16A5.12,5.12,0,0,0,1356.56,152.43Z"/>
          <path d="M1391,152.36l-4.12,2.26a6.1,6.1,0,0,0-5-2.15,6.2,6.2,0,0,0-4.49,1.65,5.67,5.67,0,0,0-1.71,4.25,5.45,5.45,0,0,0,1.65,4.1,6,6,0,0,0,4.33,1.59,6.29,6.29,0,0,0,5.17-2.26l3.9,2.67a10.63,10.63,0,0,1-9,4.12,10.74,10.74,0,0,1-8.14-3.08,10.25,10.25,0,0,1,2.48-16.27,12,12,0,0,1,5.73-1.37,11.64,11.64,0,0,1,5.28,1.17A9.94,9.94,0,0,1,1391,152.36Z"/>
          <path d="M1395.49,140.77h5V156.5l7.28-8.12h6.21l-8.49,9.44,9.5,10.26h-6.14l-8.36-9.08v9.08h-5Z"/>
        </g>
        <g>
          <g>
            <circle cx="1329.57" cy="63.4" r="60.72" style="fill: #3798e2;stroke: #3798e2;stroke-miterlimit: 10;stroke-width: 4px;stroke-dasharray: 4;opacity: 0.25"/>
            <g>
              <path id="path50-2" data-name="path50" d="M1362.85,83.73l-31.14,17.62V87.63L1351.11,77ZM1365,81.8V45l-11.39,6.58V75.23Zm-67.14,1.93L1329,101.35V87.63L1309.57,77Zm-2.13-1.93V45l11.39,6.58V75.23ZM1297,42.58,1329,24.52V37.77L1308.51,49l-.16.09Zm66.61,0-31.94-18.06V37.77L1352.18,49l.16.09Z" style="fill: #8ed6fb"/>
              <path id="path52-2" data-name="path52" d="M1329,84.51,1309.83,74V53.12L1329,64.18Zm2.73,0L1350.86,74V53.12l-19.15,11.06Zm-20.58-33.8,19.22-10.56,19.21,10.56-19.21,11.1Z" style="fill: #1c78c0"/>
            </g>
          </g>
          <g>
            <path d="M1240.62,140.44h5l3.85,17,4.76-17h4.22l4.82,17,3.82-17h5l-6,26.64h-4.86l-4.91-17.22-4.82,17.22h-4.82Z" style="fill: #34b0d6"/>
            <path d="M1295.23,158.66h-15.89a5.25,5.25,0,0,0,1.84,3.34,5.76,5.76,0,0,0,3.81,1.24,6.61,6.61,0,0,0,4.77-1.93l4.16,1.95a9.72,9.72,0,0,1-3.73,3.27,11.62,11.62,0,0,1-5.16,1.06,10.23,10.23,0,0,1-7.56-2.92,10,10,0,0,1-2.91-7.33,10.27,10.27,0,0,1,2.91-7.49,9.73,9.73,0,0,1,7.29-3,10.12,10.12,0,0,1,7.57,3,10.78,10.78,0,0,1,2.92,7.87Zm-5-3.89a5,5,0,0,0-1.93-2.69,5.66,5.66,0,0,0-3.35-1,5.94,5.94,0,0,0-3.63,1.16,6.43,6.43,0,0,0-1.81,2.56Z" style="fill: #34b0d6"/>
            <path d="M1304.14,139.77v9.78a9.19,9.19,0,0,1,2.9-2,8.29,8.29,0,0,1,3.33-.67,8.62,8.62,0,0,1,6.56,2.91,10.6,10.6,0,0,1,2.7,7.49,10.32,10.32,0,0,1-2.79,7.36,8.81,8.81,0,0,1-6.61,3,8.07,8.07,0,0,1-3.17-.61,9.56,9.56,0,0,1-2.92-2v2.08h-4.91V139.77Zm5.2,11.66a5.15,5.15,0,0,0-3.88,1.6,5.76,5.76,0,0,0-1.54,4.16,6,6,0,0,0,1.54,4.25,5.13,5.13,0,0,0,3.88,1.62,5,5,0,0,0,3.81-1.65,6.46,6.46,0,0,0,0-8.36A5,5,0,0,0,1309.34,151.43Z" style="fill: #34b0d6"/>
            <path d="M1328.63,147.38v2.17a9.31,9.31,0,0,1,2.9-2,8.29,8.29,0,0,1,3.33-.67,8.61,8.61,0,0,1,6.56,2.91,10.6,10.6,0,0,1,2.7,7.49,10.32,10.32,0,0,1-2.79,7.36,8.79,8.79,0,0,1-6.61,3,8.1,8.1,0,0,1-3.17-.61,9.56,9.56,0,0,1-2.92-2v9.29h-4.91V147.38Zm5.2,4.05A5.15,5.15,0,0,0,1330,153a5.76,5.76,0,0,0-1.54,4.16,6,6,0,0,0,1.54,4.25,5.13,5.13,0,0,0,3.88,1.62,5,5,0,0,0,3.81-1.65,6.46,6.46,0,0,0,0-8.36A5,5,0,0,0,1333.83,151.43Z" style="fill: #34b0d6"/>
            <path d="M1362.76,147.38h5v19.7h-5V165a9.49,9.49,0,0,1-2.9,2,8.05,8.05,0,0,1-3.16.61,8.79,8.79,0,0,1-6.61-3,10.35,10.35,0,0,1-2.78-7.36,10.64,10.64,0,0,1,2.69-7.49,8.6,8.6,0,0,1,6.55-2.91,8.22,8.22,0,0,1,3.33.67,9,9,0,0,1,2.88,2Zm-5.2,4.05a5,5,0,0,0-3.81,1.62,6.49,6.49,0,0,0,0,8.36,5,5,0,0,0,3.8,1.65,5.09,5.09,0,0,0,3.86-1.62,5.91,5.91,0,0,0,1.54-4.25,5.72,5.72,0,0,0-1.54-4.16A5.12,5.12,0,0,0,1357.56,151.43Z" style="fill: #34b0d6"/>
            <path d="M1392,151.36l-4.12,2.26a6.1,6.1,0,0,0-5-2.15,6.2,6.2,0,0,0-4.49,1.65,5.67,5.67,0,0,0-1.71,4.25,5.45,5.45,0,0,0,1.65,4.1,6,6,0,0,0,4.33,1.59,6.29,6.29,0,0,0,5.17-2.26l3.9,2.67a10.63,10.63,0,0,1-9,4.12,10.74,10.74,0,0,1-8.14-3.08,10.25,10.25,0,0,1,2.48-16.27,12,12,0,0,1,5.73-1.37,11.64,11.64,0,0,1,5.28,1.17A9.94,9.94,0,0,1,1392,151.36Z" style="fill: #34b0d6"/>
            <path d="M1396.49,139.77h5V155.5l7.28-8.12h6.21l-8.49,9.44,9.5,10.26h-6.14l-8.36-9.08v9.08h-5Z" style="fill: #34b0d6"/>
          </g>
        </g>
      </g>
      <g>
        <g style="opacity: 0.2">
          <path d="M647.92,154.62l-2.1,2a6.49,6.49,0,0,0-4.83-2.27,5.29,5.29,0,0,0-5.37,5.36,5.63,5.63,0,0,0,.69,2.81,4.93,4.93,0,0,0,1.94,1.93,6,6,0,0,0,5.19.2,8.49,8.49,0,0,0,2.38-1.77l2,2.12a11.19,11.19,0,0,1-3.31,2.37A9,9,0,0,1,641,168a8.41,8.41,0,0,1-7.31-12.52,8.07,8.07,0,0,1,3.06-3,8.69,8.69,0,0,1,4.3-1.11,9.07,9.07,0,0,1,6.88,3.17Z"/>
          <path d="M655.72,155.66a6.12,6.12,0,0,1,3.11.83,6.07,6.07,0,0,1,3.09,5.3,6.15,6.15,0,0,1-.82,3.1,6,6,0,0,1-2.24,2.25,6.21,6.21,0,0,1-3.13.81,5.85,5.85,0,0,1-4.29-1.79,6.16,6.16,0,0,1,4.28-10.5Zm0,2.76a3,3,0,0,0-2.28,1,3.39,3.39,0,0,0-.91,2.43,3.43,3.43,0,0,0,.9,2.47,3.21,3.21,0,0,0,4.57,0,3.75,3.75,0,0,0,0-4.9A3,3,0,0,0,655.77,158.42Z"/>
          <path d="M664.31,156h2.94v1.2a7,7,0,0,1,1.8-1.17,4.39,4.39,0,0,1,1.66-.33,4,4,0,0,1,2.95,1.21,4.18,4.18,0,0,1,1,3v7.73h-2.9v-5.12a12.56,12.56,0,0,0-.19-2.78,1.88,1.88,0,0,0-.65-1.05,1.84,1.84,0,0,0-1.15-.36,2.15,2.15,0,0,0-1.53.6,3.13,3.13,0,0,0-.88,1.65,12.74,12.74,0,0,0-.13,2.37v4.69h-2.94Z"/>
          <path d="M677.87,151.65h2.93V156h1.74v2.52H680.8v9.17h-2.93v-9.17h-1.5V156h1.5Z"/>
          <path d="M692.74,156h2.93v11.69h-2.93v-1.24a5.7,5.7,0,0,1-1.72,1.18,4.84,4.84,0,0,1-1.88.36,5.21,5.21,0,0,1-3.91-1.76,6.14,6.14,0,0,1-1.65-4.37,6.29,6.29,0,0,1,1.59-4.43,5.08,5.08,0,0,1,3.89-1.73,4.82,4.82,0,0,1,2,.4,5.24,5.24,0,0,1,1.71,1.19Zm-3.08,2.41a3,3,0,0,0-2.26,1,3.45,3.45,0,0,0-.9,2.46,3.49,3.49,0,0,0,.91,2.49,2.94,2.94,0,0,0,2.26,1,3,3,0,0,0,2.29-1,3.54,3.54,0,0,0,.91-2.52,3.43,3.43,0,0,0-.91-2.47A3.07,3.07,0,0,0,689.66,158.37Z"/>
          <path d="M710.08,158.32l-2.44,1.34a4.17,4.17,0,0,0-1.37-1,4,4,0,0,0-1.57-.28,3.63,3.63,0,0,0-2.66,1,3.32,3.32,0,0,0-1,2.51,3.25,3.25,0,0,0,1,2.44,3.54,3.54,0,0,0,2.57.94,3.77,3.77,0,0,0,3.07-1.34L710,165.5a7.12,7.12,0,0,1-10.14.62,6.09,6.09,0,0,1,1.47-9.65,7.14,7.14,0,0,1,3.4-.81,6.92,6.92,0,0,1,3.13.69A6,6,0,0,1,710.08,158.32Z"/>
          <path d="M713.07,151.65H716V156h1.74v2.52H716v9.17h-2.94v-9.17h-1.5V156h1.5Z"/>
          <path d="M726.47,157.59l-1.82,1.82a3.05,3.05,0,0,0-2-1.1,1.28,1.28,0,0,0-.77.21.62.62,0,0,0-.28.52.66.66,0,0,0,.18.44,3.49,3.49,0,0,0,.87.54l1.08.54a6.33,6.33,0,0,1,2.33,1.7,3.58,3.58,0,0,1-.51,4.65,4.41,4.41,0,0,1-3.07,1,4.89,4.89,0,0,1-4.08-2l1.81-2a4.2,4.2,0,0,0,1.2,1,2.82,2.82,0,0,0,1.23.37,1.52,1.52,0,0,0,.94-.28.83.83,0,0,0,.35-.65c0-.45-.42-.89-1.28-1.32l-1-.49q-2.83-1.44-2.84-3.58a3.13,3.13,0,0,1,1.07-2.37,3.89,3.89,0,0,1,2.73-1,4.69,4.69,0,0,1,2.15.5A4.76,4.76,0,0,1,726.47,157.59Z"/>
          <path d="M735.47,167.65V151.84H738a13.19,13.19,0,0,1,3.16.28,4.27,4.27,0,0,1,2.26,1.4,3.67,3.67,0,0,1,.84,2.41,3.41,3.41,0,0,1-.39,1.63,4,4,0,0,1-1.24,1.39,5,5,0,0,1,2.11,1.69,4.27,4.27,0,0,1,.66,2.4,4.46,4.46,0,0,1-.68,2.43,4.35,4.35,0,0,1-1.78,1.63,6.66,6.66,0,0,1-3,.55Zm3-12.94V158h.66a2.44,2.44,0,0,0,1.63-.46,1.57,1.57,0,0,0,.53-1.26,1.45,1.45,0,0,0-.5-1.17,2.32,2.32,0,0,0-1.54-.44Zm0,6v4.05h.75a4.74,4.74,0,0,0,2.53-.47,1.62,1.62,0,0,0,.65-1.38,1.92,1.92,0,0,0-.76-1.61,4.27,4.27,0,0,0-2.55-.59Z"/>
          <path d="M753.4,155.66a6.12,6.12,0,0,1,3.11.83,6.07,6.07,0,0,1,3.09,5.3,6.25,6.25,0,0,1-.82,3.1,6,6,0,0,1-2.24,2.25,6.21,6.21,0,0,1-3.13.81,5.82,5.82,0,0,1-4.29-1.79,6.19,6.19,0,0,1,.23-8.91A5.85,5.85,0,0,1,753.4,155.66Zm.05,2.76a3,3,0,0,0-2.28,1,3.39,3.39,0,0,0-.91,2.43,3.43,3.43,0,0,0,.9,2.47,3.21,3.21,0,0,0,4.57,0,3.78,3.78,0,0,0,0-4.9A3,3,0,0,0,753.45,158.42Z"/>
          <path d="M767.48,155.66a6.09,6.09,0,0,1,3.11.83,6.07,6.07,0,0,1,3.09,5.3,6.15,6.15,0,0,1-.82,3.1,6,6,0,0,1-2.24,2.25,6.21,6.21,0,0,1-3.13.81,5.85,5.85,0,0,1-4.29-1.79,6.19,6.19,0,0,1,.23-8.91A5.89,5.89,0,0,1,767.48,155.66Zm0,2.76a3,3,0,0,0-2.27,1,3.34,3.34,0,0,0-.91,2.43,3.42,3.42,0,0,0,.89,2.47,3.21,3.21,0,0,0,4.57,0,3.75,3.75,0,0,0,0-4.9A3,3,0,0,0,767.53,158.42Z"/>
          <path d="M776.1,151.45H779v9.33l4.32-4.82H787l-5,5.6,5.63,6.09H784l-5-5.39v5.39H776.1Z"/>
        </g>
        <g>
          <path d="M648.92,153.62l-2.1,2a6.49,6.49,0,0,0-4.83-2.27,5.29,5.29,0,0,0-5.37,5.36,5.63,5.63,0,0,0,.69,2.81,4.93,4.93,0,0,0,1.94,1.93,6,6,0,0,0,5.19.2,8.49,8.49,0,0,0,2.38-1.77l2,2.12a11.19,11.19,0,0,1-3.31,2.37A9,9,0,0,1,642,167a8.41,8.41,0,0,1-7.31-12.52,8.07,8.07,0,0,1,3.06-3,8.69,8.69,0,0,1,4.3-1.11,9.07,9.07,0,0,1,6.88,3.17Z" style="fill: #29a1dc"/>
          <path d="M656.72,154.66a6.12,6.12,0,0,1,3.11.83,6.07,6.07,0,0,1,3.09,5.3,6.15,6.15,0,0,1-.82,3.1,6,6,0,0,1-2.24,2.25,6.21,6.21,0,0,1-3.13.81,5.85,5.85,0,0,1-4.29-1.79,6.16,6.16,0,0,1,4.28-10.5Zm0,2.76a3,3,0,0,0-2.28,1,3.39,3.39,0,0,0-.91,2.43,3.43,3.43,0,0,0,.9,2.47,3.21,3.21,0,0,0,4.57,0,3.75,3.75,0,0,0,0-4.9A3,3,0,0,0,656.77,157.42Z" style="fill: #29a1dc"/>
          <path d="M665.31,155h2.94v1.2a7,7,0,0,1,1.8-1.17,4.39,4.39,0,0,1,1.66-.33,4,4,0,0,1,2.95,1.21,4.18,4.18,0,0,1,1,3v7.73h-2.9v-5.12a12.56,12.56,0,0,0-.19-2.78,1.88,1.88,0,0,0-.65-1.05,1.84,1.84,0,0,0-1.15-.36,2.15,2.15,0,0,0-1.53.6,3.13,3.13,0,0,0-.88,1.65,12.74,12.74,0,0,0-.13,2.37v4.69h-2.94Z" style="fill: #29a1dc"/>
          <path d="M678.87,150.65h2.93V155h1.74v2.52H681.8v9.17h-2.93v-9.17h-1.5V155h1.5Z" style="fill: #29a1dc"/>
          <path d="M693.74,155h2.93v11.69h-2.93v-1.24a5.7,5.7,0,0,1-1.72,1.18,4.84,4.84,0,0,1-1.88.36,5.21,5.21,0,0,1-3.91-1.76,6.14,6.14,0,0,1-1.65-4.37,6.29,6.29,0,0,1,1.59-4.43,5.08,5.08,0,0,1,3.89-1.73,4.82,4.82,0,0,1,2,.4,5.24,5.24,0,0,1,1.71,1.19Zm-3.08,2.41a3,3,0,0,0-2.26,1,3.45,3.45,0,0,0-.9,2.46,3.49,3.49,0,0,0,.91,2.49,2.94,2.94,0,0,0,2.26,1,3,3,0,0,0,2.29-1,3.54,3.54,0,0,0,.91-2.52,3.43,3.43,0,0,0-.91-2.47A3.07,3.07,0,0,0,690.66,157.37Z" style="fill: #29a1dc"/>
          <path d="M711.08,157.32l-2.44,1.34a4.17,4.17,0,0,0-1.37-1,4,4,0,0,0-1.57-.28,3.63,3.63,0,0,0-2.66,1,3.32,3.32,0,0,0-1,2.51,3.25,3.25,0,0,0,1,2.44,3.54,3.54,0,0,0,2.57.94,3.77,3.77,0,0,0,3.07-1.34L711,164.5a7.12,7.12,0,0,1-10.14.62,6.09,6.09,0,0,1,1.47-9.65,7.14,7.14,0,0,1,3.4-.81,6.92,6.92,0,0,1,3.13.69A6,6,0,0,1,711.08,157.32Z" style="fill: #29a1dc"/>
          <path d="M714.07,150.65H717V155h1.74v2.52H717v9.17h-2.94v-9.17h-1.5V155h1.5Z" style="fill: #29a1dc"/>
          <path d="M727.47,156.59l-1.82,1.82a3.05,3.05,0,0,0-2-1.1,1.28,1.28,0,0,0-.77.21.62.62,0,0,0-.28.52.66.66,0,0,0,.18.44,3.49,3.49,0,0,0,.87.54l1.08.54a6.33,6.33,0,0,1,2.33,1.7,3.58,3.58,0,0,1-.51,4.65,4.41,4.41,0,0,1-3.07,1,4.89,4.89,0,0,1-4.08-2l1.81-2a4.2,4.2,0,0,0,1.2,1,2.82,2.82,0,0,0,1.23.37,1.52,1.52,0,0,0,.94-.28.83.83,0,0,0,.35-.65c0-.45-.42-.89-1.28-1.32l-1-.49q-2.83-1.44-2.84-3.58a3.13,3.13,0,0,1,1.07-2.37,3.89,3.89,0,0,1,2.73-1,4.69,4.69,0,0,1,2.15.5A4.76,4.76,0,0,1,727.47,156.59Z" style="fill: #29a1dc"/>
          <path d="M736.47,166.65V150.84H739a13.19,13.19,0,0,1,3.16.28,4.27,4.27,0,0,1,2.26,1.4,3.67,3.67,0,0,1,.84,2.41,3.41,3.41,0,0,1-.39,1.63,4,4,0,0,1-1.24,1.39,5,5,0,0,1,2.11,1.69,4.27,4.27,0,0,1,.66,2.4,4.46,4.46,0,0,1-.68,2.43,4.35,4.35,0,0,1-1.78,1.63,6.66,6.66,0,0,1-3,.55Zm3-12.94V157h.66a2.44,2.44,0,0,0,1.63-.46,1.57,1.57,0,0,0,.53-1.26,1.45,1.45,0,0,0-.5-1.17,2.32,2.32,0,0,0-1.54-.44Zm0,6v4.05h.75a4.74,4.74,0,0,0,2.53-.47,1.62,1.62,0,0,0,.65-1.38,1.92,1.92,0,0,0-.76-1.61,4.27,4.27,0,0,0-2.55-.59Z" style="fill: #29a1dc"/>
          <path d="M754.4,154.66a6.12,6.12,0,0,1,3.11.83,6.07,6.07,0,0,1,3.09,5.3,6.25,6.25,0,0,1-.82,3.1,6,6,0,0,1-2.24,2.25,6.21,6.21,0,0,1-3.13.81,5.82,5.82,0,0,1-4.29-1.79,6.19,6.19,0,0,1,.23-8.91A5.85,5.85,0,0,1,754.4,154.66Zm.05,2.76a3,3,0,0,0-2.28,1,3.39,3.39,0,0,0-.91,2.43,3.43,3.43,0,0,0,.9,2.47,3.21,3.21,0,0,0,4.57,0,3.78,3.78,0,0,0,0-4.9A3,3,0,0,0,754.45,157.42Z" style="fill: #29a1dc"/>
          <path d="M768.48,154.66a6.09,6.09,0,0,1,3.11.83,6.07,6.07,0,0,1,3.09,5.3,6.15,6.15,0,0,1-.82,3.1,6,6,0,0,1-2.24,2.25,6.21,6.21,0,0,1-3.13.81,5.85,5.85,0,0,1-4.29-1.79,6.19,6.19,0,0,1,.23-8.91A5.89,5.89,0,0,1,768.48,154.66Zm0,2.76a3,3,0,0,0-2.27,1,3.34,3.34,0,0,0-.91,2.43,3.42,3.42,0,0,0,.89,2.47,3.21,3.21,0,0,0,4.57,0,3.75,3.75,0,0,0,0-4.9A3,3,0,0,0,768.53,157.42Z" style="fill: #29a1dc"/>
          <path d="M777.1,150.45H780v9.33l4.32-4.82H788l-5,5.6,5.63,6.09H785l-5-5.39v5.39H777.1Z" style="fill: #29a1dc"/>
        </g>
      </g>
    </g>
    <g id="Layer_2-2" data-name="Layer 2">
      <g>
        <g style="opacity: 0.2">
          <path d="M664.78,14.67c-6.61,3.18-10.47,7.23-10.21,11.8-.21.72,0,90.16-.07,90.91l73.48.89a12.45,12.45,0,0,1,12.67-12.2h13.69V24.7a2.37,2.37,0,0,0-.66-1.61c-3.72-8.83-24.33-15.6-49.26-15.6-16.09.08-30.5,2.79-39.64,7.18"/>
          <path d="M754.34,130.53a.66.66,0,0,1-.65.66H667.17a12.93,12.93,0,0,1,.21-25.85h86.31a.66.66,0,0,1,.65.66h0a.66.66,0,0,1-.38.6,13,13,0,0,0,0,23.33.66.66,0,0,1,.38.6Z"/>
          <path d="M680.17,131.19H667.33A12.88,12.88,0,0,1,654.5,118a13,13,0,0,1,13-12.7h12.83a12.93,12.93,0,1,0-.21,25.85Z"/>
          <rect x="672.99" y="31.49" width="66.56" height="48" rx="4.65"/>
          <rect x="672.87" y="31.59" width="66.56" height="48" rx="4.65" style="fill: none;stroke: #000;stroke-miterlimit: 10;stroke-width: 4px"/>
          <rect x="676.69" y="34.94" width="58.33" height="41.84" rx="4.16"/>
          <ellipse cx="689.63" cy="51.8" rx="1.85" ry="7.39" style="stroke: #000;stroke-miterlimit: 10;stroke-width: 2px;opacity: 0.6000000000000001"/>
          <ellipse cx="726.6" cy="51.8" rx="1.85" ry="7.39" style="stroke: #000;stroke-miterlimit: 10;stroke-width: 2px;opacity: 0.6000000000000001"/>
          <path d="M717.36,61c0,2-4.17,3.69-9.24,3.69s-9.25-1.66-9.25-3.69" style="fill: none;stroke: #000;stroke-linecap: round;stroke-linejoin: round;stroke-width: 3px;opacity: 0.6000000000000001"/>
          <path d="M654.9,103.55c0,7.65,0,12.79,0,13Z" style="fill: none;stroke: #000;stroke-linecap: round;stroke-linejoin: round;stroke-width: 3px"/>
          <path d="M654.88,38.19c0,13.32,0,35.71,0,53.34" style="fill: none;stroke: #000;stroke-linecap: round;stroke-linejoin: round;stroke-width: 3px"/>
          <path d="M673.6,11.79c-11.61,3.4-19,8.7-18.64,15,0,.08,0,1.16-.05,3" style="fill: none;stroke: #000;stroke-linecap: round;stroke-linejoin: round;stroke-width: 3px"/>
          <path d="M754.73,104.11V25a2.34,2.34,0,0,0-.66-1.6c-3.72-8.84-24.33-15.61-49.26-15.61a116.65,116.65,0,0,0-31.21,4" style="fill: none;stroke: #000;stroke-linecap: round;stroke-linejoin: round;stroke-width: 3px"/>
          <path d="M754.6,130.62a.65.65,0,0,1-.64.66H667.43a12.93,12.93,0,0,1,.21-25.85H754c.9-1.55.9-1.55.64.66h0a.66.66,0,0,1-.38.6,13,13,0,0,0,0,23.33.69.69,0,0,1,.38.6Z" style="fill: none;stroke: #000;stroke-linecap: round;stroke-linejoin: round;stroke-width: 3px"/>
          <path d="M701.25,149.59h0a21.57,21.57,0,0,0-16.07,0h0a.87.87,0,0,1-1.21-.78V116.42h18.49v32.39A.87.87,0,0,1,701.25,149.59Z"/>
          <path d="M691.37,148.15a22.79,22.79,0,0,0-6.14,1.44h0a.91.91,0,0,1-1.26-.78V116.42h7.4v31.73Z"/>
          <path d="M701.25,149.59h0a21.57,21.57,0,0,0-16.07,0h0a.87.87,0,0,1-1.21-.78V116.42h18.49v32.39A.87.87,0,0,1,701.25,149.59Z" style="fill: none;stroke: #000;stroke-linejoin: round;stroke-width: 3px"/>
        </g>
        <g>
          <path d="M670.78,8.67c-6.61,3.18-10.47,7.23-10.21,11.8-.21.72,0,90.16-.07,90.91l73.48.89a12.45,12.45,0,0,1,12.67-12.2h13.69V18.7a2.37,2.37,0,0,0-.66-1.61C756,8.26,735.35,1.49,710.42,1.49c-16.09.08-30.5,2.79-39.64,7.18" style="fill: url(#linear-gradient)"/>
          <path d="M760.34,124.53a.66.66,0,0,1-.65.66H673.17a12.93,12.93,0,0,1,.21-25.85h86.31a.66.66,0,0,1,.65.66h0a.66.66,0,0,1-.38.6,13,13,0,0,0,0,23.33.66.66,0,0,1,.38.6Z" style="fill: #f8c087"/>
          <path d="M686.17,125.19H673.33A12.88,12.88,0,0,1,660.5,112a13,13,0,0,1,13-12.7h12.83a12.93,12.93,0,1,0-.21,25.85Z" style="fill: #ef9f67"/>
          <rect x="678.99" y="25.49" width="66.56" height="48" rx="4.65" style="fill: #e7e8ec"/>
          <rect x="678.87" y="25.59" width="66.56" height="48" rx="4.65" style="fill: none;stroke: #333;stroke-miterlimit: 10;stroke-width: 4px"/>
          <rect x="682.69" y="28.94" width="58.33" height="41.84" rx="4.16" style="fill: #fafbfc"/>
          <ellipse cx="695.63" cy="45.8" rx="1.85" ry="7.39" style="stroke: #000;stroke-miterlimit: 10;stroke-width: 2px;opacity: 0.6000000000000001"/>
          <ellipse cx="732.6" cy="45.8" rx="1.85" ry="7.39" style="stroke: #000;stroke-miterlimit: 10;stroke-width: 2px;opacity: 0.6000000000000001"/>
          <path d="M723.36,55c0,2-4.17,3.69-9.24,3.69s-9.25-1.66-9.25-3.69" style="fill: none;stroke: #000;stroke-linecap: round;stroke-linejoin: round;stroke-width: 3px;opacity: 0.6000000000000001"/>
          <g>
            <path d="M660.9,97.55c0,7.65,0,12.79,0,13Z" style="fill: none;stroke: #333;stroke-linecap: round;stroke-linejoin: round;stroke-width: 3px"/>
            <path d="M660.88,32.19c0,13.32,0,35.71,0,53.34" style="fill: none;stroke: #333;stroke-linecap: round;stroke-linejoin: round;stroke-width: 3px"/>
            <path d="M679.6,5.79c-11.61,3.4-19,8.7-18.64,15,0,.08,0,1.16-.05,3" style="fill: none;stroke: #333;stroke-linecap: round;stroke-linejoin: round;stroke-width: 3px"/>
            <path d="M760.73,98.11V19a2.34,2.34,0,0,0-.66-1.6c-3.72-8.84-24.33-15.61-49.26-15.61a116.65,116.65,0,0,0-31.21,4" style="fill: none;stroke: #333;stroke-linecap: round;stroke-linejoin: round;stroke-width: 3px"/>
            <path d="M760.6,124.62a.65.65,0,0,1-.64.66H673.43a12.93,12.93,0,0,1,.21-25.85H760c.9-1.55.9-1.55.64.66h0a.66.66,0,0,1-.38.6,13,13,0,0,0,0,23.33.69.69,0,0,1,.38.6Z" style="fill: none;stroke: #333;stroke-linecap: round;stroke-linejoin: round;stroke-width: 3px"/>
          </g>
          <g>
            <path d="M707.25,143.59h0a21.57,21.57,0,0,0-16.07,0h0a.87.87,0,0,1-1.21-.78V110.42h18.49v32.39A.87.87,0,0,1,707.25,143.59Z" style="fill: #ff4040"/>
            <path d="M697.37,142.15a22.79,22.79,0,0,0-6.14,1.44h0a.91.91,0,0,1-1.26-.78V110.42h7.4v31.73Z" style="fill: #ed3c3c"/>
          </g>
          <path d="M707.25,143.59h0a21.57,21.57,0,0,0-16.07,0h0a.87.87,0,0,1-1.21-.78V110.42h18.49v32.39A.87.87,0,0,1,707.25,143.59Z" style="fill: none;stroke: #333;stroke-linejoin: round;stroke-width: 3px"/>
        </g>
      </g>
    </g>
  </g>
</svg>
